<svg xmlns="http://www.w3.org/2000/svg" width="106.129" height="152.339" viewBox="0 0 106.129 152.339"><defs><style>.a{fill:#f8c44f;}.b{fill:#282d33;}.c{fill:#fff;}</style></defs><g transform="translate(-134.871 -199.011)"><g transform="translate(167.731 199.011)"><path class="a" d="M292.246,189.546a17.2,17.2,0,1,1-17.194-17.2A17.194,17.194,0,0,1,292.246,189.546Z" transform="translate(-254.906 -169.401)"/><path class="b" d="M276,210.638a20.145,20.145,0,1,1,20.142-20.144A20.167,20.167,0,0,1,276,210.638Zm0-34.393a14.249,14.249,0,1,0,14.246,14.249A14.264,14.264,0,0,0,276,176.245Z" transform="translate(-255.854 -170.349)"/></g><g transform="translate(213.744 245.933)"><path class="c" d="M4.7,0H9.724a4.7,4.7,0,0,1,4.7,4.7V21.836a4.7,4.7,0,0,1-4.7,4.7H4.7a4.7,4.7,0,0,1-4.7-4.7V4.7A4.7,4.7,0,0,1,4.7,0Z" transform="translate(2.948 2.948)"/><path class="b" d="M297.516,234.61h-.578a9.88,9.88,0,0,1-9.868-9.87V212.052a9.88,9.88,0,0,1,9.868-9.87h.578a9.88,9.88,0,0,1,9.868,9.87V224.74A9.88,9.88,0,0,1,297.516,234.61Zm-.578-26.532a3.977,3.977,0,0,0-3.972,3.974V224.74a3.977,3.977,0,0,0,3.972,3.974h.578a3.976,3.976,0,0,0,3.972-3.974V212.052a3.976,3.976,0,0,0-3.972-3.974Z" transform="translate(-287.07 -202.182)"/></g><g transform="translate(134.871 317.159)"><path class="c" d="M235.561,283.746V266.388c0-7.668,7.027-13.885,15.691-13.885h68.855c8.666,0,15.686,6.217,15.686,13.885v17.358" transform="translate(-232.613 -249.555)"/><path class="b" d="M339.69,284.694h-5.9V267.336c0-6.03-5.713-10.937-12.738-10.937H252.2c-7.027,0-12.743,4.907-12.743,10.937v17.358h-5.9V267.336c0-9.282,8.361-16.833,18.639-16.833h68.855c10.275,0,18.634,7.551,18.634,16.833Z" transform="translate(-233.561 -250.503)"/></g><g transform="translate(149.936 209.514)"><path class="c" d="M315.888,242.566a35.055,35.055,0,0,1-35.055,35.055h0a35.055,35.055,0,0,1-35.052-35.055V214.524a35.052,35.052,0,0,1,35.052-35.05h0a35.052,35.052,0,0,1,35.055,35.05Z" transform="translate(-242.833 -176.526)"/><path class="b" d="M281.781,281.517a38.046,38.046,0,0,1-38-38V215.472a38,38,0,0,1,76,0v28.042A38.046,38.046,0,0,1,281.781,281.517Zm0-98.147a32.14,32.14,0,0,0-32.1,32.1v28.042a32.105,32.105,0,1,0,64.211,0V215.472A32.142,32.142,0,0,0,281.781,183.37Z" transform="translate(-243.781 -177.474)"/></g><g transform="translate(140.781 245.681)"><path class="c" d="M248.725,204.23c-3.482.364-9.155,3.272-9.155,6.851v12.688c0,3.579,5.673,6.489,9.155,6.85Z" transform="translate(-236.622 -200.959)"/><path class="b" d="M252.621,234.94l-3.252-.338c-4.821-.5-11.8-4.272-11.8-9.782V212.133c0-5.507,6.976-9.28,11.8-9.783l3.253-.339Zm-5.9-25.714c-1.8.883-3.259,2.127-3.259,2.907v12.688c0,.781,1.461,2.024,3.259,2.907Z" transform="translate(-237.57 -202.011)"/></g><g transform="translate(185.417 329.707)"><rect class="b" width="5.896" height="5.766"/></g><g transform="translate(185.417 342.61)"><rect class="b" width="5.896" height="5.767"/></g><g transform="translate(149.936 209.514)"><path class="a" d="M280.833,179.474a35.052,35.052,0,0,0-35.052,35.05v6.53h45.572l6.127-10.611,6.126,10.611h12.281v-6.53A35.052,35.052,0,0,0,280.833,179.474Z" transform="translate(-242.833 -176.526)"/><path class="b" d="M319.784,224.95H302.852l-4.423-7.663L294,224.95H243.781v-9.478a38,38,0,0,1,76,0Zm-13.528-5.9h7.632v-3.582a32.105,32.105,0,0,0-64.211,0v3.582H290.6l7.828-13.558Z" transform="translate(-243.781 -177.474)"/></g></g></svg>