<svg xmlns="http://www.w3.org/2000/svg" xmlns:xlink="http://www.w3.org/1999/xlink" width="340.696" height="100.316" viewBox="0 0 340.696 100.316">
  <defs>
    <filter id="Retângulo_105" x="0" y="0" width="340.696" height="100.316" filterUnits="userSpaceOnUse">
      <feOffset dy="3" input="SourceAlpha"/>
      <feGaussianBlur stdDeviation="3" result="blur"/>
      <feFlood flood-opacity="0.161"/>
      <feComposite operator="in" in2="blur"/>
      <feComposite in="SourceGraphic"/>
    </filter>
    <linearGradient id="linear-gradient" x1="0.505" y1="0.169" x2="0.497" y2="0.903" gradientUnits="objectBoundingBox">
      <stop offset="0" stop-color="#db9200"/>
      <stop offset="1" stop-color="#a85400"/>
    </linearGradient>
    <linearGradient id="linear-gradient-2" x1="0.359" y1="0.082" x2="0.654" y2="0.958" gradientUnits="objectBoundingBox">
      <stop offset="0" stop-color="#fcee2a"/>
      <stop offset="1" stop-color="#e69d00"/>
    </linearGradient>
    <linearGradient id="linear-gradient-3" x1="0.249" y1="0.088" x2="0.75" y2="0.911" gradientUnits="objectBoundingBox">
      <stop offset="0" stop-color="#fcff6e"/>
      <stop offset="0.99" stop-color="#d17700"/>
    </linearGradient>
    <linearGradient id="linear-gradient-4" x1="0.871" y1="0.813" x2="0.138" y2="0.195" gradientUnits="objectBoundingBox">
      <stop offset="0" stop-color="#fae647"/>
      <stop offset="1" stop-color="#c46500"/>
    </linearGradient>
    <linearGradient id="linear-gradient-5" x1="0.392" y1="0.432" x2="0.934" y2="0.718" gradientUnits="objectBoundingBox">
      <stop offset="0" stop-color="#fcee2a"/>
      <stop offset="0.995" stop-color="#e69d00"/>
    </linearGradient>
    <linearGradient id="linear-gradient-6" x1="0.264" y1="0.408" x2="0.639" y2="0.544" gradientUnits="objectBoundingBox">
      <stop offset="0" stop-color="#fffb7b"/>
      <stop offset="0.507" stop-color="#e69d00"/>
      <stop offset="1" stop-color="#a85400"/>
    </linearGradient>
  </defs>
  <g id="Grupo_69" data-name="Grupo 69" transform="translate(-18 -268.873)">
    <g transform="matrix(1, 0, 0, 1, 18, 268.87)" filter="url(#Retângulo_105)">
      <rect id="Retângulo_105-2" data-name="Retângulo 105" width="322.697" height="82.316" rx="7" transform="translate(9 6)" fill="#fff"/>
    </g>
    <text id="Pedreiro_-Reforma_geral" data-name="Pedreiro -Reforma geral" transform="translate(130 289.43)" fill="#7f7f7f" font-size="16" font-family="HelveticaNeue-Bold, Helvetica Neue" font-weight="700"><tspan x="0" y="16">Pedreiro -Reforma geral</tspan></text>
    <path id="Subtração_2" data-name="Subtração 2" d="M74.693,90.19H7a7.008,7.008,0,0,1-7-7V14.873a7.008,7.008,0,0,1,7-7H74.693V90.189Z" transform="translate(27 267)" fill="#ff4d4d"/>
    <path id="Caminho_99" data-name="Caminho 99" d="M527.4,951.334h-.648v-6.528c0-.053,0-.105,0-.158l0-.1a11.971,11.971,0,0,0-7.237-10.966,11.58,11.58,0,0,0-3.843-.949c-.255-.018-.509-.027-.762-.028H514.7c-.254,0-.508.01-.762.028a11.581,11.581,0,0,0-3.842.949,11.971,11.971,0,0,0-7.237,10.966l0,.1c0,.053,0,.105,0,.158v6.528h-.649a1.683,1.683,0,0,0-1.682,1.683v16.806a1.683,1.683,0,0,0,1.682,1.683H527.4a1.684,1.684,0,0,0,1.683-1.683V953.017A1.684,1.684,0,0,0,527.4,951.334Zm-11.33,10.621v2.43a1.266,1.266,0,1,1-2.531,0v-2.43a2.632,2.632,0,1,1,2.531,0Zm-9.324-10.621V946.56a1.956,1.956,0,0,0,.031-.343l-.031-1.238a8.19,8.19,0,0,1,7.978-8.262h.161a8.19,8.19,0,0,1,7.978,8.262l-.031,1.238a1.956,1.956,0,0,0,.031.343v4.774Z" transform="translate(-450.321 -644.647)" fill="#fff"/>
    <text id="Antônio_G_" data-name="Antônio G…" transform="translate(154 328.009)" fill="#707070" font-size="12" font-family="HelveticaNeue, Helvetica Neue"><tspan x="0" y="11">Antônio G…</tspan></text>
    <text id="_900" data-name="900" transform="translate(58 336.009)" fill="#fff" font-size="12" font-family="HelveticaNeue, Helvetica Neue"><tspan x="0" y="11">900</tspan></text>
    <text id="Pituba_-_SSA" data-name="Pituba - SSA" transform="translate(252 328.009)" fill="#707070" font-size="12" font-family="HelveticaNeue, Helvetica Neue"><tspan x="0" y="11">Pituba - SSA</tspan></text>
    <path id="_06" data-name="06" d="M716.107,1050.463H703.55a.742.742,0,0,1-.741-.74l0-1.279a2.176,2.176,0,0,1,1.5-2.15c.427-.162,2.306-.793,2.887-.989V1043.9c-.486-1.98-.777-3.18-.519-4.259a3.239,3.239,0,0,1,6.311,0c.258,1.078-.034,2.278-.519,4.259v1.408c.581.2,2.459.827,2.886.989a2.176,2.176,0,0,1,1.5,2.15l0,1.279a.742.742,0,0,1-.741.74Z" transform="translate(-573.28 -709.154)" fill="#0e96e2"/>
    <path id="Caminho_98" data-name="Caminho 98" d="M862.295,1032.984a5.352,5.352,0,0,0-5.346,5.346c0,2.873,4.946,8.846,5.156,9.1l.19.228.19-.228c.21-.253,5.156-6.226,5.156-9.1A5.352,5.352,0,0,0,862.295,1032.984Zm0,7.348a2,2,0,1,1,2-2A2,2,0,0,1,862.295,1040.332Z" transform="translate(-622.607 -706.658)" fill="#0e96e2"/>
    <g id="Grupo_67" data-name="Grupo 67" transform="translate(15.133 103.402)">
      <g id="Grupo_65" data-name="Grupo 65" transform="translate(27.404 230.857)">
        <path id="Caminho_77" data-name="Caminho 77" d="M435.785,309a6.938,6.938,0,0,1,2.53,7.66,6.1,6.1,0,0,1-7.725,3.714,6.407,6.407,0,0,1-2.3-1.408C426.724,317.125,435.4,308.736,435.785,309Z" transform="translate(-424.341 -306.075)" fill="url(#linear-gradient)"/>
        <g id="Grupo_59" data-name="Grupo 59" transform="translate(11.168 5.247)">
          <path id="Caminho_78" data-name="Caminho 78" d="M656.554,579.924a7.731,7.731,0,0,0-.6-.587c-.134-.108-.328.114-.2.223s.464.4.6.548C656.429,580.043,656.471,580,656.554,579.924Z" transform="translate(-655.237 -572.274)" fill="#a85400"/>
          <path id="Caminho_79" data-name="Caminho 79" d="M669.548,569.921c.035-.043.128-.138.16-.183a5.579,5.579,0,0,0-.6-.529c-.061-.039-.227.165-.168.205C669.014,569.466,669.458,569.845,669.548,569.921Z" transform="translate(-667.991 -562.519)" fill="#a85400"/>
          <path id="Caminho_80" data-name="Caminho 80" d="M679.367,555.151c.02-.03.11-.161.131-.189a7.719,7.719,0,0,0-.65-.471c-.151-.082-.3.124-.153.218C678.867,554.822,679.316,555.115,679.367,555.151Z" transform="translate(-677.366 -548.298)" fill="#a85400"/>
          <path id="Caminho_81" data-name="Caminho 81" d="M689.874,538.6c-.01-.018-.465-.346-.643-.476-.139-.1-.267.13-.13.23.178.13.626.419.661.448C689.783,538.765,689.861,538.621,689.874,538.6Z" transform="translate(-687.412 -532.488)" fill="#a85400"/>
          <path id="Caminho_82" data-name="Caminho 82" d="M697.658,522.922c.01-.021.083-.2.092-.218a6.011,6.011,0,0,0-.656-.429c-.149-.085-.261.164-.112.249C697.165,522.629,697.621,522.9,697.658,522.922Z" transform="translate(-695.009 -517.199)" fill="#a85400"/>
          <path id="Caminho_83" data-name="Caminho 83" d="M705.691,503.953c-.053-.039-.45-.319-.63-.434-.145-.092-.213.18-.069.271.18.115.447.3.62.427C705.629,504.167,705.67,504.027,705.691,503.953Z" transform="translate(-702.732 -499.091)" fill="#a85400"/>
          <path id="Caminho_84" data-name="Caminho 84" d="M710.115,485.245c-.179-.1-.432-.229-.619-.321-.153-.076-.225.182-.071.258.183.09.6.323.646.351C710.087,485.448,710.1,485.32,710.115,485.245Z" transform="translate(-707.006 -481.145)" fill="#a85400"/>
          <path id="Caminho_85" data-name="Caminho 85" d="M712.327,463.1a3.673,3.673,0,0,1-.553-.332c-.139-.1-.272.13-.135.23a4.9,4.9,0,0,0,.68.4C712.323,463.325,712.326,463.14,712.327,463.1Z" transform="translate(-709.17 -459.75)" fill="#a85400"/>
          <path id="Caminho_86" data-name="Caminho 86" d="M712.34,442.113c-.181-.115-.343-.228-.515-.358-.137-.1-.27.128-.135.23.2.152.461.324.676.457C712.365,442.378,712.351,442.182,712.34,442.113Z" transform="translate(-709.221 -439.46)" fill="#a85400"/>
          <path id="Caminho_87" data-name="Caminho 87" d="M642.737,593.882c-.084-.089-.435-.479-.524-.559-.127-.115-.349.062-.222.178.073.066.486.48.535.538C642.583,594,642.657,593.942,642.737,593.882Z" transform="translate(-641.953 -585.767)" fill="#a85400"/>
          <path id="Caminho_88" data-name="Caminho 88" d="M711.86,420.47c-.135-.089-.269-.194-.422-.3s-.229.127-.094.234c.175.137.575.42.588.424C711.91,420.709,711.886,420.586,711.86,420.47Z" transform="translate(-708.876 -418.621)" fill="#a85400"/>
          <path id="Caminho_89" data-name="Caminho 89" d="M709.267,399.837c-.105-.074-.243-.183-.347-.262-.058-.043-.137.215-.075.251.15.087.4.256.532.352C709.345,400.07,709.307,399.944,709.267,399.837Z" transform="translate(-706.507 -398.76)" fill="#a85400"/>
          <path id="Caminho_90" data-name="Caminho 90" d="M700.273,376.41a2.541,2.541,0,0,1-.253-.195c-.128-.115-.211.123-.074.228.16.123.471.344.513.374C700.426,376.735,700.311,376.48,700.273,376.41Z" transform="translate(-697.87 -376.185)" fill="#a85400"/>
        </g>
        <g id="Grupo_60" data-name="Grupo 60" transform="translate(0 0)">
          <ellipse id="Elipse_13" data-name="Elipse 13" cx="6.264" cy="5.914" rx="6.264" ry="5.914" transform="translate(0 11.735) rotate(-69.514)" fill="url(#linear-gradient-2)"/>
          <path id="Caminho_91" data-name="Caminho 91" d="M373.562,283.871a5.723,5.723,0,0,1-2.007-.364,5.813,5.813,0,0,1-3.332-3.237,6.629,6.629,0,0,1,3.148-8.426,5.783,5.783,0,0,1,7.971,2.978,6.629,6.629,0,0,1-3.148,8.426A5.959,5.959,0,0,1,373.562,283.871Zm.44-12.45a5.759,5.759,0,0,0-2.543.6,6.429,6.429,0,0,0-3.052,8.169,5.583,5.583,0,0,0,7.7,2.876,6.429,6.429,0,0,0,3.052-8.169,5.615,5.615,0,0,0-3.218-3.127A5.522,5.522,0,0,0,374,271.421Z" transform="translate(-366.051 -269.609)" fill="url(#linear-gradient-3)"/>
        </g>
        <g id="Grupo_61" data-name="Grupo 61" transform="translate(2.928 2.995)">
          <path id="Caminho_92" data-name="Caminho 92" d="M408.633,321.166a4.515,4.515,0,0,1-1.584-.286,4.61,4.61,0,0,1-2.643-2.566,5.159,5.159,0,0,1-.059-3.825,4.915,4.915,0,0,1,6.23-3.054A4.61,4.61,0,0,1,413.22,314a5.159,5.159,0,0,1,.059,3.825A5.04,5.04,0,0,1,408.633,321.166Zm.36-9.751a4.773,4.773,0,0,0-4.4,3.167,4.894,4.894,0,0,0,.055,3.628,4.345,4.345,0,0,0,2.49,2.42,4.251,4.251,0,0,0,1.491.27,4.772,4.772,0,0,0,4.4-3.167,4.893,4.893,0,0,0-.055-3.628,4.346,4.346,0,0,0-2.49-2.42A4.252,4.252,0,0,0,408.993,311.415Z" transform="translate(-404.009 -311.148)" fill="url(#linear-gradient-4)"/>
        </g>
        <g id="Grupo_63" data-name="Grupo 63" transform="translate(4.853 3.708)">
          <path id="Caminho_93" data-name="Caminho 93" d="M467.666,337.016a2.125,2.125,0,0,0-1.029-1.381c.029-.195.175-.4.055-.65a1.785,1.785,0,0,0-1.556-.277c-.221.2-.142.379-.173.681a2.632,2.632,0,0,0-.771.278,1.936,1.936,0,0,0-1.022,1.542,1.718,1.718,0,0,0,.912,1.465,6.6,6.6,0,0,0,.83.438c.127.06,1.447.605,1.375,1.183a.886.886,0,0,1-1.023.661,1.133,1.133,0,0,1-1.077-1.141.818.818,0,0,0-.754-.779.786.786,0,0,0-.9.6,2.264,2.264,0,0,0,1.537,2.468c.045.018-.137.381,0,.541a1.9,1.9,0,0,0,1.511.226c.208-.073.172-.342.2-.561a2.819,2.819,0,0,0,1.611-.732,1.959,1.959,0,0,0,.578-1.4,1.752,1.752,0,0,0-.863-1.545c-.473-.323-1.89-.841-2.115-1.241a.468.468,0,0,1,.5-.695.625.625,0,0,1,.577.5c.209.881,1.814.708,1.6-.179Z" transform="translate(-462.402 -334.521)" fill="url(#linear-gradient-5)"/>
          <g id="Grupo_62" data-name="Grupo 62" transform="translate(0 0)">
            <path id="Caminho_94" data-name="Caminho 94" d="M462.32,340.258a1.706,1.706,0,0,1-1.121-.323.586.586,0,0,1-.036-.511l.007-.029a2.355,2.355,0,0,1-1.533-2.551.883.883,0,0,1,1.012-.682.917.917,0,0,1,.843.881,1.033,1.033,0,0,0,.987,1.039.793.793,0,0,0,.914-.574c.017-.14-.072-.523-1.275-1.06l-.043-.019-.044-.021a6.318,6.318,0,0,1-.8-.424,1.8,1.8,0,0,1-.957-1.553,2.039,2.039,0,0,1,1.073-1.625,2.709,2.709,0,0,1,.726-.273c0-.048,0-.093,0-.137a.619.619,0,0,1,.2-.535c.2-.185.757-.095.921-.063s.685.149.792.37a.7.7,0,0,1,0,.55c-.01.032-.02.063-.028.093a2.22,2.22,0,0,1,1.013,1.408h0a.7.7,0,0,1-.591.851.961.961,0,0,1-1.207-.626.528.528,0,0,0-.489-.426.4.4,0,0,0-.392.158.379.379,0,0,0-.009.388,4.021,4.021,0,0,0,1.285.786,7.244,7.244,0,0,1,.8.422,1.861,1.861,0,0,1,.906,1.627,2.049,2.049,0,0,1-.608,1.475,2.905,2.905,0,0,1-1.587.749c0,.017,0,.034,0,.051-.01.194-.023.435-.253.516A1.579,1.579,0,0,1,462.32,340.258Zm-1.789-3.9a.67.67,0,0,0-.7.522,2.17,2.17,0,0,0,1.475,2.358c.1.038.072.138.049.235s-.065.267-.007.333a1.829,1.829,0,0,0,1.4.2c.093-.033.109-.133.119-.338,0-.047.005-.094.01-.14l.009-.078.078-.01a2.728,2.728,0,0,0,1.554-.7,1.848,1.848,0,0,0,.547-1.331,1.657,1.657,0,0,0-.819-1.463,7.162,7.162,0,0,0-.774-.407,3.761,3.761,0,0,1-1.372-.868.582.582,0,0,1,.016-.6.594.594,0,0,1,.578-.248.729.729,0,0,1,.665.58.765.765,0,0,0,.966.476.5.5,0,0,0,.443-.61,2.02,2.02,0,0,0-.98-1.317l-.06-.034.01-.068a1.232,1.232,0,0,1,.049-.189.512.512,0,0,0,.016-.4,1.2,1.2,0,0,0-.65-.261,1.158,1.158,0,0,0-.749.014.425.425,0,0,0-.131.388,2.276,2.276,0,0,1-.01.229l-.008.074-.073.014a2.519,2.519,0,0,0-.742.267,1.835,1.835,0,0,0-.97,1.459,1.651,1.651,0,0,0,.868,1.377,6.168,6.168,0,0,0,.773.41l.045.021.039.018c.974.435,1.443.862,1.392,1.268a.978.978,0,0,1-1.133.748,1.228,1.228,0,0,1-1.166-1.243.724.724,0,0,0-.664-.677A.906.906,0,0,0,460.531,336.355Z" transform="translate(-459.606 -331.747)" fill="url(#linear-gradient-6)"/>
          </g>
        </g>
      </g>
    </g>
  </g>
</svg>
