<svg xmlns="http://www.w3.org/2000/svg" xmlns:xlink="http://www.w3.org/1999/xlink" width="165.697" height="192.316" viewBox="0 0 165.697 192.316"><defs><style>.a,.c{fill:#fff;}.b{fill:#707070;font-size:20px;font-family:HelveticaNeue-Bold, Helvetica Neue;font-weight:700;}.c,.d{stroke:#505050;stroke-miterlimit:10;stroke-width:4px;}.d{fill:none;}.e{filter:url(#a);}</style><filter id="a" x="0" y="0" width="165.697" height="192.316" filterUnits="userSpaceOnUse"><feOffset dy="3" input="SourceAlpha"/><feGaussianBlur stdDeviation="3" result="b"/><feFlood flood-opacity="0.161"/><feComposite operator="in" in2="b"/><feComposite in="SourceGraphic"/></filter></defs><g transform="translate(-182 -399.997)"><g class="e" transform="matrix(1, 0, 0, 1, 182, 400)"><rect class="a" width="147.697" height="174.316" rx="7" transform="translate(9 6)"/></g><text class="b" transform="translate(264.871 554.272)"><tspan x="-47.74" y="0">Eletricista</tspan></text><g transform="translate(181.124 391.784)"><path class="c" d="M76.551,70.437,88.678,58.311a4.085,4.085,0,0,0,0-5.776h0a4.085,4.085,0,0,0-5.776,0L70.775,64.663" transform="translate(12.525)"/><path class="c" d="M85.742,79.631,97.87,67.5a4.083,4.083,0,0,0,0-5.774h0a4.082,4.082,0,0,0-5.776,0L79.968,73.855" transform="translate(18.347 5.822)"/><line class="d" x1="6.533" y2="6.533" transform="translate(51 104.686)"/><path class="c" d="M63.308,96.834c-7.339-7.339-7.9-16.6-1.633-22.867l6.533-6.533V60.9l4.9-4.9,32.667,32.667-3.267,4.9H94.342L87.809,100.1c-5.23,5.23-13,4.408-19.6,0" transform="translate(4.026 2.951)"/><line class="d" x1="6.533" y2="6.533" transform="translate(57.533 111.219)"/><path class="c" d="M74.889,88.434l-6.533,6.533c-1.914,1.914-5.379-.034-9.206-3.861s-5.776-7.291-3.861-9.206l4.9-4.9" transform="translate(2.245 16.252)"/><line class="d" x2="14.7" y2="14.7" transform="translate(72.234 81.819)"/><line class="d" x2="14.7" y2="14.7" transform="translate(77.134 76.919)"/></g></g></svg>