<svg xmlns="http://www.w3.org/2000/svg" xmlns:xlink="http://www.w3.org/1999/xlink" width="165.697" height="192.316" viewBox="0 0 165.697 192.316"><defs><style>.a{fill:#fff;}.b{fill:#707070;font-size:20px;font-family:HelveticaNeue-Bold, Helvetica Neue;font-weight:700;}.c{fill:none;stroke:#505050;stroke-linecap:round;stroke-miterlimit:10;stroke-width:3.24px;}.d{filter:url(#a);}</style><filter id="a" x="0" y="0" width="165.697" height="192.316" filterUnits="userSpaceOnUse"><feOffset dy="3" input="SourceAlpha"/><feGaussianBlur stdDeviation="3" result="b"/><feFlood flood-opacity="0.161"/><feComposite operator="in" in2="b"/><feComposite in="SourceGraphic"/></filter></defs><g transform="translate(-182 -205.997)"><g class="d" transform="matrix(1, 0, 0, 1, 182, 206)"><rect class="a" width="147.697" height="174.316" rx="7" transform="translate(9 6)"/></g><text class="b" transform="translate(264.871 360.272)"><tspan x="-51.67" y="0">Encanador</tspan></text><g transform="translate(-539.665 -13.88)"><path class="c" d="M803.648,388.325h9.125a12.128,12.128,0,0,0,19.915,0h9.125a6.939,6.939,0,0,1,6.939,6.939v3.469l-1.735,1.735v6.939h17.347v-6.939l-1.735-1.735v-3.469a20.817,20.817,0,0,0-20.817-20.817h-8.674a8.7,8.7,0,0,0-3.47-3.47v-1.735H815.791v1.735a8.7,8.7,0,0,0-3.469,3.47h-8.674" transform="translate(-26.655 -88.851)"/><line class="c" x2="6.939" transform="translate(822.096 309.882)"/><line class="c" x2="3.469" transform="translate(832.504 309.882)"/><path class="c" d="M945.174,280.6c3.5.586,7.846,1.735,10.408,1.735,2.874,0,5.2-1.942,5.2-4.337s-2.33-4.337-5.2-4.337c-2.411,0-8.457,1.735-13.878,1.735" transform="translate(-142.161 -8.885)"/><path class="c" d="M798.021,280.6c-3.5.586-7.846,1.735-10.408,1.735-2.874,0-5.2-1.942-5.2-4.337s2.33-4.337,5.2-4.337c2.411,0,8.457,1.735,13.878,1.735" transform="translate(-8.885 -8.885)"/><path class="c" d="M899.226,276.923V266.515a3.469,3.469,0,0,1,3.469-3.47h0a3.469,3.469,0,0,1,3.469,3.47v10.408" transform="translate(-106.621)"/><path class="c" d="M771.789,379.862h5.2v20.817h-5.2" transform="translate(0 -97.736)"/><path class="c" d="M918.535,443.581a6.944,6.944,0,0,1-8.67,6.721" transform="translate(-115.522 -151.046)"/></g></g></svg>