<svg xmlns="http://www.w3.org/2000/svg" xmlns:xlink="http://www.w3.org/1999/xlink" width="224.145" height="239.867" viewBox="0 0 224.145 239.867">
  <defs>
    <style>
      .cls-1 {
        fill: url(#linear-gradient);
      }

      .cls-2 {
        fill: url(#linear-gradient-2);
      }

      .cls-3 {
        fill: url(#linear-gradient-3);
      }

      .cls-4 {
        fill: url(#linear-gradient-4);
      }

      .cls-5 {
        fill: url(#linear-gradient-7);
      }

      .cls-6 {
        fill: url(#linear-gradient-8);
      }
    </style>
    <linearGradient id="linear-gradient" x1="0.24" y1="0.889" x2="0.633" y2="0.077" gradientUnits="objectBoundingBox">
      <stop offset="0" stop-color="#ad49f2"/>
      <stop offset="1" stop-color="#009ce0"/>
    </linearGradient>
    <linearGradient id="linear-gradient-2" x1="-1.345" y1="5.953" x2="4.502" y2="-11.33" xlink:href="#linear-gradient"/>
    <linearGradient id="linear-gradient-3" x1="0.5" y1="-0.554" x2="0.5" y2="0.084" xlink:href="#linear-gradient"/>
    <linearGradient id="linear-gradient-4" x1="0.5" y1="-0.559" x2="0.5" y2="0.081" xlink:href="#linear-gradient"/>
    <linearGradient id="linear-gradient-7" x1="0.5" y1="-0.549" x2="0.5" y2="0.083" xlink:href="#linear-gradient"/>
    <linearGradient id="linear-gradient-8" x1="0.5" y1="-0.14" x2="0.5" y2="0.328" xlink:href="#linear-gradient"/>
  </defs>
  <g id="Grupo_59" data-name="Grupo 59" transform="translate(-75.241 -249.166)">
    <g id="logo" transform="translate(-239.705 -389.982)">
      <path id="Caminho_1" data-name="Caminho 1" class="cls-1" d="M532.379,695.454a56.306,56.306,0,0,0-112.612,0c0,10.944,3.779,23.238,9.379,35.448,11.119-10.207,19.123-17.738,20.211-18.95a52.409,52.409,0,0,0,8.483-12.433q3.616-8.525-2.809-17.038t.478-9.046q6.815-.647,13.09,8.985,6.176,9.62,9.374,7.353c2.075-1.587,12.343-14.384,16.181-11.927s3.713,6.842,3.679,8.148q-.041,1.858,3.6,4.1,3.534,2.23,3.611,7.1a28.906,28.906,0,0,0,1.617,9.634q1.555,4.659-8.524,14.291-10.151,9.415-17.747,8.925a38.212,38.212,0,0,1-16.045-5.444q7.334,7.91,14.363,15.78l-27.133,28.591c10.381,13.5,24.5,31.084,24.5,31.084S532.379,737.7,532.379,695.454Z" transform="translate(-55.732 0)"/>
      <circle id="Elipse_1" data-name="Elipse 1" class="cls-2" cx="3.781" cy="3.781" r="3.781" transform="translate(403.83 738.096)"/>
    </g>
    <g id="Grupo_2" data-name="Grupo 2" transform="translate(75.241 428.022)">
      <path id="Caminho_2" data-name="Caminho 2" class="cls-3" d="M321.466,1100.031q-6.52,0-6.52-5.729v-32.995q0-5.73,6.52-5.73h15.805q5.07,0,5.071,5.236t-5.071,5.235h-9.286v6.388h7.969q5.07,0,5.071,5.268t-5.071,5.269h-7.969v6.586h9.286q5.07,0,5.071,5.235t-5.071,5.236Z" transform="translate(-314.946 -1039.417)"/>
      <path id="Caminho_3" data-name="Caminho 3" class="cls-4" d="M393.519,1085.363v9.089q0,5.729-6.52,5.729t-6.52-5.729v-32.863q0-5.729,6.52-5.73h14.752a11.634,11.634,0,0,1,9.2,4.33,14.748,14.748,0,0,1,3.556,10.307,15.808,15.808,0,0,1-4.1,10.422,13.066,13.066,0,0,1-10.241,4.445Zm0-20.679v10.142h3.754q5.532,0,5.532-5.071t-5.532-5.071Z" transform="translate(-349.789 -1039.566)"/>
      <path id="Caminho_4" data-name="Caminho 4" class="cls-3" d="M486.421,1081.131l6.52,8.562a6.635,6.635,0,0,1,1.448,4.083q0,2.173-2.634,4.2a8.2,8.2,0,0,1-4.84,2.025q-2.207,0-4.182-2.667l-10.6-14.159v11.13q0,5.729-6.52,5.729t-6.52-5.729v-32.995q0-5.73,6.52-5.73h14.752a11.5,11.5,0,0,1,9.088,4.2,13.563,13.563,0,0,1,3.622,9.006Q493.072,1077.377,486.421,1081.131Zm-14.291-16.6v10.142h3.754q5.532,0,5.532-5.071t-5.532-5.071Z" transform="translate(-391.586 -1039.417)"/>
      <path id="Caminho_5" data-name="Caminho 5" class="cls-3" d="M553.318,1092.195l-1.251,3.358q-1.68,4.478-5.515,4.478t-5.5-2.354a7.6,7.6,0,0,1-1.663-4.232,8.825,8.825,0,0,1,.823-3.688l13.566-29.7q2.042-4.478,6.223-4.479t6.224,4.479l13.632,29.7a8.761,8.761,0,0,1,.856,3.721,7.673,7.673,0,0,1-1.613,4.215q-1.614,2.338-5.516,2.338T568,1095.553l-1.251-3.358Zm9.549-10.537-2.832-7.706-2.832,7.706Z" transform="translate(-434.28 -1039.417)"/>
      <path id="Caminho_6" data-name="Caminho 6" class="cls-5" d="M663.372,1087.98q0,6.355-4.314,9.4a17.693,17.693,0,0,1-10.471,3.046,22.006,22.006,0,0,1-10.948-2.684,9.074,9.074,0,0,1-5.022-7.919q-.23-5.7,6.52-5.73,4.872-.032,6.125,3.425.4,1.614,2.733,1.646t2.338-3.1v-24.762q0-5.73,6.52-5.73t6.52,5.73Z" transform="translate(-483.845 -1039.417)"/>
      <path id="Caminho_7" data-name="Caminho 7" class="cls-6" d="M719.258,1073.847l-1.251,3.358q-1.679,4.478-5.515,4.478t-5.5-2.354a7.6,7.6,0,0,1-1.663-4.232,8.826,8.826,0,0,1,.823-3.688l13.567-29.7q2.041-4.478,6.223-4.478t6.223,4.478l13.633,29.7a8.767,8.767,0,0,1,.856,3.721,7.669,7.669,0,0,1-1.613,4.215q-1.614,2.338-5.516,2.338t-5.581-4.478l-1.251-3.358Zm7.59-52.637a6.256,6.256,0,0,0-4.017,3.145,48.764,48.764,0,0,0-2.881,5.615q-1.318,3.013.905,4.692t5.137.033a34.12,34.12,0,0,0,5.252-3.622,5.275,5.275,0,0,0,2.107-4.643,5.823,5.823,0,0,0-2.14-4.215A4.914,4.914,0,0,0,726.849,1021.21Zm1.959,42.1-2.832-7.706-2.832,7.706Z" transform="translate(-522.51 -1021.069)"/>
    </g>
  </g>
</svg>
