<svg xmlns="http://www.w3.org/2000/svg" width="167.488" height="167.466" viewBox="0 0 167.488 167.466"><defs><style>.a,.b{fill:#fff;}.a{stroke:#282d33;stroke-width:4px;}.c{fill:#282d33;}.d{fill:#5eb4e7;}.e{fill:#f8c44f;}</style></defs><g transform="translate(-680.935 -174.286)"><g transform="translate(773.023 266.352)"><path class="a" d="M734.536,227.874" transform="translate(-734.536 -227.874)"/></g><g transform="translate(680.935 174.286)"><path class="b" d="M776.551,192.351a54.775,54.775,0,1,0,16.089,38.767A54.493,54.493,0,0,0,776.551,192.351Z" transform="translate(-679.499 -172.85)"/><path class="c" d="M739.194,290.843a58.261,58.261,0,1,1,.04,0h0l-.04-3.436.031-3.436a51.4,51.4,0,1,0-.031,0Z" transform="translate(-680.935 -174.286)"/><path class="d" d="M763.786,256.981a43.333,43.333,0,1,1,12.672-30.627A43.141,43.141,0,0,1,763.786,256.981Z" transform="translate(-674.73 -168.081)"/><g transform="translate(21.757 21.756)"><path class="b" d="M700.471,223.485l-6.872,0a36.573,36.573,0,0,1,36.519-36.532v6.872a29.7,29.7,0,0,0-29.646,29.664Z" transform="translate(-693.599 -186.949)"/></g><g transform="translate(27.877 35.079)"><g transform="translate(11.566)"><path class="b" d="M736.715,212.117A15.411,15.411,0,1,1,721.3,196.7,15.413,15.413,0,0,1,736.715,212.117Z" transform="translate(-702.457 -193.268)"/><path class="c" d="M722.735,232.4a18.847,18.847,0,1,1,18.852-18.845A18.865,18.865,0,0,1,722.735,232.4Zm0-30.822a11.975,11.975,0,1,0,11.98,11.976A11.987,11.987,0,0,0,722.735,201.576Z" transform="translate(-703.893 -194.704)"/></g><g transform="translate(0 32.534)"><path class="b" d="M737.7,215.641H714.58a15.418,15.418,0,0,0-15.419,15.411v1.254a39.254,39.254,0,0,0,53.945,0v-1.254A15.409,15.409,0,0,0,737.7,215.641Z" transform="translate(-695.725 -212.205)"/><path class="c" d="M727.569,247.912a42.651,42.651,0,0,1-29.327-11.669l-1.081-1.017v-2.739a18.872,18.872,0,0,1,18.855-18.847h23.116a18.866,18.866,0,0,1,18.845,18.847v2.739l-1.079,1.017A42.635,42.635,0,0,1,727.569,247.912ZM704.037,232.22a35.808,35.808,0,0,0,47.067,0,11.989,11.989,0,0,0-11.971-11.708H716.016A11.992,11.992,0,0,0,704.037,232.22Z" transform="translate(-697.161 -213.641)"/></g></g></g><rect class="e" width="29.024" height="63.287" transform="translate(778.253 292.101) rotate(-44.995)"/><g transform="translate(803.257 289.296)"><line class="b" x1="24.794" y1="24.792" transform="translate(2.429 2.429)"/><rect class="b" width="6.871" height="35.063" transform="translate(0 4.859) rotate(-45.002)"/></g><g transform="translate(775.735 269.063)"><rect class="b" width="22.4" height="10.971" transform="matrix(0.707, -0.707, 0.707, 0.707, 4.859, 20.698)"/><path class="c" d="M748.729,262.77l-12.615-12.622,20.7-20.7,12.617,12.616Zm-2.9-12.622,2.9,2.9,10.982-10.98-2.9-2.9Z" transform="translate(-736.114 -229.452)"/></g><g transform="translate(820.486 313.816)"><path class="b" d="M784.632,262.132A15.845,15.845,0,0,1,768.79,277.97q-1.9-1.9-3.8-3.8,7.924-7.922,15.839-15.84Q782.728,260.225,784.632,262.132Z" transform="translate(-760.131 -253.471)"/><path class="c" d="M769.4,283.436l-7.236-7.24,20.692-20.7,7.245,7.24v1.419a19.3,19.3,0,0,1-19.276,19.276Zm2.481-7.238.292.292a12.429,12.429,0,0,0,10.983-10.978l-.3-.294Z" transform="translate(-762.162 -255.501)"/></g><g transform="translate(775.705 264.738)"><g transform="translate(0 12.492)"><rect class="c" width="6.871" height="9.386" transform="translate(0 4.859) rotate(-44.999)"/></g><g transform="translate(3.906)"><rect class="c" width="6.871" height="12.145" transform="translate(0 4.858) rotate(-44.994)"/></g></g></g></svg>