<svg xmlns="http://www.w3.org/2000/svg" xmlns:xlink="http://www.w3.org/1999/xlink" width="53.164" height="55.006" viewBox="0 0 53.164 55.006">
  <defs>
    <linearGradient id="linear-gradient" y1="0.5" x2="1" y2="0.5" gradientUnits="objectBoundingBox">
      <stop offset="0" stop-color="#db9200"/>
      <stop offset="1" stop-color="#a85400"/>
    </linearGradient>
    <linearGradient id="linear-gradient-2" x1="0.359" y1="0.108" x2="0.643" y2="0.896" gradientUnits="objectBoundingBox">
      <stop offset="0" stop-color="#fcee2a"/>
      <stop offset="1" stop-color="#e69d00"/>
    </linearGradient>
    <linearGradient id="linear-gradient-3" x1="0.465" y1="0.006" x2="0.529" y2="0.902" gradientUnits="objectBoundingBox">
      <stop offset="0" stop-color="#fcff6e"/>
      <stop offset="0.99" stop-color="#d17700"/>
    </linearGradient>
    <linearGradient id="linear-gradient-4" x1="0.634" y1="0.924" x2="0.337" y2="-0.017" gradientUnits="objectBoundingBox">
      <stop offset="0" stop-color="#fae647"/>
      <stop offset="1" stop-color="#c46500"/>
    </linearGradient>
    <linearGradient id="linear-gradient-5" x1="0.479" y1="0.213" x2="0.526" y2="0.884" gradientUnits="objectBoundingBox">
      <stop offset="0" stop-color="#fcee2a"/>
      <stop offset="0.995" stop-color="#e69d00"/>
    </linearGradient>
    <linearGradient id="linear-gradient-6" x1="2.932" y1="5.191" x2="3.299" y2="5.191" gradientUnits="objectBoundingBox">
      <stop offset="0" stop-color="#fffb7b"/>
      <stop offset="0.507" stop-color="#e69d00"/>
      <stop offset="1" stop-color="#a85400"/>
    </linearGradient>
    <radialGradient id="radial-gradient" cx="381.116" cy="1386.54" r="1.347" gradientTransform="matrix(0.48, 0.654, -0.654, 0.48, 1.239, -0.329)" gradientUnits="userSpaceOnUse">
      <stop offset="0" stop-color="#fff"/>
      <stop offset="1" stop-color="#fffccc"/>
    </radialGradient>
    <radialGradient id="radial-gradient-2" cx="608.837" cy="1501.272" r="0.857" gradientTransform="matrix(1.074, 0.323, -0.323, 1.074, 0.256, -0.361)" gradientUnits="userSpaceOnUse">
      <stop offset="0" stop-color="#fff"/>
      <stop offset="0.99" stop-color="#fced92"/>
    </radialGradient>
    <radialGradient id="radial-gradient-3" cx="613.855" cy="1506.868" r="0.524" gradientTransform="matrix(0.876, 0.264, -0.264, 0.876, 0.181, -0.074)" gradientUnits="userSpaceOnUse">
      <stop offset="0" stop-color="#fff"/>
      <stop offset="1" stop-color="#fffdb6"/>
    </radialGradient>
    <radialGradient id="radial-gradient-4" cx="464.237" cy="1415.567" r="0.662" gradientTransform="matrix(0.895, 0.403, -0.403, 0.895, 0.329, -0.197)" xlink:href="#radial-gradient"/>
    <linearGradient id="linear-gradient-7" x1="0.557" y1="0.5" x2="0.956" y2="0.5" gradientUnits="objectBoundingBox">
      <stop offset="0.01" stop-color="#662900"/>
      <stop offset="1" stop-color="#c46500"/>
    </linearGradient>
    <linearGradient id="linear-gradient-13" x1="2.676" y1="6.502" x2="3.043" y2="6.502" xlink:href="#linear-gradient-6"/>
    <radialGradient id="radial-gradient-5" cx="317.721" cy="1302.174" r="1.347" xlink:href="#radial-gradient"/>
    <radialGradient id="radial-gradient-6" cx="518.62" cy="1425.843" r="0.857" xlink:href="#radial-gradient-2"/>
    <radialGradient id="radial-gradient-7" cx="523.638" cy="1431.439" r="0.524" xlink:href="#radial-gradient-3"/>
    <radialGradient id="radial-gradient-8" cx="400.842" cy="1331.201" r="0.662" gradientTransform="matrix(0.895, 0.403, -0.403, 0.895, 0.329, -0.197)" xlink:href="#radial-gradient"/>
    <linearGradient id="linear-gradient-14" x1="0.665" y1="0.693" x2="0.917" y2="1.21" xlink:href="#linear-gradient-7"/>
    <linearGradient id="linear-gradient-20" x1="2.08" y1="6.701" x2="2.447" y2="6.701" xlink:href="#linear-gradient-6"/>
    <radialGradient id="radial-gradient-9" cx="419.294" cy="1207.126" r="1.347" xlink:href="#radial-gradient"/>
    <radialGradient id="radial-gradient-10" cx="620.193" cy="1330.795" r="0.857" xlink:href="#radial-gradient-2"/>
    <radialGradient id="radial-gradient-11" cx="625.211" cy="1336.391" r="0.524" xlink:href="#radial-gradient-3"/>
    <radialGradient id="radial-gradient-12" cx="502.415" cy="1236.153" r="0.662" gradientTransform="matrix(0.895, 0.403, -0.403, 0.895, 0.329, -0.197)" xlink:href="#radial-gradient"/>
    <linearGradient id="linear-gradient-22" x1="0.505" y1="0.169" x2="0.497" y2="0.903" xlink:href="#linear-gradient"/>
    <linearGradient id="linear-gradient-23" x1="0.359" y1="0.082" x2="0.654" y2="0.958" xlink:href="#linear-gradient-2"/>
    <linearGradient id="linear-gradient-24" x1="0.249" y1="0.088" x2="0.75" y2="0.911" xlink:href="#linear-gradient-3"/>
    <linearGradient id="linear-gradient-25" x1="0.871" y1="0.813" x2="0.138" y2="0.195" xlink:href="#linear-gradient-4"/>
    <linearGradient id="linear-gradient-26" x1="0.392" y1="0.432" x2="0.934" y2="0.718" xlink:href="#linear-gradient-5"/>
    <linearGradient id="linear-gradient-27" x1="0.264" y1="0.408" x2="0.639" y2="0.544" xlink:href="#linear-gradient-6"/>
    <radialGradient id="radial-gradient-13" cx="266.909" cy="1396.5" r="1.713" gradientTransform="matrix(0.862, 0.21, -0.21, 0.862, 0.51, -0.138)" xlink:href="#radial-gradient"/>
    <radialGradient id="radial-gradient-14" cx="438.335" cy="1643.049" r="1.238" gradientTransform="translate(0.052 0.05) scale(0.957 0.957)" xlink:href="#radial-gradient-2"/>
    <radialGradient id="radial-gradient-15" cx="445.742" cy="1648.662" r="0.612" gradientTransform="translate(0.021 0.02) scale(0.965 0.965)" xlink:href="#radial-gradient-3"/>
    <radialGradient id="radial-gradient-16" cx="337.522" cy="1462.857" r="0.724" gradientTransform="matrix(0.891, 0.117, -0.117, 0.891, 0.144, -0.013)" xlink:href="#radial-gradient"/>
  </defs>
  <g id="Grupo_107" data-name="Grupo 107" transform="translate(-131.178 -1165.71)">
    <g id="Grupo_90" data-name="Grupo 90" transform="translate(145.156 1181.479)">
      <path id="Caminho_175" data-name="Caminho 175" d="M308.127,1450.058c-9.895,0-17.916-3.566-17.916-7.966v-4.116c2.621-2.953,10.342-3.849,17.916-3.849,7.177,0,15.056,1.3,17.916,4.013v3.953C326.042,1446.492,318.021,1450.058,308.127,1450.058Z" transform="translate(-290.211 -1426.305)" fill="url(#linear-gradient)"/>
      <path id="Caminho_176" data-name="Caminho 176" d="M293.669,1486.258a.352.352,0,0,0,.025-.144q-.09-3.121-.18-6.241c-.013-.451-.716-.453-.7,0l.153,5.292A5.7,5.7,0,0,0,293.669,1486.258Z" transform="translate(-292.582 -1467.72)" fill="#a85400"/>
      <path id="Caminho_177" data-name="Caminho 177" d="M307.909,1511.072a8.465,8.465,0,0,0,.753.634c-.008-.05-.01-.1-.014-.151a49.3,49.3,0,0,1-.191-5.184.352.352,0,0,0-.7,0q-.037,2.338.148,4.668S307.908,1511.071,307.909,1511.072Z" transform="translate(-306.206 -1491.89)" fill="#a85400"/>
      <path id="Caminho_178" data-name="Caminho 178" d="M326.481,1526.8c-.107-1.633-.14-3.29-.1-4.926a.352.352,0,0,0-.7,0c-.039,1.507-.015,2.988.073,4.493C325.836,1526.436,326.259,1526.675,326.481,1526.8Z" transform="translate(-322.546 -1506.031)" fill="#a85400"/>
      <path id="Caminho_179" data-name="Caminho 179" d="M346,1536.7c0-.006,0-.075,0-.081v-4.746a.352.352,0,0,0-.7,0v4.511C345.539,1536.5,345.756,1536.593,346,1536.7Z" transform="translate(-340.454 -1515.148)" fill="#a85400"/>
      <path id="Caminho_180" data-name="Caminho 180" d="M365.978,1543.525c.221.074.471.159.7.234,0-.072.006-.16.008-.227q.06-2.329.022-4.658a.352.352,0,0,0-.7,0Q366.038,1541.2,365.978,1543.525Z" transform="translate(-359.319 -1521.535)" fill="#a85400"/>
      <path id="Caminho_181" data-name="Caminho 181" d="M386.97,1551.567l-.008-4.7a.352.352,0,0,0-.7,0l.008,4.511C386.5,1551.445,386.733,1551.507,386.97,1551.567Z" transform="translate(-377.818 -1528.83)" fill="#a85400"/>
      <path id="Caminho_182" data-name="Caminho 182" d="M405.384,1556.494q-.03-2.31-.059-4.621a.352.352,0,0,0-.7,0c.019,1.483.04,3,.059,4.48C404.913,1556.41,405.147,1556.451,405.384,1556.494Z" transform="translate(-394.566 -1533.393)" fill="#a85400"/>
      <path id="Caminho_183" data-name="Caminho 183" d="M424.736,1561.691c.234.037.458.071.7.105.008-.143.007-.372.007-.4q0-.263,0-.525,0-.569,0-1.138.006-1.181.035-2.363a.352.352,0,0,0-.7,0q-.033,1.4-.036,2.8,0,.7.006,1.4C424.743,1561.6,424.737,1561.667,424.736,1561.691Z" transform="translate(-412.913 -1538.41)" fill="#a85400"/>
      <path id="Caminho_184" data-name="Caminho 184" d="M444.706,1565.2a43.1,43.1,0,0,1,.145-4.314c.038-.451-.666-.448-.7,0-.117,1.4-.169,2.841-.148,4.241C444.231,1565.153,444.464,1565.18,444.706,1565.2Z" transform="translate(-430.479 -1541.619)" fill="#a85400"/>
      <path id="Caminho_185" data-name="Caminho 185" d="M464.845,1565.757q.024-2.194.047-4.387a.352.352,0,0,0-.7,0c-.016,1.441-.031,2.912-.047,4.353C464.391,1565.738,464.607,1565.75,464.845,1565.757Z" transform="translate(-448.856 -1542.055)" fill="#a85400"/>
      <path id="Caminho_186" data-name="Caminho 186" d="M488.563,1566.319a29.684,29.684,0,0,1,.064-4.392c.04-.451-.664-.448-.7,0a29.783,29.783,0,0,0-.062,4.389Z" transform="translate(-470.442 -1542.565)" fill="#a85400"/>
      <path id="Caminho_187" data-name="Caminho 187" d="M509.965,1565.758c-.014-1.468-.016-2.919,0-4.387a.352.352,0,0,0-.7,0c-.012,1.466-.009,2.95,0,4.416C509.324,1565.784,509.736,1565.769,509.965,1565.758Z" transform="translate(-489.999 -1542.056)" fill="#a85400"/>
      <path id="Caminho_188" data-name="Caminho 188" d="M533.172,1563.784q-.09-2.2,0-4.4c.018-.453-.685-.452-.7,0-.06,1.485-.057,2.984.005,4.469C532.7,1563.83,532.936,1563.807,533.172,1563.784Z" transform="translate(-511.136 -1540.242)" fill="#a85400"/>
      <path id="Caminho_189" data-name="Caminho 189" d="M552.479,1562.174c-.086-1.436-.134-2.863-.146-4.3a.352.352,0,0,0-.7,0q.017,2.2.153,4.4C551.85,1562.267,552.31,1562.2,552.479,1562.174Z" transform="translate(-528.654 -1538.864)" fill="#a85400"/>
      <path id="Caminho_190" data-name="Caminho 190" d="M571.487,1559.13c-.1-1.4-.167-2.847-.192-4.255a.352.352,0,0,0-.7,0c.027,1.462.1,2.933.2,4.391C571.031,1559.221,571.264,1559.176,571.487,1559.13Z" transform="translate(-545.949 -1536.131)" fill="#a85400"/>
      <path id="Caminho_191" data-name="Caminho 191" d="M594.643,1554.513a34.286,34.286,0,0,1-.237-4.135c.019-.452-.684-.452-.7,0a37.491,37.491,0,0,0,.251,4.323Z" transform="translate(-567.02 -1532.029)" fill="#a85400"/>
      <path id="Caminho_192" data-name="Caminho 192" d="M615.871,1548a31.154,31.154,0,0,1-.131-4.125c.016-.453-.688-.452-.7,0a31.43,31.43,0,0,0,.16,4.364C615.425,1548.158,615.638,1548.083,615.871,1548Z" transform="translate(-586.473 -1526.095)" fill="#a85400"/>
      <path id="Caminho_193" data-name="Caminho 193" d="M634.431,1540.3c.029-.009.491-.22.691-.316-.051-1.367-.1-2.743-.152-4.11-.017-.451-.72-.453-.7,0q.08,2.154.16,4.307C634.428,1540.217,634.426,1540.262,634.431,1540.3Z" transform="translate(-604.028 -1518.802)" fill="#a85400"/>
      <path id="Caminho_194" data-name="Caminho 194" d="M655.176,1533.486c.005,0,.555-.334.692-.433-.033-1.221-.066-2.453-.1-3.674a.352.352,0,0,0-.7,0C655.1,1530.712,655.165,1533.453,655.176,1533.486Z" transform="translate(-622.999 -1512.876)" fill="#a85400"/>
      <path id="Caminho_195" data-name="Caminho 195" d="M670.928,1519.66c.208-.178.472-.42.656-.6-.1-1.228-.174-2.442-.228-3.673-.02-.451-.723-.453-.7,0q.087,1.981.25,3.957C670.912,1519.442,670.918,1519.533,670.928,1519.66Z" transform="translate(-637.216 -1500.11)" fill="#a85400"/>
      <g id="Grupo_88" data-name="Grupo 88" transform="translate(0.014 3.32)">
        <ellipse id="Elipse_16" data-name="Elipse 16" cx="17.688" cy="7.966" rx="17.688" ry="7.966" transform="translate(0.22 0.22)" fill="url(#linear-gradient-2)"/>
        <path id="Caminho_196" data-name="Caminho 196" d="M367.006,1403.289c-1.219-.291-2.356.053-2.475,1.046a1.17,1.17,0,0,1-.557.844,5.192,5.192,0,0,1-2.245.752,1.389,1.389,0,0,0-.872.365,14.1,14.1,0,0,1-4.69,2.631,3.21,3.21,0,0,0-1.47.943,7.65,7.65,0,0,1-3.824,2.349,2.246,2.246,0,0,0-1.148.633,4.2,4.2,0,0,1-2.6.97,2.407,2.407,0,0,1-.627-.031c-1.568-.278-2.845-.13-3.6,1.055a30.214,30.214,0,0,0,13.291,2.71c9.769,0,17.688-3.566,17.688-7.966C373.875,1407.027,371.184,1404.746,367.006,1403.289Zm.548,9.592a13.365,13.365,0,0,1-2.714,1.142c-.49.167-.977.344-1.472.5a6.743,6.743,0,0,1-.668.182,3,3,0,0,0-.595.111c-.336.143-.629-.352-.29-.5a9.98,9.98,0,0,1,1.174-.284c.465-.134.921-.3,1.379-.456a14.5,14.5,0,0,0,2.9-1.194C367.58,1412.192,367.868,1412.689,367.554,1412.881Z" transform="translate(-338.28 -1401.406)" fill="#bc5e00" opacity="0.12"/>
        <g id="Grupo_85" data-name="Grupo 85">
          <path id="Caminho_197" data-name="Caminho 197" d="M308.277,1399.266a31.559,31.559,0,0,1-12.6-2.352c-3.424-1.542-5.31-3.614-5.31-5.833s1.886-4.291,5.31-5.833a34.9,34.9,0,0,1,25.194,0c3.424,1.542,5.31,3.614,5.31,5.833s-1.886,4.291-5.31,5.833A31.559,31.559,0,0,1,308.277,1399.266Zm0-15.931a31.117,31.117,0,0,0-12.417,2.314c-3.257,1.467-5.051,3.4-5.051,5.432s1.794,3.965,5.051,5.432a34.476,34.476,0,0,0,24.833,0c3.257-1.467,5.051-3.4,5.051-5.432s-1.794-3.965-5.051-5.432A31.116,31.116,0,0,0,308.277,1383.334Z" transform="translate(-290.37 -1382.895)" fill="url(#linear-gradient-3)"/>
        </g>
        <g id="Grupo_86" data-name="Grupo 86" transform="translate(3.686 1.712)">
          <path id="Caminho_198" data-name="Caminho 198" d="M346.432,1414.6a26.234,26.234,0,0,1-9.9-1.735c-2.722-1.15-4.22-2.7-4.22-4.377s1.5-3.228,4.22-4.378a29.093,29.093,0,0,1,19.792,0c2.721,1.15,4.22,2.7,4.22,4.378s-1.5,3.228-4.22,4.377A26.234,26.234,0,0,1,346.432,1414.6Zm0-11.683a25.617,25.617,0,0,0-9.659,1.687c-2.5,1.057-3.88,2.436-3.88,3.884s1.378,2.826,3.88,3.883a28.494,28.494,0,0,0,19.318,0c2.5-1.057,3.88-2.436,3.88-3.883s-1.378-2.827-3.88-3.884A25.617,25.617,0,0,0,346.432,1402.92Z" transform="translate(-332.315 -1402.378)" fill="url(#linear-gradient-4)"/>
        </g>
        <path id="Caminho_199" data-name="Caminho 199" d="M390.812,1429.442a6.477,6.477,0,0,0,3.644-1.493,4.462,4.462,0,0,0,1.713.082c.668-.177,1.326-1.9.736-2.262-.527-.322-1-.207-1.794-.253a3,3,0,0,0-.729-1.122,6.235,6.235,0,0,0-4.061-1.489,5.729,5.729,0,0,0-3.864,1.323,9.72,9.72,0,0,0-1.158,1.206c-.158.184-1.6,2.1-3.123,2-1.222-.085-1.864-.822-1.739-1.489.2-1.092,1.748-1.583,3.012-1.563.989.016,1.931-.466,2.056-1.094.135-.679-.6-1.222-1.577-1.313-2.663-.25-5.33.582-6.511,2.229-.047.065-1-.2-1.427,0a1.787,1.787,0,0,0-.6,2.2c.191.3.9.25,1.477.285a3.75,3.75,0,0,0,1.925,2.343,7.772,7.772,0,0,0,3.7.843,6.144,6.144,0,0,0,4.077-1.251c.854-.688,2.223-2.747,3.279-3.073.786-.242,1.952.014,1.829.725-.074.428-.565.745-1.325.838-2.324.3-1.872,2.636.466,2.332Z" transform="translate(-367.763 -1418.497)" fill="url(#linear-gradient-5)"/>
        <g id="Grupo_87" data-name="Grupo 87" transform="translate(7.198 3.285)">
          <path id="Caminho_200" data-name="Caminho 200" d="M372.265,1424.208a1.841,1.841,0,0,1,.856-1.628,2.689,2.689,0,0,1,1.348-.052l.077.01c1.224-1.6,3.907-2.489,6.73-2.224,1.168.11,1.941.742,1.8,1.473-.138.693-1.181,1.241-2.326,1.223-1.226-.02-2.561.466-2.742,1.433-.108.58.438,1.255,1.51,1.33.369.026,1.379-.1,2.8-1.852l.051-.063.055-.065a9.38,9.38,0,0,1,1.121-1.16,6.066,6.066,0,0,1,4.1-1.388,6.575,6.575,0,0,1,4.279,1.564,3.163,3.163,0,0,1,.717,1.056c.126,0,.245,0,.362,0a2.516,2.516,0,0,1,1.409.287c.487.3.247,1.1.162,1.339s-.4,1-.979,1.151a3.228,3.228,0,0,1-1.45-.008h0a.524.524,0,0,0-.419.11,7.169,7.169,0,0,1-3.539,1.32h0a2.02,2.02,0,0,1-2.241-.861c-.307-.716.228-1.568,1.654-1.754.642-.078,1.06-.343,1.124-.71.045-.257-.1-.458-.414-.57a1.723,1.723,0,0,0-1.024-.014,6.808,6.808,0,0,0-2.076,1.866,10.736,10.736,0,0,1-1.114,1.162,6.517,6.517,0,0,1-4.293,1.314,8.1,8.1,0,0,1-3.886-.887,3.966,3.966,0,0,1-1.967-2.309l-.135,0c-.511-.015-1.147-.034-1.359-.369A1.366,1.366,0,0,1,372.265,1424.208Zm10.3-2.594c0-.513-.558-.937-1.374-1.014-2.626-.247-5.127.613-6.222,2.14-.1.14-.365.1-.621.07a2.249,2.249,0,0,0-.878-.011,1.7,1.7,0,0,0-.526,2.039c.086.136.35.158.89.174.124,0,.249.007.368.015l.206.013.026.113a3.634,3.634,0,0,0,1.853,2.26,7.312,7.312,0,0,0,3.506.8,5.785,5.785,0,0,0,3.86-1.188,10.566,10.566,0,0,0,1.075-1.124,6.563,6.563,0,0,1,2.293-1.993,2.642,2.642,0,0,1,1.569.024c.476.171.714.478.651.841-.085.492-.672.862-1.531.966-1.1.143-1.505.826-1.258,1.4.167.391.677.766,1.607.645a6.12,6.12,0,0,0,3.474-1.423h0a.272.272,0,0,1,.213-.077l.055,0c.17.014.337.043.5.071a2.376,2.376,0,0,0,1.062.023,1.574,1.574,0,0,0,.69-.945c.205-.575.137-.983-.036-1.089a1.736,1.736,0,0,0-1.022-.191c-.177,0-.377,0-.6-.015l-.016,0a.172.172,0,0,1-.215-.122h0a2.872,2.872,0,0,0-.7-1.079,5.9,5.9,0,0,0-3.842-1.414,5.4,5.4,0,0,0-3.632,1.259,9.126,9.126,0,0,0-1.084,1.123l-.056.065-.047.057c-1.151,1.416-2.277,2.1-3.347,2.021-1.407-.1-2.106-.913-1.968-1.648.214-1.142,1.813-1.717,3.281-1.693.862.013,1.68-.428,1.787-.964A.731.731,0,0,0,382.561,1421.615Z" transform="translate(-372.265 -1420.268)" fill="url(#linear-gradient-6)"/>
        </g>
      </g>
      <g id="Grupo_89" data-name="Grupo 89" transform="translate(2.765 0)">
        <path id="Caminho_201" data-name="Caminho 201" d="M340.5,1384.6a26.922,26.922,0,0,0-10.211,2.774c-1.719.952.121,2.614,1.777,1.569a19.447,19.447,0,0,1,4.183-1.813,22.72,22.72,0,0,1,4.6-.829C342.831,1386.166,342.456,1384.429,340.5,1384.6Z" transform="translate(-328.9 -1381.116)" fill="#fffb7b" opacity="0.8"/>
        <path id="Caminho_202" data-name="Caminho 202" d="M369.237,1380.833l-1.017-2.089,1.307-1.454,2.124.176,1.2,1.606-1.3,1.925Z" transform="translate(-364.129 -1374.464)" fill="#fffccc" opacity="0.47"/>
        <path id="Caminho_203" data-name="Caminho 203" d="M380.825,1387.588l-.94-.862.576-1.051,1.126-.051.718.674-.263.907Z" transform="translate(-374.769 -1382.065)" opacity="0.81" fill="url(#radial-gradient)"/>
        <path id="Caminho_204" data-name="Caminho 204" d="M604.8,1499.665l-1.389.239-.9-1.084.488-1.323,1.389-.239.9,1.084Z" transform="translate(-577.823 -1483.888)" fill="#fffda9" opacity="0.22"/>
        <path id="Caminho_205" data-name="Caminho 205" d="M608.889,1502.268l-.888-.454-.051-1,.837-.542.888.454.051,1Z" transform="translate(-582.788 -1486.64)" opacity="0.47" fill="url(#radial-gradient-2)"/>
        <path id="Caminho_206" data-name="Caminho 206" d="M614.061,1507.321l-.495-.048-.206-.452.289-.4.495.048.206.452Z" transform="translate(-587.725 -1492.24)" fill="url(#radial-gradient-3)"/>
        <path id="Caminho_207" data-name="Caminho 207" d="M326.029,1354.812l1.8-5.267-6.155.193,6.108-.609-2.322-4,2.777,3.9,4-2.168-3.766,2.54,4.157,3.986-4.443-3.632Z" transform="translate(-321.67 -1345.124)" fill="#fff" opacity="0.3"/>
        <path id="Caminho_208" data-name="Caminho 208" d="M337.616,1360.689l1.8-5-5.164.2,5.134-.485-2.058-3.456,2.31,3.422,3.5-1.957-3.377,2.217,3.751,3.453-3.89-3.283Z" transform="translate(-333.147 -1351.357)" fill="#fff"/>
        <path id="Caminho_209" data-name="Caminho 209" d="M457,1409.5l-1.115-.768.108-1.35,1.223-.582,1.115.768-.108,1.35Z" transform="translate(-444.087 -1401.384)" fill="#fffccc" opacity="0.47"/>
        <path id="Caminho_210" data-name="Caminho 210" d="M464.434,1416.212l-.657-.152-.2-.645.46-.493.657.152.2.645Z" transform="translate(-451.108 -1408.787)" opacity="0.81" fill="url(#radial-gradient-4)"/>
        <path id="Caminho_211" data-name="Caminho 211" d="M439.279,1396.552l-.609-3.232-3.019,1.793,2.874-1.993-2.871-2.363,3.074,2.175,1.333-2.529-1.1,2.651,3.355.85-3.4-.585Z" transform="translate(-425.634 -1386.422)" fill="#fff" opacity="0.3"/>
        <path id="Caminho_212" data-name="Caminho 212" d="M442.25,1400.417l-.527-3.094-2.763,1.656,2.666-1.792-2.638-2.084,2.758,1.993,1.154-2.221-1.013,2.318,2.935.685-2.957-.557Z" transform="translate(-428.652 -1390.502)" fill="#fff"/>
      </g>
    </g>
    <path id="Caminho_213" data-name="Caminho 213" d="M359.093,1379.481a4.174,4.174,0,0,1-2.069,3.227.825.825,0,0,0-.177.172,1.634,1.634,0,0,1-.942.7,2.014,2.014,0,0,0-.346.138c-2.8,1.437-6.958,2.18-11.739,2.18-8.435,0-15.273-2.873-15.273-6.417s6.838-6.417,15.273-6.417c6.956,0,12.825,2.167,14.67,4.84A2.533,2.533,0,0,1,359.093,1379.481Z" transform="translate(-180.023 -189.131)" opacity="0.51" fill="url(#linear-gradient-7)"/>
    <path id="Caminho_214" data-name="Caminho 214" d="M279.461,1356.029c-9.895,0-17.916-3.566-17.916-7.966v-4.116c2.621-2.953,10.342-3.849,17.916-3.849,7.177,0,15.056,1.3,17.916,4.012v3.953C297.376,1352.463,289.355,1356.029,279.461,1356.029Z" transform="translate(-118.909 -159.061)" fill="url(#linear-gradient)"/>
    <path id="Caminho_215" data-name="Caminho 215" d="M265,1392.229a.352.352,0,0,0,.025-.144q-.09-3.121-.18-6.241c-.013-.452-.716-.453-.7,0q.076,2.646.153,5.292A5.708,5.708,0,0,0,265,1392.229Z" transform="translate(-121.279 -200.477)" fill="#a85400"/>
    <path id="Caminho_216" data-name="Caminho 216" d="M279.243,1417.043a8.486,8.486,0,0,0,.753.634c-.008-.05-.01-.1-.014-.151a49.274,49.274,0,0,1-.191-5.184.352.352,0,0,0-.7,0q-.037,2.338.148,4.668S279.243,1417.042,279.243,1417.043Z" transform="translate(-134.905 -224.647)" fill="#a85400"/>
    <path id="Caminho_217" data-name="Caminho 217" d="M297.816,1432.772c-.107-1.633-.14-3.29-.1-4.926a.352.352,0,0,0-.7,0c-.039,1.507-.015,2.988.073,4.493C297.171,1432.407,297.594,1432.646,297.816,1432.772Z" transform="translate(-151.245 -238.787)" fill="#a85400"/>
    <path id="Caminho_218" data-name="Caminho 218" d="M317.332,1442.668c0-.006,0-.075,0-.081v-4.746a.352.352,0,0,0-.7,0v4.511C316.873,1442.466,317.09,1442.563,317.332,1442.668Z" transform="translate(-169.152 -247.904)" fill="#a85400"/>
    <path id="Caminho_219" data-name="Caminho 219" d="M337.312,1449.495c.221.074.471.159.7.234,0-.072.006-.16.008-.227q.06-2.329.021-4.658a.352.352,0,0,0-.7,0Q337.372,1447.169,337.312,1449.495Z" transform="translate(-188.017 -254.291)" fill="#a85400"/>
    <path id="Caminho_220" data-name="Caminho 220" d="M358.3,1457.538l-.008-4.7a.352.352,0,0,0-.7,0l.008,4.511C357.832,1457.415,358.067,1457.477,358.3,1457.538Z" transform="translate(-206.515 -261.586)" fill="#a85400"/>
    <path id="Caminho_221" data-name="Caminho 221" d="M376.718,1462.465q-.03-2.31-.059-4.621a.352.352,0,0,0-.7,0c.019,1.483.04,3,.059,4.48C376.247,1462.381,376.481,1462.421,376.718,1462.465Z" transform="translate(-223.264 -266.149)" fill="#a85400"/>
    <path id="Caminho_222" data-name="Caminho 222" d="M396.071,1467.662c.234.037.458.071.7.105.008-.143.007-.372.007-.4q0-.262,0-.525,0-.569,0-1.138.006-1.182.035-2.363a.352.352,0,0,0-.7,0q-.033,1.4-.036,2.8,0,.7.006,1.4C396.077,1467.569,396.071,1467.638,396.071,1467.662Z" transform="translate(-241.612 -271.166)" fill="#a85400"/>
    <path id="Caminho_223" data-name="Caminho 223" d="M416.04,1471.174a43.115,43.115,0,0,1,.145-4.314c.038-.451-.666-.448-.7,0-.117,1.4-.169,2.841-.148,4.241C415.565,1471.124,415.8,1471.151,416.04,1471.174Z" transform="translate(-259.177 -274.375)" fill="#a85400"/>
    <path id="Caminho_224" data-name="Caminho 224" d="M436.179,1471.728l.047-4.387a.352.352,0,0,0-.7,0c-.015,1.442-.031,2.912-.047,4.353C435.725,1471.709,435.941,1471.721,436.179,1471.728Z" transform="translate(-277.554 -274.811)" fill="#a85400"/>
    <path id="Caminho_225" data-name="Caminho 225" d="M459.9,1472.289a29.672,29.672,0,0,1,.064-4.392c.04-.451-.664-.448-.7,0a29.791,29.791,0,0,0-.062,4.389Z" transform="translate(-299.141 -275.321)" fill="#a85400"/>
    <path id="Caminho_226" data-name="Caminho 226" d="M481.3,1471.729c-.014-1.468-.016-2.919,0-4.387a.352.352,0,0,0-.7,0c-.012,1.466-.009,2.95.005,4.416C480.658,1471.756,481.07,1471.74,481.3,1471.729Z" transform="translate(-318.697 -274.812)" fill="#a85400"/>
    <path id="Caminho_227" data-name="Caminho 227" d="M504.506,1469.755q-.09-2.2,0-4.4c.018-.453-.685-.452-.7,0-.06,1.485-.057,2.984.005,4.469C504.032,1469.8,504.27,1469.778,504.506,1469.755Z" transform="translate(-339.834 -272.998)" fill="#a85400"/>
    <path id="Caminho_228" data-name="Caminho 228" d="M523.813,1468.145c-.086-1.436-.135-2.864-.146-4.3a.352.352,0,0,0-.7,0q.017,2.2.153,4.4C523.184,1468.238,523.644,1468.171,523.813,1468.145Z" transform="translate(-357.352 -271.62)" fill="#a85400"/>
    <path id="Caminho_229" data-name="Caminho 229" d="M542.822,1465.1c-.1-1.4-.167-2.847-.192-4.255a.352.352,0,0,0-.7,0c.027,1.462.1,2.933.2,4.391C542.366,1465.193,542.6,1465.146,542.822,1465.1Z" transform="translate(-374.648 -268.887)" fill="#a85400"/>
    <path id="Caminho_230" data-name="Caminho 230" d="M565.977,1460.484a34.307,34.307,0,0,1-.237-4.135c.019-.452-.684-.452-.7,0a37.466,37.466,0,0,0,.251,4.324Z" transform="translate(-395.718 -264.785)" fill="#a85400"/>
    <path id="Caminho_231" data-name="Caminho 231" d="M587.206,1453.968a31.132,31.132,0,0,1-.131-4.125c.016-.453-.688-.452-.7,0a31.43,31.43,0,0,0,.16,4.364C586.759,1454.129,586.972,1454.054,587.206,1453.968Z" transform="translate(-415.171 -258.851)" fill="#a85400"/>
    <path id="Caminho_232" data-name="Caminho 232" d="M605.765,1446.273c.029-.009.491-.22.691-.316-.051-1.367-.1-2.743-.152-4.11-.017-.451-.72-.453-.7,0q.08,2.154.16,4.307C605.762,1446.188,605.76,1446.233,605.765,1446.273Z" transform="translate(-432.726 -251.558)" fill="#a85400"/>
    <path id="Caminho_233" data-name="Caminho 233" d="M626.51,1439.457c.005,0,.555-.334.692-.433-.033-1.221-.066-2.453-.1-3.674a.352.352,0,0,0-.7,0C626.436,1436.683,626.5,1439.424,626.51,1439.457Z" transform="translate(-451.697 -245.632)" fill="#a85400"/>
    <path id="Caminho_234" data-name="Caminho 234" d="M642.262,1425.631c.208-.178.472-.42.656-.6-.1-1.229-.174-2.442-.228-3.673-.02-.451-.723-.453-.7,0q.087,1.981.25,3.957C642.246,1425.412,642.252,1425.5,642.262,1425.631Z" transform="translate(-465.914 -232.867)" fill="#a85400"/>
    <ellipse id="Elipse_17" data-name="Elipse 17" cx="17.688" cy="7.966" rx="17.688" ry="7.966" transform="translate(142.87 1176.754)" fill="url(#linear-gradient-2)"/>
    <path id="Caminho_235" data-name="Caminho 235" d="M338.34,1309.26c-1.219-.291-2.356.053-2.475,1.046a1.169,1.169,0,0,1-.557.844,5.187,5.187,0,0,1-2.245.752,1.389,1.389,0,0,0-.872.365,14.1,14.1,0,0,1-4.69,2.631,3.209,3.209,0,0,0-1.47.943,7.651,7.651,0,0,1-3.824,2.349,2.246,2.246,0,0,0-1.148.633,4.2,4.2,0,0,1-2.6.97,2.4,2.4,0,0,1-.627-.031c-1.568-.278-2.845-.131-3.6,1.055a30.214,30.214,0,0,0,13.291,2.71c9.769,0,17.688-3.566,17.688-7.966C345.209,1313,342.518,1310.717,338.34,1309.26Zm.548,9.592a13.372,13.372,0,0,1-2.714,1.142c-.49.167-.977.344-1.472.5a6.737,6.737,0,0,1-.668.182,3.009,3.009,0,0,0-.595.111c-.336.143-.629-.351-.29-.5a9.933,9.933,0,0,1,1.174-.284c.465-.134.922-.3,1.379-.456a14.5,14.5,0,0,0,2.9-1.194C338.914,1318.163,339.2,1318.66,338.888,1318.852Z" transform="translate(-166.964 -130.842)" fill="#bc5e00" opacity="0.12"/>
    <g id="Grupo_91" data-name="Grupo 91" transform="translate(142.65 1176.534)">
      <path id="Caminho_236" data-name="Caminho 236" d="M279.611,1305.237a31.563,31.563,0,0,1-12.6-2.352c-3.424-1.542-5.31-3.614-5.31-5.833s1.886-4.291,5.31-5.833a34.905,34.905,0,0,1,25.194,0c3.424,1.542,5.31,3.614,5.31,5.833s-1.886,4.291-5.31,5.833A31.563,31.563,0,0,1,279.611,1305.237Zm0-15.931a31.116,31.116,0,0,0-12.417,2.314c-3.257,1.467-5.051,3.4-5.051,5.432s1.794,3.965,5.051,5.432a34.478,34.478,0,0,0,24.833,0c3.257-1.467,5.051-3.4,5.051-5.432s-1.794-3.965-5.051-5.432A31.116,31.116,0,0,0,279.611,1289.305Z" transform="translate(-261.704 -1288.866)" fill="url(#linear-gradient-3)"/>
    </g>
    <g id="Grupo_92" data-name="Grupo 92" transform="translate(146.337 1178.247)">
      <path id="Caminho_237" data-name="Caminho 237" d="M317.765,1320.573a26.231,26.231,0,0,1-9.9-1.735c-2.722-1.15-4.22-2.7-4.22-4.378s1.5-3.228,4.22-4.378a29.095,29.095,0,0,1,19.792,0c2.722,1.15,4.22,2.7,4.22,4.378s-1.5,3.228-4.22,4.378A26.231,26.231,0,0,1,317.765,1320.573Zm0-11.682a25.618,25.618,0,0,0-9.659,1.687c-2.5,1.057-3.88,2.436-3.88,3.883s1.378,2.826,3.88,3.883a28.5,28.5,0,0,0,19.318,0c2.5-1.057,3.88-2.436,3.88-3.883s-1.378-2.827-3.88-3.883A25.618,25.618,0,0,0,317.765,1308.891Z" transform="translate(-303.649 -1308.349)" fill="url(#linear-gradient-4)"/>
    </g>
    <g id="Grupo_94" data-name="Grupo 94" transform="translate(149.848 1179.819)">
      <path id="Caminho_238" data-name="Caminho 238" d="M362.146,1335.413a6.478,6.478,0,0,0,3.644-1.493,4.464,4.464,0,0,0,1.713.082c.668-.177,1.326-1.9.736-2.262-.527-.322-1-.207-1.794-.253a3,3,0,0,0-.729-1.122,6.235,6.235,0,0,0-4.061-1.489,5.73,5.73,0,0,0-3.864,1.323,9.7,9.7,0,0,0-1.158,1.206c-.158.184-1.6,2.1-3.123,2-1.222-.085-1.864-.822-1.739-1.489.2-1.092,1.748-1.583,3.012-1.563.989.016,1.931-.466,2.056-1.094.135-.679-.6-1.222-1.577-1.314-2.663-.25-5.33.582-6.511,2.229-.047.065-1-.2-1.426,0a1.787,1.787,0,0,0-.6,2.2c.192.3.9.25,1.478.285a3.749,3.749,0,0,0,1.925,2.343,7.771,7.771,0,0,0,3.7.843,6.145,6.145,0,0,0,4.077-1.251c.854-.688,2.223-2.747,3.279-3.073.786-.243,1.952.013,1.829.725-.074.428-.565.745-1.325.838-2.324.3-1.872,2.636.466,2.332Z" transform="translate(-346.295 -1327.753)" fill="url(#linear-gradient-5)"/>
      <g id="Grupo_93" data-name="Grupo 93" transform="translate(0 0)">
        <path id="Caminho_239" data-name="Caminho 239" d="M343.6,1330.179a1.841,1.841,0,0,1,.856-1.628,2.689,2.689,0,0,1,1.348-.052l.077.01c1.224-1.6,3.907-2.49,6.73-2.224,1.168.11,1.941.742,1.795,1.473-.138.693-1.181,1.241-2.325,1.223-1.226-.02-2.561.466-2.742,1.433-.108.58.438,1.255,1.51,1.33.368.026,1.379-.1,2.8-1.852l.051-.062.055-.065a9.375,9.375,0,0,1,1.121-1.16,6.065,6.065,0,0,1,4.1-1.388,6.574,6.574,0,0,1,4.279,1.564,3.163,3.163,0,0,1,.717,1.056c.126,0,.245,0,.362,0a2.515,2.515,0,0,1,1.409.287c.487.3.247,1.1.162,1.339s-.4,1-.979,1.151a3.23,3.23,0,0,1-1.45-.008h0a.524.524,0,0,0-.419.11,7.169,7.169,0,0,1-3.539,1.32h0a2.019,2.019,0,0,1-2.241-.861c-.307-.716.228-1.568,1.654-1.754.642-.078,1.06-.343,1.124-.71.045-.257-.1-.458-.414-.57a1.723,1.723,0,0,0-1.024-.014,6.8,6.8,0,0,0-2.076,1.866,10.731,10.731,0,0,1-1.114,1.161,6.517,6.517,0,0,1-4.293,1.314,8.1,8.1,0,0,1-3.886-.887,3.966,3.966,0,0,1-1.967-2.309l-.135,0c-.511-.015-1.147-.034-1.359-.369A1.367,1.367,0,0,1,343.6,1330.179Zm10.3-2.594c0-.513-.558-.937-1.374-1.014-2.626-.247-5.127.613-6.222,2.14-.1.14-.365.1-.621.07a2.244,2.244,0,0,0-.878-.011,1.7,1.7,0,0,0-.526,2.039c.086.136.35.158.89.174.124,0,.249.008.368.015l.206.013.026.113a3.633,3.633,0,0,0,1.852,2.26,7.313,7.313,0,0,0,3.506.8,5.784,5.784,0,0,0,3.86-1.188,10.563,10.563,0,0,0,1.075-1.124,6.563,6.563,0,0,1,2.293-1.993,2.641,2.641,0,0,1,1.569.024c.476.171.714.478.651.841-.085.492-.672.862-1.531.966-1.1.143-1.505.826-1.258,1.4.167.391.677.766,1.607.645a6.12,6.12,0,0,0,3.475-1.423h0a.272.272,0,0,1,.213-.077l.055,0c.17.014.337.043.5.071a2.374,2.374,0,0,0,1.062.024,1.573,1.573,0,0,0,.69-.945c.205-.575.137-.983-.036-1.089a1.736,1.736,0,0,0-1.022-.191c-.177,0-.377,0-.6-.015l-.016,0a.173.173,0,0,1-.215-.122h0a2.873,2.873,0,0,0-.7-1.079,5.9,5.9,0,0,0-3.843-1.414,5.4,5.4,0,0,0-3.632,1.259,9.144,9.144,0,0,0-1.084,1.123l-.056.065-.047.057c-1.151,1.416-2.277,2.1-3.347,2.021-1.407-.1-2.106-.914-1.968-1.648.214-1.142,1.813-1.717,3.281-1.693.862.014,1.68-.428,1.786-.964A.729.729,0,0,0,353.895,1327.586Z" transform="translate(-343.599 -1326.239)" fill="url(#linear-gradient-13)"/>
      </g>
    </g>
    <g id="Grupo_95" data-name="Grupo 95" transform="translate(142.349 1174.064)">
      <path id="Caminho_240" data-name="Caminho 240" d="M311.83,1290.566a26.918,26.918,0,0,0-10.211,2.775c-1.719.951.121,2.614,1.777,1.568a19.448,19.448,0,0,1,4.183-1.813,22.711,22.711,0,0,1,4.6-.83C314.165,1292.136,313.789,1290.4,311.83,1290.566Z" transform="translate(-297.182 -1287.936)" fill="#fffb7b" opacity="0.8"/>
      <path id="Caminho_241" data-name="Caminho 241" d="M305.843,1296.468l-1.017-2.089,1.307-1.454,2.124.176,1.2,1.606-1.3,1.925Z" transform="translate(-300.735 -1290.098)" fill="#fffccc" opacity="0.47"/>
      <path id="Caminho_242" data-name="Caminho 242" d="M317.431,1303.222l-.94-.863.576-1.051,1.126-.051.718.674-.263.907Z" transform="translate(-311.375 -1297.699)" opacity="0.81" fill="url(#radial-gradient-5)"/>
      <path id="Caminho_243" data-name="Caminho 243" d="M514.578,1424.236l-1.389.239-.9-1.084.488-1.323,1.389-.239.9,1.084Z" transform="translate(-489.963 -1407.673)" fill="#fffda9" opacity="0.22"/>
      <path id="Caminho_244" data-name="Caminho 244" d="M518.671,1426.839l-.888-.454-.051-1,.837-.542.888.454.051,1Z" transform="translate(-494.928 -1410.425)" opacity="0.47" fill="url(#radial-gradient-6)"/>
      <path id="Caminho_245" data-name="Caminho 245" d="M523.844,1431.892l-.495-.048-.206-.452.289-.4.495.048.206.452Z" transform="translate(-499.865 -1416.026)" fill="url(#radial-gradient-7)"/>
      <path id="Caminho_246" data-name="Caminho 246" d="M262.635,1270.446l1.8-5.267-6.155.193,6.108-.609-2.322-4,2.777,3.9,4-2.168-3.766,2.54,4.157,3.986-4.443-3.632Z" transform="translate(-258.275 -1260.759)" fill="#fff" opacity="0.3"/>
      <path id="Caminho_247" data-name="Caminho 247" d="M274.222,1276.324l1.8-5-5.164.2,5.134-.485-2.058-3.456,2.31,3.422,3.5-1.957-3.377,2.217,3.751,3.453-3.89-3.282Z" transform="translate(-269.753 -1266.991)" fill="#fff"/>
      <path id="Caminho_248" data-name="Caminho 248" d="M393.6,1325.139l-1.115-.768.108-1.35,1.223-.582,1.115.768-.108,1.35Z" transform="translate(-380.692 -1317.018)" fill="#fffccc" opacity="0.47"/>
      <path id="Caminho_249" data-name="Caminho 249" d="M401.039,1331.846l-.657-.152-.2-.645.46-.493.657.152.2.645Z" transform="translate(-387.713 -1324.422)" opacity="0.81" fill="url(#radial-gradient-8)"/>
      <path id="Caminho_250" data-name="Caminho 250" d="M375.885,1312.186l-.609-3.232-3.019,1.793,2.874-1.993-2.871-2.363,3.074,2.175,1.333-2.529-1.1,2.651,3.355.85-3.4-.585Z" transform="translate(-362.239 -1302.057)" fill="#fff" opacity="0.3"/>
      <path id="Caminho_251" data-name="Caminho 251" d="M378.855,1316.051l-.527-3.094-2.763,1.656,2.666-1.792-2.638-2.084,2.758,1.993,1.154-2.221-1.013,2.318,2.935.685-2.957-.557Z" transform="translate(-365.257 -1306.137)" fill="#fff"/>
    </g>
    <path id="Caminho_252" data-name="Caminho 252" d="M381.961,1302.474a4.174,4.174,0,0,1-2.069,3.227c-.067.048-.5.522-.546.588,0,.17,0,.569,0,1.376a6.444,6.444,0,0,1,2.175,2.594,4.013,4.013,0,0,1-.462,4.069c-.095.028-3.1-.325-4.287-1.266a1.946,1.946,0,0,1-.735-1.456c-.026-.716-.055-1.369-.037-2.292a.811.811,0,0,0-.956-.812,41.462,41.462,0,0,1-8.52.846c-8.435,0-15.11-3.33-15.11-6.874s6.838-6.417,15.273-6.417S381.961,1298.93,381.961,1302.474Z" transform="translate(-200.881 -118.891)" opacity="0.51" fill="url(#linear-gradient-14)"/>
    <path id="Caminho_253" data-name="Caminho 253" d="M346.306,1270.644c-9.895,0-17.916-3.566-17.916-7.966v-4.116c2.621-2.953,10.342-3.849,17.916-3.849,7.178,0,15.056,1.3,17.916,4.012v3.953C364.221,1267.078,356.2,1270.644,346.306,1270.644Z" transform="translate(-179.879 -81.18)" fill="url(#linear-gradient)"/>
    <path id="Caminho_254" data-name="Caminho 254" d="M331.847,1306.844a.352.352,0,0,0,.025-.144q-.09-3.121-.18-6.241c-.013-.451-.716-.453-.7,0q.077,2.646.153,5.292A5.706,5.706,0,0,0,331.847,1306.844Z" transform="translate(-182.249 -122.596)" fill="#a85400"/>
    <path id="Caminho_255" data-name="Caminho 255" d="M346.087,1331.658a8.47,8.47,0,0,0,.753.634c-.008-.05-.01-.1-.014-.151a49.266,49.266,0,0,1-.191-5.184.352.352,0,0,0-.7,0q-.037,2.338.148,4.668S346.087,1331.658,346.087,1331.658Z" transform="translate(-195.874 -146.766)" fill="#a85400"/>
    <path id="Caminho_256" data-name="Caminho 256" d="M364.66,1347.387c-.107-1.633-.14-3.29-.1-4.926a.352.352,0,0,0-.7,0c-.039,1.507-.015,2.988.073,4.493C364.015,1347.022,364.438,1347.261,364.66,1347.387Z" transform="translate(-212.214 -160.907)" fill="#a85400"/>
    <path id="Caminho_257" data-name="Caminho 257" d="M384.176,1357.284c0-.006,0-.075,0-.081v-4.746a.352.352,0,0,0-.7,0v4.511C383.717,1357.082,383.934,1357.179,384.176,1357.284Z" transform="translate(-230.121 -170.024)" fill="#a85400"/>
    <path id="Caminho_258" data-name="Caminho 258" d="M404.156,1364.11c.221.074.471.159.7.234,0-.072.006-.16.007-.227q.06-2.329.021-4.658a.352.352,0,0,0-.7,0Q404.216,1361.785,404.156,1364.11Z" transform="translate(-248.986 -176.411)" fill="#a85400"/>
    <path id="Caminho_259" data-name="Caminho 259" d="M425.148,1372.153l-.008-4.7a.352.352,0,0,0-.7,0l.008,4.511C424.676,1372.031,424.911,1372.093,425.148,1372.153Z" transform="translate(-267.485 -183.706)" fill="#a85400"/>
    <path id="Caminho_260" data-name="Caminho 260" d="M443.562,1377.08q-.03-2.31-.059-4.621a.352.352,0,0,0-.7,0c.019,1.483.04,3,.059,4.48C443.091,1377,443.325,1377.036,443.562,1377.08Z" transform="translate(-284.233 -188.268)" fill="#a85400"/>
    <path id="Caminho_261" data-name="Caminho 261" d="M462.915,1382.277c.234.037.458.07.7.105.008-.143.007-.372.007-.4q0-.263,0-.525,0-.569,0-1.138.006-1.182.035-2.363a.352.352,0,0,0-.7,0q-.033,1.4-.036,2.8,0,.7.006,1.4C462.921,1382.184,462.915,1382.253,462.915,1382.277Z" transform="translate(-302.581 -193.285)" fill="#a85400"/>
    <path id="Caminho_262" data-name="Caminho 262" d="M482.884,1385.79a43.134,43.134,0,0,1,.145-4.314c.038-.451-.666-.448-.7,0-.117,1.4-.169,2.841-.148,4.241C482.41,1385.74,482.643,1385.766,482.884,1385.79Z" transform="translate(-320.147 -196.495)" fill="#a85400"/>
    <path id="Caminho_263" data-name="Caminho 263" d="M503.023,1386.343q.024-2.194.047-4.387a.352.352,0,0,0-.7,0c-.015,1.441-.031,2.912-.047,4.353C502.569,1386.324,502.785,1386.336,503.023,1386.343Z" transform="translate(-338.523 -196.93)" fill="#a85400"/>
    <path id="Caminho_264" data-name="Caminho 264" d="M526.742,1386.9a29.67,29.67,0,0,1,.064-4.392c.04-.45-.664-.448-.7,0a29.778,29.778,0,0,0-.062,4.389Z" transform="translate(-360.11 -197.441)" fill="#a85400"/>
    <path id="Caminho_265" data-name="Caminho 265" d="M548.143,1386.344c-.014-1.468-.016-2.919,0-4.387a.352.352,0,0,0-.7,0c-.011,1.467-.009,2.95.005,4.416C547.5,1386.371,547.915,1386.355,548.143,1386.344Z" transform="translate(-379.666 -196.931)" fill="#a85400"/>
    <path id="Caminho_266" data-name="Caminho 266" d="M571.35,1384.37q-.09-2.2,0-4.4c.018-.452-.685-.452-.7,0-.06,1.485-.058,2.984.005,4.469C570.876,1384.417,571.115,1384.394,571.35,1384.37Z" transform="translate(-400.803 -195.118)" fill="#a85400"/>
    <path id="Caminho_267" data-name="Caminho 267" d="M590.657,1382.76c-.086-1.436-.134-2.864-.146-4.3a.352.352,0,0,0-.7,0q.017,2.2.153,4.4C590.028,1382.853,590.488,1382.786,590.657,1382.76Z" transform="translate(-418.321 -193.74)" fill="#a85400"/>
    <path id="Caminho_268" data-name="Caminho 268" d="M609.666,1379.716c-.1-1.4-.167-2.847-.192-4.255a.352.352,0,0,0-.7,0c.027,1.462.1,2.933.2,4.391C609.21,1379.808,609.443,1379.762,609.666,1379.716Z" transform="translate(-435.617 -191.007)" fill="#a85400"/>
    <path id="Caminho_269" data-name="Caminho 269" d="M632.822,1375.1a34.3,34.3,0,0,1-.237-4.135c.019-.453-.684-.452-.7,0a37.475,37.475,0,0,0,.251,4.323Z" transform="translate(-456.688 -186.905)" fill="#a85400"/>
    <path id="Caminho_270" data-name="Caminho 270" d="M654.05,1368.583a31.163,31.163,0,0,1-.131-4.125c.016-.453-.688-.452-.7,0a31.418,31.418,0,0,0,.159,4.364C653.6,1368.744,653.816,1368.669,654.05,1368.583Z" transform="translate(-476.14 -180.971)" fill="#a85400"/>
    <path id="Caminho_271" data-name="Caminho 271" d="M672.609,1360.888c.029-.009.491-.22.691-.316-.051-1.367-.1-2.743-.152-4.11-.017-.451-.72-.453-.7,0q.08,2.154.16,4.307C672.606,1360.8,672.6,1360.849,672.609,1360.888Z" transform="translate(-493.695 -173.678)" fill="#a85400"/>
    <path id="Caminho_272" data-name="Caminho 272" d="M693.354,1354.072c.005,0,.555-.334.692-.433-.033-1.221-.066-2.453-.1-3.674a.352.352,0,0,0-.7,0C693.279,1351.3,693.343,1354.039,693.354,1354.072Z" transform="translate(-512.666 -167.752)" fill="#a85400"/>
    <path id="Caminho_273" data-name="Caminho 273" d="M709.106,1340.246c.208-.178.472-.421.656-.6-.1-1.228-.174-2.442-.228-3.673-.02-.451-.723-.453-.7,0q.087,1.981.25,3.957C709.09,1340.028,709.1,1340.119,709.106,1340.246Z" transform="translate(-526.883 -154.986)" fill="#a85400"/>
    <ellipse id="Elipse_18" data-name="Elipse 18" cx="17.688" cy="7.966" rx="17.688" ry="7.966" transform="translate(148.745 1169.25)" fill="url(#linear-gradient-2)"/>
    <path id="Caminho_274" data-name="Caminho 274" d="M405.184,1223.875c-1.219-.291-2.356.053-2.475,1.046a1.17,1.17,0,0,1-.557.844,5.19,5.19,0,0,1-2.245.752,1.389,1.389,0,0,0-.872.365,14.1,14.1,0,0,1-4.69,2.631,3.21,3.21,0,0,0-1.47.943,7.652,7.652,0,0,1-3.824,2.349,2.246,2.246,0,0,0-1.148.633,4.2,4.2,0,0,1-2.6.97,2.4,2.4,0,0,1-.627-.031c-1.568-.278-2.845-.13-3.6,1.055a30.214,30.214,0,0,0,13.291,2.71c9.768,0,17.688-3.566,17.688-7.966C412.053,1227.613,409.362,1225.332,405.184,1223.875Zm.548,9.592a13.379,13.379,0,0,1-2.714,1.143c-.49.167-.977.344-1.472.5a6.808,6.808,0,0,1-.668.182,3.007,3.007,0,0,0-.595.112c-.337.143-.629-.352-.29-.5a10.006,10.006,0,0,1,1.174-.284c.465-.134.922-.3,1.379-.456a14.5,14.5,0,0,0,2.9-1.194C405.758,1232.778,406.046,1233.275,405.732,1233.467Z" transform="translate(-227.934 -52.962)" fill="#bc5e00" opacity="0.12"/>
    <g id="Grupo_96" data-name="Grupo 96" transform="translate(148.525 1169.03)">
      <path id="Caminho_275" data-name="Caminho 275" d="M346.455,1219.852a31.56,31.56,0,0,1-12.6-2.353c-3.424-1.542-5.31-3.614-5.31-5.833s1.886-4.291,5.31-5.833a34.9,34.9,0,0,1,25.194,0c3.424,1.542,5.31,3.614,5.31,5.833s-1.886,4.291-5.31,5.833A31.561,31.561,0,0,1,346.455,1219.852Zm0-15.931a31.118,31.118,0,0,0-12.417,2.314c-3.257,1.467-5.051,3.4-5.051,5.432s1.794,3.965,5.051,5.432a34.474,34.474,0,0,0,24.833,0c3.257-1.467,5.051-3.4,5.051-5.432s-1.794-3.965-5.051-5.432A31.118,31.118,0,0,0,346.455,1203.92Z" transform="translate(-328.548 -1203.481)" fill="url(#linear-gradient-3)"/>
    </g>
    <g id="Grupo_97" data-name="Grupo 97" transform="translate(152.211 1170.742)">
      <path id="Caminho_276" data-name="Caminho 276" d="M384.609,1235.189a26.231,26.231,0,0,1-9.9-1.735c-2.722-1.15-4.22-2.7-4.22-4.378s1.5-3.228,4.22-4.377a29.093,29.093,0,0,1,19.792,0c2.721,1.15,4.22,2.7,4.22,4.377s-1.5,3.228-4.22,4.378A26.231,26.231,0,0,1,384.609,1235.189Zm0-11.683a25.618,25.618,0,0,0-9.659,1.687c-2.5,1.057-3.88,2.436-3.88,3.883s1.378,2.827,3.88,3.883a28.495,28.495,0,0,0,19.318,0c2.5-1.057,3.88-2.436,3.88-3.883s-1.378-2.826-3.88-3.883A25.617,25.617,0,0,0,384.609,1223.506Z" transform="translate(-370.493 -1222.964)" fill="url(#linear-gradient-4)"/>
    </g>
    <g id="Grupo_99" data-name="Grupo 99" transform="translate(155.723 1172.315)">
      <path id="Caminho_277" data-name="Caminho 277" d="M428.99,1250.028a6.477,6.477,0,0,0,3.644-1.493,4.457,4.457,0,0,0,1.713.082c.668-.177,1.326-1.9.736-2.262-.527-.322-1-.207-1.794-.253a3.006,3.006,0,0,0-.729-1.122,6.236,6.236,0,0,0-4.061-1.489,5.731,5.731,0,0,0-3.864,1.323,9.713,9.713,0,0,0-1.158,1.206c-.158.184-1.6,2.1-3.123,2-1.222-.085-1.864-.822-1.739-1.489.2-1.092,1.748-1.583,3.012-1.563.989.016,1.931-.466,2.056-1.094.135-.679-.6-1.222-1.577-1.313-2.663-.25-5.33.583-6.511,2.229-.047.065-1-.2-1.427,0a1.787,1.787,0,0,0-.6,2.2c.191.3.9.25,1.477.285a3.749,3.749,0,0,0,1.925,2.343,7.772,7.772,0,0,0,3.7.843,6.145,6.145,0,0,0,4.077-1.251c.854-.688,2.223-2.747,3.279-3.073.786-.242,1.952.013,1.829.725-.074.428-.565.745-1.325.838-2.324.3-1.872,2.636.466,2.332Z" transform="translate(-413.139 -1242.368)" fill="url(#linear-gradient-5)"/>
      <g id="Grupo_98" data-name="Grupo 98" transform="translate(0 0)">
        <path id="Caminho_278" data-name="Caminho 278" d="M410.443,1244.795a1.841,1.841,0,0,1,.856-1.629,2.689,2.689,0,0,1,1.348-.051l.077.01c1.224-1.6,3.907-2.489,6.73-2.224,1.168.11,1.941.742,1.795,1.473-.138.693-1.181,1.241-2.325,1.223-1.226-.019-2.561.466-2.742,1.433-.108.58.438,1.255,1.51,1.33.369.026,1.379-.1,2.8-1.852l.052-.063.056-.065a9.366,9.366,0,0,1,1.121-1.16,6.065,6.065,0,0,1,4.1-1.388,6.574,6.574,0,0,1,4.279,1.564,3.16,3.16,0,0,1,.717,1.056c.127,0,.245,0,.362,0a2.517,2.517,0,0,1,1.409.287c.487.3.247,1.1.162,1.339s-.4,1-.979,1.151a3.229,3.229,0,0,1-1.45-.008h0a.524.524,0,0,0-.419.111,7.171,7.171,0,0,1-3.539,1.32h0a2.019,2.019,0,0,1-2.241-.86c-.307-.717.228-1.568,1.654-1.754.642-.078,1.06-.343,1.124-.71.045-.257-.1-.458-.414-.57a1.722,1.722,0,0,0-1.024-.014,6.805,6.805,0,0,0-2.076,1.866,10.714,10.714,0,0,1-1.114,1.162,6.519,6.519,0,0,1-4.293,1.314,8.1,8.1,0,0,1-3.886-.887,3.966,3.966,0,0,1-1.967-2.309l-.135,0c-.511-.015-1.147-.034-1.359-.369A1.366,1.366,0,0,1,410.443,1244.795Zm10.3-2.594c0-.513-.558-.937-1.374-1.014-2.626-.247-5.127.613-6.221,2.14-.1.14-.365.1-.621.07a2.247,2.247,0,0,0-.878-.011,1.7,1.7,0,0,0-.526,2.039c.086.136.35.158.89.174.124,0,.249.008.368.015l.206.013.026.114a3.634,3.634,0,0,0,1.852,2.26,7.312,7.312,0,0,0,3.506.8,5.785,5.785,0,0,0,3.86-1.188,10.577,10.577,0,0,0,1.075-1.124,6.565,6.565,0,0,1,2.293-1.993,2.641,2.641,0,0,1,1.569.024c.476.171.714.478.651.841-.085.492-.672.862-1.531.966-1.1.143-1.505.826-1.258,1.4.167.391.677.766,1.607.645a6.12,6.12,0,0,0,3.475-1.423h0a.272.272,0,0,1,.213-.077l.055,0c.17.014.337.043.5.071a2.374,2.374,0,0,0,1.062.023,1.573,1.573,0,0,0,.69-.945c.205-.575.137-.983-.036-1.089a1.737,1.737,0,0,0-1.022-.191c-.177,0-.377,0-.6-.015l-.016,0a.173.173,0,0,1-.215-.122h0a2.873,2.873,0,0,0-.7-1.079,5.9,5.9,0,0,0-3.843-1.414,5.4,5.4,0,0,0-3.632,1.258,9.147,9.147,0,0,0-1.084,1.123l-.056.065-.047.057c-1.151,1.416-2.277,2.1-3.347,2.021-1.407-.1-2.106-.914-1.968-1.648.214-1.143,1.813-1.717,3.281-1.693.862.014,1.68-.428,1.787-.964A.732.732,0,0,0,420.739,1242.2Z" transform="translate(-410.443 -1240.854)" fill="url(#linear-gradient-20)"/>
      </g>
    </g>
    <g id="Grupo_100" data-name="Grupo 100" transform="translate(151.276 1165.71)">
      <path id="Caminho_279" data-name="Caminho 279" d="M378.674,1205.181a26.918,26.918,0,0,0-10.211,2.775c-1.718.951.121,2.614,1.777,1.568a19.448,19.448,0,0,1,4.183-1.813,22.72,22.72,0,0,1,4.6-.829C381.01,1206.752,380.634,1205.015,378.674,1205.181Z" transform="translate(-367.078 -1201.702)" fill="#fffb7b" opacity="0.8"/>
      <path id="Caminho_280" data-name="Caminho 280" d="M407.416,1201.42l-1.017-2.089,1.307-1.454,2.124.176,1.2,1.606-1.3,1.925Z" transform="translate(-402.308 -1195.05)" fill="#fffccc" opacity="0.47"/>
      <path id="Caminho_281" data-name="Caminho 281" d="M419,1208.174l-.94-.862.576-1.051,1.126-.051.718.674-.263.907Z" transform="translate(-412.947 -1202.651)" opacity="0.81" fill="url(#radial-gradient-9)"/>
      <path id="Caminho_282" data-name="Caminho 282" d="M616.151,1329.188l-1.389.239-.9-1.084.488-1.323,1.389-.239.9,1.084Z" transform="translate(-591.536 -1312.625)" fill="#fffda9" opacity="0.22"/>
      <path id="Caminho_283" data-name="Caminho 283" d="M620.244,1331.791l-.888-.454-.051-1,.837-.542.888.454.051,1Z" transform="translate(-596.501 -1315.377)" opacity="0.47" fill="url(#radial-gradient-10)"/>
      <path id="Caminho_284" data-name="Caminho 284" d="M625.417,1336.844l-.495-.048-.206-.452.289-.4.495.048.206.452Z" transform="translate(-601.438 -1320.978)" fill="url(#radial-gradient-11)"/>
      <path id="Caminho_285" data-name="Caminho 285" d="M364.208,1175.4l1.8-5.267-6.155.193,6.108-.609-2.322-4,2.777,3.9,4-2.168-3.766,2.54,4.157,3.986-4.443-3.633Z" transform="translate(-359.848 -1165.71)" fill="#fff" opacity="0.3"/>
      <path id="Caminho_286" data-name="Caminho 286" d="M375.795,1181.275l1.8-5-5.164.2,5.134-.485-2.058-3.456,2.31,3.422,3.5-1.957-3.377,2.217,3.751,3.453-3.89-3.282Z" transform="translate(-371.325 -1171.943)" fill="#fff"/>
      <path id="Caminho_287" data-name="Caminho 287" d="M495.176,1230.09l-1.115-.768.108-1.35,1.223-.582,1.115.768-.108,1.35Z" transform="translate(-482.265 -1221.97)" fill="#fffccc" opacity="0.47"/>
      <path id="Caminho_288" data-name="Caminho 288" d="M502.612,1236.8l-.657-.152-.2-.645.46-.493.657.152.2.645Z" transform="translate(-489.286 -1229.374)" opacity="0.81" fill="url(#radial-gradient-12)"/>
      <path id="Caminho_289" data-name="Caminho 289" d="M477.458,1217.138l-.609-3.232-3.019,1.792,2.874-1.993-2.871-2.363,3.074,2.174,1.333-2.529-1.1,2.651,3.355.85-3.4-.585Z" transform="translate(-463.812 -1207.008)" fill="#fff" opacity="0.3"/>
      <path id="Caminho_290" data-name="Caminho 290" d="M480.428,1221l-.527-3.094-2.763,1.656,2.666-1.792-2.638-2.084,2.758,1.993,1.154-2.221-1.013,2.318,2.935.685-2.957-.557Z" transform="translate(-466.83 -1211.089)" fill="#fff"/>
    </g>
    <path id="Caminho_291" data-name="Caminho 291" d="M400.395,1395.442c-.024-.8-3.651-3.053-3.846-3.649-.145-.442.241-3.2-.354-4.067a3.625,3.625,0,0,0-2.136-1.614,2.171,2.171,0,0,1-1.069-.653,16.019,16.019,0,0,0-8.159-4.129,11.424,11.424,0,0,0-6.943.827c-.708.336,12.252,16.981,12.463,17.479s1.55,1.489,1.925,1.89a33.05,33.05,0,0,0,7.491-1.723C400.665,1399.434,400.427,1396.483,400.395,1395.442Z" transform="translate(-225.001 -196.502)" opacity="0.51" fill="url(#linear-gradient-7)"/>
    <path id="Caminho_292" data-name="Caminho 292" d="M259.306,1417.525c5.565,3.885,9.039,12.433,6.42,19.441a15.481,15.481,0,0,1-19.6,9.426,16.262,16.262,0,0,1-5.832-3.573C236.311,1438.142,258.341,1416.851,259.306,1417.525Z" transform="translate(-99.084 -229.669)" fill="url(#linear-gradient-22)"/>
    <g id="Grupo_101" data-name="Grupo 101" transform="translate(159.521 1193.746)">
      <path id="Caminho_293" data-name="Caminho 293" d="M469.554,1689.384a19.681,19.681,0,0,0-1.526-1.489c-.341-.273-.832.289-.5.565.354.293,1.177,1.024,1.523,1.392C469.237,1689.686,469.345,1689.589,469.554,1689.384Z" transform="translate(-466.211 -1669.97)" fill="#a85400"/>
      <path id="Caminho_294" data-name="Caminho 294" d="M482.212,1679.538c.089-.11.324-.351.406-.464a14.167,14.167,0,0,0-1.528-1.343c-.155-.1-.576.418-.426.52C480.858,1678.384,481.984,1679.346,482.212,1679.538Z" transform="translate(-478.261 -1660.755)" fill="#a85400"/>
      <path id="Caminho_295" data-name="Caminho 295" d="M492.2,1664.71c.05-.077.28-.407.333-.48a19.607,19.607,0,0,0-1.649-1.2c-.382-.208-.752.314-.388.554C490.927,1663.875,492.067,1664.617,492.2,1664.71Z" transform="translate(-487.119 -1647.317)" fill="#a85400"/>
      <path id="Caminho_296" data-name="Caminho 296" d="M502.86,1647.88c-.025-.047-1.18-.877-1.633-1.207-.352-.257-.678.331-.329.585.453.33,1.588,1.062,1.677,1.138C502.63,1648.309,502.826,1647.945,502.86,1647.88Z" transform="translate(-496.611 -1632.379)" fill="#a85400"/>
      <path id="Caminho_297" data-name="Caminho 297" d="M510.512,1632.459c.026-.054.211-.5.235-.553a15.287,15.287,0,0,0-1.666-1.089c-.379-.216-.662.417-.284.633C509.262,1631.714,510.418,1632.408,510.512,1632.459Z" transform="translate(-503.789 -1617.934)" fill="#a85400"/>
      <path id="Caminho_298" data-name="Caminho 298" d="M518.6,1613.164c-.133-.1-1.143-.811-1.6-1.1-.368-.234-.541.456-.174.689.457.291,1.135.766,1.574,1.084C518.44,1613.708,518.544,1613.352,518.6,1613.164Z" transform="translate(-511.085 -1600.825)" fill="#a85400"/>
      <path id="Caminho_299" data-name="Caminho 299" d="M523.015,1594.275c-.453-.257-1.1-.581-1.571-.816-.389-.192-.57.462-.179.655.464.229,1.514.821,1.64.89C522.944,1594.79,522.989,1594.466,523.015,1594.275Z" transform="translate(-515.124 -1583.869)" fill="#a85400"/>
      <path id="Caminho_300" data-name="Caminho 300" d="M525.179,1572.168a9.308,9.308,0,0,1-1.4-.843c-.353-.256-.691.331-.341.584a12.421,12.421,0,0,0,1.725,1.006C525.17,1572.726,525.179,1572.258,525.179,1572.168Z" transform="translate(-517.169 -1563.654)" fill="#a85400"/>
      <path id="Caminho_301" data-name="Caminho 301" d="M525.133,1551.217c-.46-.293-.87-.58-1.306-.907-.348-.261-.686.325-.341.584.513.385,1.17.822,1.716,1.159C525.2,1551.889,525.159,1551.391,525.133,1551.217Z" transform="translate(-517.217 -1544.483)" fill="#a85400"/>
      <path id="Caminho_302" data-name="Caminho 302" d="M455.65,1703.314c-.212-.227-1.1-1.214-1.329-1.42-.321-.293-.886.158-.564.452.184.168,1.232,1.219,1.358,1.365C455.26,1703.6,455.447,1703.467,455.65,1703.314Z" transform="translate(-453.66 -1682.719)" fill="#a85400"/>
      <path id="Caminho_303" data-name="Caminho 303" d="M524.463,1529.487c-.343-.225-.683-.492-1.072-.767-.354-.251-.58.323-.238.593.444.349,1.46,1.066,1.491,1.075C524.591,1530.092,524.53,1529.78,524.463,1529.487Z" transform="translate(-516.891 -1524.794)" fill="#a85400"/>
      <path id="Caminho_304" data-name="Caminho 304" d="M521.658,1508.76c-.267-.187-.616-.465-.881-.664-.147-.11-.347.546-.19.638.38.22,1.025.65,1.35.894C521.854,1509.353,521.759,1509.033,521.658,1508.76Z" transform="translate(-514.653 -1506.029)" fill="#a85400"/>
      <path id="Caminho_305" data-name="Caminho 305" d="M512.591,1485.271a6.455,6.455,0,0,1-.641-.495c-.326-.291-.534.313-.189.578.407.312,1.2.874,1.3.949C512.98,1486.095,512.687,1485.448,512.591,1485.271Z" transform="translate(-506.492 -1484.699)" fill="#a85400"/>
    </g>
    <g id="Grupo_102" data-name="Grupo 102" transform="translate(131.179 1180.429)">
      <ellipse id="Elipse_19" data-name="Elipse 19" cx="15.896" cy="15.008" rx="15.896" ry="15.008" transform="translate(0 29.782) rotate(-69.514)" fill="url(#linear-gradient-23)"/>
      <path id="Caminho_306" data-name="Caminho 306" d="M194.251,1411.84a14.526,14.526,0,0,1-5.093-.924,14.752,14.752,0,0,1-8.457-8.215,16.822,16.822,0,0,1,7.99-21.385,14.677,14.677,0,0,1,20.229,7.557,16.822,16.822,0,0,1-7.99,21.385A15.126,15.126,0,0,1,194.251,1411.84Zm1.118-31.6a14.616,14.616,0,0,0-6.455,1.529,16.315,16.315,0,0,0-7.746,20.733,14.17,14.17,0,0,0,19.537,7.3,16.315,16.315,0,0,0,7.746-20.733,14.25,14.25,0,0,0-8.167-7.936A14.014,14.014,0,0,0,195.369,1380.243Z" transform="translate(-175.187 -1375.644)" fill="url(#linear-gradient-24)"/>
    </g>
    <g id="Grupo_103" data-name="Grupo 103" transform="translate(138.608 1188.03)">
      <path id="Caminho_307" data-name="Caminho 307" d="M227.451,1445.088a11.454,11.454,0,0,1-4.02-.727,11.7,11.7,0,0,1-6.707-6.513,13.092,13.092,0,0,1-.149-9.706c2.469-6.609,9.561-10.086,15.811-7.751a11.7,11.7,0,0,1,6.707,6.514,13.092,13.092,0,0,1,.149,9.706A12.79,12.79,0,0,1,227.451,1445.088Zm.915-24.748a12.112,12.112,0,0,0-11.157,8.038,12.419,12.419,0,0,0,.139,9.207,11.028,11.028,0,0,0,6.32,6.143,10.785,10.785,0,0,0,3.784.684,12.111,12.111,0,0,0,11.157-8.038,12.418,12.418,0,0,0-.139-9.207,11.029,11.029,0,0,0-6.32-6.143A10.786,10.786,0,0,0,228.365,1420.34Z" transform="translate(-215.716 -1419.663)" fill="url(#linear-gradient-25)"/>
    </g>
    <g id="Grupo_105" data-name="Grupo 105" transform="translate(143.495 1189.84)">
      <path id="Caminho_308" data-name="Caminho 308" d="M287.316,1449.214a5.392,5.392,0,0,0-2.611-3.5c.072-.495.444-1.022.141-1.649-.31-.642-3.321-1.272-3.949-.7-.561.508-.359.962-.439,1.727a6.682,6.682,0,0,0-1.958.705,4.913,4.913,0,0,0-2.594,3.913,4.361,4.361,0,0,0,2.315,3.717,16.726,16.726,0,0,0,2.107,1.112c.322.152,3.672,1.536,3.489,3a2.248,2.248,0,0,1-2.6,1.678,2.876,2.876,0,0,1-2.733-2.9,2.077,2.077,0,0,0-1.912-1.977,2,2,0,0,0-2.291,1.522,5.746,5.746,0,0,0,3.9,6.263c.114.045-.347.968.007,1.373.553.635,2.759.952,3.836.574.528-.185.436-.867.5-1.423a7.156,7.156,0,0,0,4.088-1.859,4.972,4.972,0,0,0,1.466-3.56,4.447,4.447,0,0,0-2.189-3.922c-1.2-.82-4.8-2.133-5.368-3.149a1.188,1.188,0,0,1,1.263-1.763,1.587,1.587,0,0,1,1.464,1.274c.531,2.237,4.6,1.8,4.07-.455Z" transform="translate(-273.954 -1442.882)" fill="url(#linear-gradient-26)"/>
      <g id="Grupo_104" data-name="Grupo 104" transform="translate(0 0)">
        <path id="Caminho_309" data-name="Caminho 309" d="M278.2,1461.862a4.329,4.329,0,0,1-2.844-.82c-.317-.365-.176-.949-.092-1.3l.018-.074a5.976,5.976,0,0,1-3.892-6.474,2.24,2.24,0,0,1,2.569-1.732,2.328,2.328,0,0,1,2.138,2.236,2.621,2.621,0,0,0,2.505,2.636,2.013,2.013,0,0,0,2.32-1.457c.044-.355-.182-1.327-3.236-2.691l-.109-.049-.113-.053a16.031,16.031,0,0,1-2.026-1.077c-1.657-1.1-2.5-2.46-2.428-3.94a5.174,5.174,0,0,1,2.724-4.124,6.875,6.875,0,0,1,1.843-.693c.007-.122.007-.236.008-.348a1.571,1.571,0,0,1,.5-1.357c.519-.469,1.921-.24,2.338-.159s1.739.379,2.01.94a1.765,1.765,0,0,1-.013,1.4c-.026.082-.051.161-.071.237a5.634,5.634,0,0,1,2.572,3.573h0a1.774,1.774,0,0,1-1.5,2.16,2.439,2.439,0,0,1-3.064-1.588,1.341,1.341,0,0,0-1.241-1.08,1,1,0,0,0-1,.4.963.963,0,0,0-.023.986c.324.577,1.953,1.363,3.261,1.994a18.372,18.372,0,0,1,2.029,1.07,4.723,4.723,0,0,1,2.3,4.13,5.2,5.2,0,0,1-1.543,3.744,7.373,7.373,0,0,1-4.028,1.9c0,.043,0,.087-.007.13-.026.492-.057,1.1-.642,1.309A4.006,4.006,0,0,1,278.2,1461.862Zm-4.541-9.906a1.7,1.7,0,0,0-1.768,1.325,5.507,5.507,0,0,0,3.743,5.984c.245.1.183.351.123.6s-.164.678-.019.845a4.642,4.642,0,0,0,3.561.5c.237-.083.276-.337.3-.857.006-.12.013-.24.025-.354l.022-.2.2-.026a6.922,6.922,0,0,0,3.943-1.789,4.69,4.69,0,0,0,1.389-3.377,4.2,4.2,0,0,0-2.079-3.714,18.193,18.193,0,0,0-1.964-1.032c-1.514-.731-3.08-1.486-3.482-2.2a1.476,1.476,0,0,1,.04-1.511,1.506,1.506,0,0,1,1.468-.629,1.849,1.849,0,0,1,1.688,1.472,1.941,1.941,0,0,0,2.452,1.208,1.273,1.273,0,0,0,1.123-1.549,5.127,5.127,0,0,0-2.488-3.342l-.152-.085.025-.173a3.124,3.124,0,0,1,.124-.48,1.3,1.3,0,0,0,.04-1.022,3.056,3.056,0,0,0-1.651-.662,2.94,2.94,0,0,0-1.9.037,1.08,1.08,0,0,0-.332.985,5.749,5.749,0,0,1-.025.581l-.02.187-.185.036a6.393,6.393,0,0,0-1.883.678,4.658,4.658,0,0,0-2.463,3.7,4.19,4.19,0,0,0,2.2,3.494,15.647,15.647,0,0,0,1.962,1.041l.113.053.1.045c2.473,1.1,3.662,2.187,3.533,3.217a2.481,2.481,0,0,1-2.875,1.9,3.118,3.118,0,0,1-2.96-3.155,1.838,1.838,0,0,0-1.686-1.718A2.3,2.3,0,0,0,273.66,1451.956Z" transform="translate(-271.312 -1440.261)" fill="url(#linear-gradient-27)"/>
      </g>
    </g>
    <path id="Caminho_310" data-name="Caminho 310" d="M183.006,1560.143l-.074-.063a2.8,2.8,0,0,0-1.083-.525,3.263,3.263,0,0,0-2.41.252,15.545,15.545,0,0,0,9.724,14.959c7.765,2.9,16.877-1.563,19.949-9.787a17.324,17.324,0,0,0,1.067-5.172,4.215,4.215,0,0,0-2.794-.332,3.3,3.3,0,0,0-.708.44l-.007,0c-.245.152-.456.424-.734.5-1.268.343-3.547.624-4.851,0-.458-.219-.79-.333-1.264-.513-1.569,1.34-4.782,1.133-5.945.366-.333.188-.362.362-.542.614a1.2,1.2,0,0,1-1.349.36c-.779,1.366-3.687,1.253-3.97.3a8.929,8.929,0,0,1-4.088-.749A10.023,10.023,0,0,1,183.006,1560.143Zm22.908,4.469a12.875,12.875,0,0,1-5.049,5.995c-.329.24-.643-.308-.318-.545a12.237,12.237,0,0,0,4.759-5.618C205.452,1564.071,206.062,1564.235,205.913,1564.613Z" transform="translate(-44.013 -359.066)" fill="#bc5e00" opacity="0.12"/>
    <g id="Grupo_106" data-name="Grupo 106" transform="translate(136.347 1180.276)">
      <path id="Caminho_311" data-name="Caminho 311" d="M231.271,1387.538c-3.052.94-6.812,2.487-8.558,5.331-1.027,1.674,1.335,3.088,2.618,1.609a12.6,12.6,0,0,1,2.811-2.357,12.9,12.9,0,0,1,3.943-1.57C234.013,1390.072,233.15,1386.959,231.271,1387.538Z" transform="translate(-219.607 -1382.542)" fill="#fffb7b" opacity="0.8"/>
      <path id="Caminho_312" data-name="Caminho 312" d="M250.627,1381.8l-2.893-1.286-.333-3.148,2.56-1.863,2.893,1.286.333,3.148Z" transform="translate(-242.355 -1371.629)" fill="#fffccc" opacity="0.47"/>
      <path id="Caminho_313" data-name="Caminho 313" d="M267.639,1397.9l-1.576-.068-.729-1.4.846-1.331,1.576.068.729,1.4Z" transform="translate(-258.712 -1389.507)" opacity="0.81" fill="url(#radial-gradient-13)"/>
      <path id="Caminho_314" data-name="Caminho 314" d="M436.75,1638.751l-1.556.776-1.45-.96.106-1.736,1.556-.776,1.45.96Z" transform="translate(-412.321 -1609.283)" fill="#fffda9" opacity="0.22"/>
      <path id="Caminho_315" data-name="Caminho 315" d="M438.75,1644.207l-1.211-.22-.415-1.159.8-.938,1.211.22.415,1.159Z" transform="translate(-415.404 -1614.605)" opacity="0.47" fill="url(#radial-gradient-14)"/>
      <path id="Caminho_316" data-name="Caminho 316" d="M446.146,1649.124l-.6.119-.4-.461.2-.58.6-.119.4.461Z" transform="translate(-422.716 -1620.253)" fill="url(#radial-gradient-15)"/>
      <path id="Caminho_317" data-name="Caminho 317" d="M200.814,1345.91l-2.789-7.167-6.168,5.417,5.748-5.816-7.615-4.2,8,3.676,1.976-6.385L198.574,1338l7.787,1.139-7.775-.511Z" transform="translate(-189.991 -1331.439)" fill="#fff" opacity="0.3"/>
      <path id="Caminho_318" data-name="Caminho 318" d="M209.349,1355.61l-2.542-6.885-5.638,4.993,5.357-5.264-6.958-3.656,7.195,3.4,1.7-5.6-1.332,5.762,7.04.313-7.035-.009Z" transform="translate(-198.726 -1341.613)" fill="#fff"/>
      <path id="Caminho_319" data-name="Caminho 319" d="M330.177,1456.989l-1.289-.414-.286-1.323,1-.909,1.289.414.286,1.323Z" transform="translate(-316.42 -1443.54)" fill="#fffccc" opacity="0.47"/>
      <path id="Caminho_320" data-name="Caminho 320" d="M337.9,1463.419l-.673.043-.374-.561.3-.6.673-.044.374.561Z" transform="translate(-323.942 -1450.756)" opacity="0.81" fill="url(#radial-gradient-16)"/>
      <path id="Caminho_321" data-name="Caminho 321" d="M307.752,1440.483l-1.515-2.92-2.374,2.587,2.178-2.737-3.43-1.435,3.571,1.2.547-2.806-.291,2.856,3.363.127-3.329.139Z" transform="translate(-292.712 -1425.322)" fill="#fff" opacity="0.3"/>
      <path id="Caminho_322" data-name="Caminho 322" d="M311.587,1444.731l-1.4-2.811-2.168,2.382,2.036-2.484-3.126-1.236,3.215,1.114.465-2.46-.3,2.511,3.008-.19-2.992.319Z" transform="translate(-296.654 -1429.763)" fill="#fff"/>
    </g>
  </g>
</svg>
