<svg xmlns="http://www.w3.org/2000/svg" xmlns:xlink="http://www.w3.org/1999/xlink" width="35.729" height="36.678" viewBox="0 0 35.729 36.678">
  <defs>
    <linearGradient id="linear-gradient" x1="0.505" y1="0.169" x2="0.497" y2="0.903" gradientUnits="objectBoundingBox">
      <stop offset="0" stop-color="#db9200"/>
      <stop offset="1" stop-color="#a85400"/>
    </linearGradient>
    <linearGradient id="linear-gradient-2" x1="0.359" y1="0.082" x2="0.654" y2="0.958" gradientUnits="objectBoundingBox">
      <stop offset="0" stop-color="#fcee2a"/>
      <stop offset="1" stop-color="#e69d00"/>
    </linearGradient>
    <linearGradient id="linear-gradient-3" x1="0.249" y1="0.088" x2="0.75" y2="0.911" gradientUnits="objectBoundingBox">
      <stop offset="0" stop-color="#fcff6e"/>
      <stop offset="0.99" stop-color="#d17700"/>
    </linearGradient>
    <linearGradient id="linear-gradient-4" x1="0.871" y1="0.813" x2="0.138" y2="0.195" gradientUnits="objectBoundingBox">
      <stop offset="0" stop-color="#fae647"/>
      <stop offset="1" stop-color="#c46500"/>
    </linearGradient>
    <linearGradient id="linear-gradient-5" x1="0.392" y1="0.432" x2="0.934" y2="0.718" gradientUnits="objectBoundingBox">
      <stop offset="0" stop-color="#fcee2a"/>
      <stop offset="0.995" stop-color="#e69d00"/>
    </linearGradient>
    <linearGradient id="linear-gradient-6" x1="0.264" y1="0.408" x2="0.639" y2="0.544" gradientUnits="objectBoundingBox">
      <stop offset="0" stop-color="#fffb7b"/>
      <stop offset="0.507" stop-color="#e69d00"/>
      <stop offset="1" stop-color="#a85400"/>
    </linearGradient>
  </defs>
  <g id="Grupo_71" data-name="Grupo 71" transform="translate(-319.472 -224.671)">
    <path id="Caminho_77" data-name="Caminho 77" d="M445.853,309.009c5.066,3.537,8.229,11.319,5.845,17.7a14.094,14.094,0,0,1-17.848,8.581,14.8,14.8,0,0,1-5.31-3.253C424.918,327.78,444.974,308.4,445.853,309.009Z" transform="translate(-99.939 -77.577)" fill="url(#linear-gradient)"/>
    <g id="Grupo_59" data-name="Grupo 59" transform="translate(345.275 236.794)">
      <path id="Caminho_78" data-name="Caminho 78" d="M657.656,580.73a17.848,17.848,0,0,0-1.389-1.355c-.31-.249-.757.263-.452.515.322.267,1.072.933,1.387,1.267C657.367,581.005,657.465,580.916,657.656,580.73Z" transform="translate(-654.612 -563.055)" fill="#a85400"/>
      <path id="Caminho_79" data-name="Caminho 79" d="M670.364,570.86c.081-.1.3-.319.37-.423a12.917,12.917,0,0,0-1.391-1.222c-.141-.091-.525.381-.388.474C669.131,569.809,670.156,570.685,670.364,570.86Z" transform="translate(-666.767 -553.759)" fill="#a85400"/>
      <path id="Caminho_80" data-name="Caminho 80" d="M680.324,556.042c.045-.07.255-.371.3-.437a17.8,17.8,0,0,0-1.5-1.088c-.348-.19-.684.286-.353.5C679.168,555.281,680.206,555.957,680.324,556.042Z" transform="translate(-675.701 -540.207)" fill="#a85400"/>
      <path id="Caminho_81" data-name="Caminho 81" d="M690.964,539.252c-.022-.043-1.074-.8-1.486-1.1-.321-.234-.617.3-.3.532.412.3,1.446.967,1.527,1.036C690.754,539.643,690.933,539.311,690.964,539.252Z" transform="translate(-685.275 -525.14)" fill="#a85400"/>
      <path id="Caminho_82" data-name="Caminho 82" d="M698.636,523.793c.024-.049.192-.452.214-.5a13.919,13.919,0,0,0-1.517-.992c-.345-.2-.6.379-.258.576C697.5,523.115,698.55,523.747,698.636,523.793Z" transform="translate(-692.514 -510.57)" fill="#a85400"/>
      <path id="Caminho_83" data-name="Caminho 83" d="M706.712,504.547c-.121-.091-1.04-.738-1.457-1-.335-.213-.493.415-.159.627.416.265,1.033.7,1.433.987C706.57,505.042,706.664,504.718,706.712,504.547Z" transform="translate(-699.874 -493.313)" fill="#a85400"/>
      <path id="Caminho_84" data-name="Caminho 84" d="M711.131,485.684c-.412-.234-1-.529-1.431-.743-.354-.175-.519.421-.163.6.422.208,1.378.747,1.493.811C711.067,486.153,711.108,485.858,711.131,485.684Z" transform="translate(-703.947 -476.21)" fill="#a85400"/>
      <path id="Caminho_85" data-name="Caminho 85" d="M713.3,463.573a8.48,8.48,0,0,1-1.277-.767c-.321-.233-.629.3-.311.532a11.3,11.3,0,0,0,1.57.916C713.3,464.081,713.3,463.655,713.3,463.573Z" transform="translate(-706.01 -455.822)" fill="#a85400"/>
      <path id="Caminho_86" data-name="Caminho 86" d="M713.265,442.616c-.419-.267-.792-.528-1.189-.826-.317-.238-.624.3-.311.532.467.351,1.065.748,1.562,1.055C713.322,443.228,713.289,442.774,713.265,442.616Z" transform="translate(-706.059 -436.485)" fill="#a85400"/>
      <path id="Caminho_87" data-name="Caminho 87" d="M643.764,594.664c-.193-.207-1.005-1.105-1.21-1.293-.292-.267-.807.144-.513.411.168.153,1.122,1.109,1.236,1.242C643.41,594.927,643.58,594.8,643.764,594.664Z" transform="translate(-641.953 -575.914)" fill="#a85400"/>
      <path id="Caminho_88" data-name="Caminho 88" d="M712.624,420.9c-.312-.205-.621-.448-.976-.7-.322-.228-.528.294-.216.54.4.318,1.329.97,1.358.979C712.74,421.449,712.684,421.165,712.624,420.9Z" transform="translate(-705.73 -416.626)" fill="#a85400"/>
      <path id="Caminho_89" data-name="Caminho 89" d="M709.85,400.186c-.243-.171-.561-.423-.8-.6-.134-.1-.316.5-.172.58.346.2.933.592,1.229.814C710.028,400.725,709.942,400.434,709.85,400.186Z" transform="translate(-703.472 -397.699)" fill="#a85400"/>
      <path id="Caminho_90" data-name="Caminho 90" d="M700.793,376.705a5.9,5.9,0,0,1-.584-.45c-.3-.265-.486.285-.172.526.37.284,1.088.8,1.185.864C701.148,377.456,700.881,376.867,700.793,376.705Z" transform="translate(-695.241 -376.185)" fill="#a85400"/>
    </g>
    <g id="Grupo_60" data-name="Grupo 60" transform="translate(319.472 224.671)">
      <ellipse id="Elipse_13" data-name="Elipse 13" cx="14.472" cy="13.664" rx="14.472" ry="13.664" transform="translate(0 27.114) rotate(-69.514)" fill="url(#linear-gradient-2)"/>
      <path id="Caminho_91" data-name="Caminho 91" d="M381.217,300.449a13.224,13.224,0,0,1-4.637-.841,13.431,13.431,0,0,1-7.7-7.479,15.315,15.315,0,0,1,7.274-19.469,13.362,13.362,0,0,1,18.416,6.88A15.315,15.315,0,0,1,387.3,299.01,13.769,13.769,0,0,1,381.217,300.449Zm1.018-28.766a13.306,13.306,0,0,0-5.877,1.392,14.853,14.853,0,0,0-7.052,18.875,12.9,12.9,0,0,0,17.787,6.645,14.853,14.853,0,0,0,7.052-18.875,12.973,12.973,0,0,0-7.435-7.225A12.758,12.758,0,0,0,382.235,271.683Z" transform="translate(-363.861 -267.496)" fill="url(#linear-gradient-3)"/>
    </g>
    <g id="Grupo_61" data-name="Grupo 61" transform="translate(326.236 231.59)">
      <path id="Caminho_92" data-name="Caminho 92" d="M414.693,334.3a10.43,10.43,0,0,1-3.66-.662,10.651,10.651,0,0,1-6.106-5.93,11.919,11.919,0,0,1-.136-8.837c2.248-6.017,8.7-9.182,14.395-7.057a10.651,10.651,0,0,1,6.106,5.93,11.919,11.919,0,0,1,.136,8.837A11.644,11.644,0,0,1,414.693,334.3Zm.833-22.531a11.027,11.027,0,0,0-10.157,7.318,11.307,11.307,0,0,0,.127,8.382,10.04,10.04,0,0,0,5.754,5.592,9.823,9.823,0,0,0,3.445.623,11.027,11.027,0,0,0,10.157-7.318,11.306,11.306,0,0,0-.127-8.382,10.04,10.04,0,0,0-5.754-5.592A9.823,9.823,0,0,0,415.525,311.764Z" transform="translate(-404.009 -311.148)" fill="url(#linear-gradient-4)"/>
    </g>
    <g id="Grupo_63" data-name="Grupo 63" transform="translate(330.684 233.238)">
      <path id="Caminho_93" data-name="Caminho 93" d="M474.435,340.155a4.909,4.909,0,0,0-2.377-3.19c.066-.45.4-.93.128-1.5s-3.023-1.158-3.6-.64c-.511.462-.327.875-.4,1.573a6.084,6.084,0,0,0-1.783.642,4.473,4.473,0,0,0-2.361,3.562,3.971,3.971,0,0,0,2.108,3.384A15.235,15.235,0,0,0,468.073,345c.293.138,3.343,1.4,3.177,2.733a2.047,2.047,0,0,1-2.365,1.528,2.618,2.618,0,0,1-2.488-2.636,1.891,1.891,0,0,0-1.741-1.8,1.817,1.817,0,0,0-2.086,1.385,5.231,5.231,0,0,0,3.551,5.7c.1.041-.315.881.006,1.25.5.578,2.512.867,3.492.523.481-.169.4-.789.452-1.3a6.514,6.514,0,0,0,3.721-1.692,4.526,4.526,0,0,0,1.335-3.241,4.049,4.049,0,0,0-1.993-3.571c-1.094-.747-4.368-1.942-4.887-2.867a1.081,1.081,0,0,1,1.15-1.6,1.444,1.444,0,0,1,1.333,1.16c.484,2.037,4.192,1.635,3.705-.414Z" transform="translate(-462.27 -334.39)" fill="url(#linear-gradient-5)"/>
      <g id="Grupo_62" data-name="Grupo 62" transform="translate(0 0)">
        <path id="Caminho_94" data-name="Caminho 94" d="M465.877,351.412a3.941,3.941,0,0,1-2.589-.747c-.289-.332-.16-.864-.083-1.181l.016-.067a5.441,5.441,0,0,1-3.543-5.894,2.04,2.04,0,0,1,2.338-1.576,2.12,2.12,0,0,1,1.947,2.036,2.386,2.386,0,0,0,2.281,2.4,1.833,1.833,0,0,0,2.112-1.326c.04-.323-.166-1.209-2.946-2.45l-.1-.045-.1-.048a14.6,14.6,0,0,1-1.845-.98,4.15,4.15,0,0,1-2.211-3.587,4.711,4.711,0,0,1,2.48-3.754,6.259,6.259,0,0,1,1.677-.63c.006-.111.007-.215.007-.317a1.43,1.43,0,0,1,.454-1.236c.472-.427,1.749-.219,2.128-.145s1.584.345,1.83.856a1.607,1.607,0,0,1-.011,1.271c-.023.074-.046.146-.064.216a5.129,5.129,0,0,1,2.342,3.253h0a1.615,1.615,0,0,1-1.365,1.966,2.22,2.22,0,0,1-2.789-1.446,1.221,1.221,0,0,0-1.13-.983.912.912,0,0,0-.906.364.876.876,0,0,0-.021.9c.3.526,1.778,1.241,2.969,1.816a16.746,16.746,0,0,1,1.848.974,4.3,4.3,0,0,1,2.094,3.76,4.733,4.733,0,0,1-1.4,3.408,6.712,6.712,0,0,1-3.667,1.729c0,.039,0,.079-.006.119-.023.448-.052,1.006-.584,1.192A3.649,3.649,0,0,1,465.877,351.412Zm-4.134-9.018a1.547,1.547,0,0,0-1.61,1.206,5.014,5.014,0,0,0,3.408,5.448c.223.088.167.32.112.544s-.149.617-.017.77a4.225,4.225,0,0,0,3.242.457c.216-.076.251-.307.276-.78.006-.109.012-.218.023-.322l.02-.181.18-.023a6.3,6.3,0,0,0,3.59-1.629,4.27,4.27,0,0,0,1.265-3.075,3.827,3.827,0,0,0-1.892-3.381,16.541,16.541,0,0,0-1.788-.939c-1.379-.665-2.8-1.353-3.17-2.005a1.343,1.343,0,0,1,.036-1.375,1.371,1.371,0,0,1,1.336-.572,1.683,1.683,0,0,1,1.537,1.34,1.767,1.767,0,0,0,2.233,1.1,1.159,1.159,0,0,0,1.023-1.41,4.668,4.668,0,0,0-2.265-3.042l-.139-.078.023-.157a2.839,2.839,0,0,1,.113-.437,1.183,1.183,0,0,0,.036-.931,2.78,2.78,0,0,0-1.5-.6,2.676,2.676,0,0,0-1.73.034.983.983,0,0,0-.3.9,5.262,5.262,0,0,1-.023.529l-.018.17-.168.033a5.82,5.82,0,0,0-1.714.617,4.241,4.241,0,0,0-2.242,3.371,3.815,3.815,0,0,0,2,3.181,14.268,14.268,0,0,0,1.787.947l.1.049.091.041c2.251,1.005,3.333,1.991,3.216,2.929a2.259,2.259,0,0,1-2.617,1.729,2.838,2.838,0,0,1-2.7-2.872,1.673,1.673,0,0,0-1.535-1.564A2.084,2.084,0,0,0,461.743,342.394Z" transform="translate(-459.606 -331.747)" fill="url(#linear-gradient-6)"/>
      </g>
    </g>
  </g>
</svg>
