<svg xmlns="http://www.w3.org/2000/svg" xmlns:xlink="http://www.w3.org/1999/xlink" width="58.583" height="41.636" viewBox="0 0 58.583 41.636">
  <defs>
    <linearGradient id="linear-gradient" y1="0.5" x2="1" y2="0.5" gradientUnits="objectBoundingBox">
      <stop offset="0" stop-color="#db9200"/>
      <stop offset="1" stop-color="#a85400"/>
    </linearGradient>
    <linearGradient id="linear-gradient-2" x1="0.359" y1="0.108" x2="0.643" y2="0.896" gradientUnits="objectBoundingBox">
      <stop offset="0" stop-color="#fcee2a"/>
      <stop offset="1" stop-color="#e69d00"/>
    </linearGradient>
    <linearGradient id="linear-gradient-3" x1="0.465" y1="0.006" x2="0.529" y2="0.902" gradientUnits="objectBoundingBox">
      <stop offset="0" stop-color="#fcff6e"/>
      <stop offset="0.99" stop-color="#d17700"/>
    </linearGradient>
    <linearGradient id="linear-gradient-4" x1="0.634" y1="0.924" x2="0.337" y2="-0.017" gradientUnits="objectBoundingBox">
      <stop offset="0" stop-color="#fae647"/>
      <stop offset="1" stop-color="#c46500"/>
    </linearGradient>
    <linearGradient id="linear-gradient-5" x1="0.479" y1="0.213" x2="0.526" y2="0.884" gradientUnits="objectBoundingBox">
      <stop offset="0" stop-color="#fcee2a"/>
      <stop offset="0.995" stop-color="#e69d00"/>
    </linearGradient>
    <linearGradient id="linear-gradient-6" x1="-5.038" y1="4.575" x2="-4.671" y2="4.575" gradientUnits="objectBoundingBox">
      <stop offset="0" stop-color="#fffb7b"/>
      <stop offset="0.507" stop-color="#e69d00"/>
      <stop offset="1" stop-color="#a85400"/>
    </linearGradient>
    <radialGradient id="radial-gradient" cx="1427.211" cy="399.446" r="1.3" gradientTransform="matrix(0.48, 0.654, -0.654, 0.48, 1.195, -0.317)" gradientUnits="userSpaceOnUse">
      <stop offset="0" stop-color="#fff"/>
      <stop offset="1" stop-color="#fffccc"/>
    </radialGradient>
    <radialGradient id="radial-gradient-2" cx="1643.673" cy="518.473" r="0.826" gradientTransform="matrix(1.074, 0.323, -0.323, 1.074, 0.247, -0.348)" gradientUnits="userSpaceOnUse">
      <stop offset="0" stop-color="#fff"/>
      <stop offset="0.99" stop-color="#fced92"/>
    </radialGradient>
    <radialGradient id="radial-gradient-3" cx="1648.705" cy="524.088" r="0.505" gradientTransform="matrix(0.876, 0.264, -0.264, 0.876, 0.174, -0.072)" gradientUnits="userSpaceOnUse">
      <stop offset="0" stop-color="#fff"/>
      <stop offset="1" stop-color="#fffdb6"/>
    </radialGradient>
    <radialGradient id="radial-gradient-4" cx="1510.352" cy="428.483" r="0.639" gradientTransform="matrix(0.895, 0.403, -0.403, 0.895, 0.317, -0.19)" xlink:href="#radial-gradient"/>
    <linearGradient id="linear-gradient-7" x1="0.332" y1="0.726" x2="0.765" y2="0.167" gradientUnits="objectBoundingBox">
      <stop offset="0.01" stop-color="#662900"/>
      <stop offset="1" stop-color="#d17700"/>
    </linearGradient>
    <linearGradient id="linear-gradient-8" x1="0.47" y1="0.114" x2="0.463" y2="0.91" xlink:href="#linear-gradient"/>
    <linearGradient id="linear-gradient-9" x1="0.284" y1="0.104" x2="0.578" y2="0.981" xlink:href="#linear-gradient-2"/>
    <linearGradient id="linear-gradient-10" x1="0.175" y1="0.104" x2="0.67" y2="0.936" xlink:href="#linear-gradient-3"/>
    <linearGradient id="linear-gradient-11" x1="0.771" y1="0.844" x2="0.046" y2="0.218" xlink:href="#linear-gradient-4"/>
    <linearGradient id="linear-gradient-12" x1="0.253" y1="0.461" x2="0.766" y2="0.755" xlink:href="#linear-gradient-5"/>
    <linearGradient id="linear-gradient-13" x1="0.137" y1="0.435" x2="0.493" y2="0.576" xlink:href="#linear-gradient-6"/>
    <radialGradient id="radial-gradient-5" cx="1246.706" cy="291.137" r="1.451" gradientTransform="matrix(0.898, 0.464, -0.464, 0.898, 0.834, -0.527)" xlink:href="#radial-gradient"/>
    <radialGradient id="radial-gradient-6" cx="1356.062" cy="571.071" r="1.05" gradientTransform="matrix(1.057, 0.257, -0.257, 1.057, 0.241, -0.347)" xlink:href="#radial-gradient-2"/>
    <radialGradient id="radial-gradient-7" cx="1362.539" cy="578.034" r="0.642" gradientTransform="matrix(0.862, 0.21, -0.21, 0.862, 0.191, -0.052)" xlink:href="#radial-gradient-3"/>
    <radialGradient id="radial-gradient-8" cx="1301.361" cy="371.417" r="0.658" gradientTransform="matrix(0.889, 0.344, -0.344, 0.889, 0.281, -0.153)" xlink:href="#radial-gradient"/>
  </defs>
  <g id="Grupo_84" data-name="Grupo 84" transform="translate(-1053.079 -225.436)">
    <g id="Grupo_77" data-name="Grupo 77" transform="translate(1077.097 236.681)">
      <path id="Caminho_105" data-name="Caminho 105" d="M1353.633,462.435c-9.545,0-17.283-3.44-17.283-7.684v-3.971c2.529-2.849,9.976-3.713,17.283-3.713,6.924,0,14.525,1.257,17.283,3.871v3.814C1370.916,458.994,1363.178,462.435,1353.633,462.435Z" transform="translate(-1336.35 -439.52)" fill="url(#linear-gradient)"/>
      <path id="Caminho_106" data-name="Caminho 106" d="M1339.777,498.959a.34.34,0,0,0,.024-.139q-.087-3.01-.174-6.021c-.013-.436-.691-.437-.678,0q.074,2.553.148,5.105A5.5,5.5,0,0,0,1339.777,498.959Z" transform="translate(-1338.728 -481.076)" fill="#a85400"/>
      <path id="Caminho_107" data-name="Caminho 107" d="M1354.042,523.833a8.157,8.157,0,0,0,.727.612c-.007-.048-.01-.1-.014-.145a47.521,47.521,0,0,1-.184-5,.339.339,0,0,0-.678,0q-.036,2.255.143,4.5S1354.041,523.832,1354.042,523.833Z" transform="translate(-1352.399 -505.328)" fill="#a85400"/>
      <path id="Caminho_108" data-name="Caminho 108" d="M1372.59,539.554c-.1-1.575-.135-3.173-.095-4.752a.339.339,0,0,0-.678,0c-.038,1.454-.015,2.883.07,4.334C1371.969,539.2,1372.376,539.433,1372.59,539.554Z" transform="translate(-1368.795 -519.517)" fill="#a85400"/>
      <path id="Caminho_109" data-name="Caminho 109" d="M1392.111,549.454c0-.006,0-.072,0-.078V544.8a.339.339,0,0,0-.678,0v4.352C1391.669,549.259,1391.878,549.353,1392.111,549.454Z" transform="translate(-1386.763 -528.665)" fill="#a85400"/>
      <path id="Caminho_110" data-name="Caminho 110" d="M1412.116,556.287c.213.071.454.154.671.225,0-.069.005-.154.007-.219q.058-2.247.021-4.494a.339.339,0,0,0-.678,0Q1412.174,554.044,1412.116,556.287Z" transform="translate(-1405.692 -535.074)" fill="#a85400"/>
      <path id="Caminho_111" data-name="Caminho 111" d="M1433.083,564.328l-.008-4.531a.339.339,0,0,0-.678,0l.008,4.352C1432.627,564.21,1432.854,564.27,1433.083,564.328Z" transform="translate(-1424.254 -542.394)" fill="#a85400"/>
      <path id="Caminho_112" data-name="Caminho 112" d="M1451.5,569.258l-.057-4.458a.339.339,0,0,0-.678,0c.018,1.43.038,2.892.057,4.322C1451.041,569.176,1451.267,569.216,1451.5,569.258Z" transform="translate(-1441.059 -546.972)" fill="#a85400"/>
      <path id="Caminho_113" data-name="Caminho 113" d="M1470.875,574.466c.226.036.442.068.676.1.008-.138.007-.359.007-.383q0-.253,0-.507,0-.549,0-1.1.006-1.14.034-2.279a.339.339,0,0,0-.678,0q-.032,1.351-.035,2.7,0,.675.006,1.351C1470.881,574.376,1470.875,574.443,1470.875,574.466Z" transform="translate(-1459.469 -552.006)" fill="#a85400"/>
      <path id="Caminho_114" data-name="Caminho 114" d="M1490.819,577.978a41.57,41.57,0,0,1,.14-4.161c.036-.435-.642-.432-.678,0-.113,1.347-.163,2.741-.143,4.092C1490.361,577.93,1490.586,577.956,1490.819,577.978Z" transform="translate(-1477.094 -555.226)" fill="#a85400"/>
      <path id="Caminho_115" data-name="Caminho 115" d="M1510.959,578.529q.023-2.116.046-4.232a.339.339,0,0,0-.678,0c-.015,1.391-.03,2.809-.045,4.2C1510.52,578.511,1510.729,578.523,1510.959,578.529Z" transform="translate(-1495.534 -555.663)" fill="#a85400"/>
      <path id="Caminho_116" data-name="Caminho 116" d="M1534.675,579.091a28.624,28.624,0,0,1,.061-4.237c.038-.435-.64-.432-.678,0a28.736,28.736,0,0,0-.059,4.234Z" transform="translate(-1517.194 -556.175)" fill="#a85400"/>
      <path id="Caminho_117" data-name="Caminho 117" d="M1556.078,578.53c-.014-1.416-.016-2.816,0-4.232a.339.339,0,0,0-.678,0c-.011,1.415-.009,2.846,0,4.26C1555.459,578.556,1555.857,578.54,1556.078,578.53Z" transform="translate(-1536.816 -555.665)" fill="#a85400"/>
      <path id="Caminho_118" data-name="Caminho 118" d="M1579.283,576.555q-.087-2.122,0-4.247c.018-.436-.661-.436-.678,0-.058,1.432-.055,2.879,0,4.311C1578.826,576.6,1579.056,576.578,1579.283,576.555Z" transform="translate(-1558.026 -553.844)" fill="#a85400"/>
      <path id="Caminho_119" data-name="Caminho 119" d="M1598.587,574.949c-.083-1.386-.13-2.762-.141-4.151a.339.339,0,0,0-.678,0q.016,2.125.147,4.246C1597.98,575.039,1598.424,574.974,1598.587,574.949Z" transform="translate(-1575.603 -552.462)" fill="#a85400"/>
      <path id="Caminho_120" data-name="Caminho 120" d="M1617.593,571.906c-.1-1.354-.161-2.747-.186-4.1a.339.339,0,0,0-.678,0c.026,1.41.093,2.83.2,4.236C1617.153,572,1617.378,571.951,1617.593,571.906Z" transform="translate(-1592.957 -549.719)" fill="#a85400"/>
      <path id="Caminho_121" data-name="Caminho 121" d="M1640.748,567.294a33.076,33.076,0,0,1-.229-3.989c.018-.437-.66-.436-.678,0a36.172,36.172,0,0,0,.243,4.171Z" transform="translate(-1614.1 -545.604)" fill="#a85400"/>
      <path id="Caminho_122" data-name="Caminho 122" d="M1661.98,560.779a30.039,30.039,0,0,1-.127-3.98c.015-.437-.663-.436-.678,0a30.31,30.31,0,0,0,.154,4.21C1661.549,560.934,1661.754,560.861,1661.98,560.779Z" transform="translate(-1633.619 -539.65)" fill="#a85400"/>
      <path id="Caminho_123" data-name="Caminho 123" d="M1680.563,553.073c.028-.009.473-.213.667-.3-.049-1.319-.1-2.646-.147-3.965-.016-.435-.694-.437-.678,0l.154,4.155C1680.56,552.991,1680.559,553.035,1680.563,553.073Z" transform="translate(-1651.234 -532.332)" fill="#a85400"/>
      <path id="Caminho_124" data-name="Caminho 124" d="M1701.31,546.268c.005,0,.535-.322.667-.418-.032-1.178-.064-2.366-.1-3.544a.339.339,0,0,0-.678,0C1701.238,543.592,1701.3,546.236,1701.31,546.268Z" transform="translate(-1670.269 -526.386)" fill="#a85400"/>
      <path id="Caminho_125" data-name="Caminho 125" d="M1717.056,532.436c.2-.172.455-.406.633-.582-.095-1.185-.168-2.356-.22-3.543-.019-.435-.7-.437-.678,0q.084,1.911.242,3.817C1717.04,532.225,1717.046,532.313,1717.056,532.436Z" transform="translate(-1684.534 -513.577)" fill="#a85400"/>
      <g id="Grupo_75" data-name="Grupo 75" transform="translate(0.013 3.202)">
        <ellipse id="Elipse_14" data-name="Elipse 14" cx="17.063" cy="7.684" rx="17.063" ry="7.684" transform="translate(0.212 0.212)" fill="url(#linear-gradient-2)"/>
        <path id="Caminho_126" data-name="Caminho 126" d="M1412.293,416.225c-1.176-.281-2.273.052-2.387,1.009a1.129,1.129,0,0,1-.537.814,5.008,5.008,0,0,1-2.166.726,1.34,1.34,0,0,0-.841.352,13.608,13.608,0,0,1-4.525,2.538,3.1,3.1,0,0,0-1.418.91,7.381,7.381,0,0,1-3.689,2.266,2.166,2.166,0,0,0-1.107.61,4.053,4.053,0,0,1-2.507.936,2.315,2.315,0,0,1-.6-.03c-1.513-.268-2.744-.126-3.477,1.018a29.147,29.147,0,0,0,12.822,2.615c9.424,0,17.063-3.441,17.063-7.684C1418.92,419.83,1416.324,417.63,1412.293,416.225Zm.529,9.253a12.9,12.9,0,0,1-2.618,1.1c-.473.161-.943.332-1.42.48a6.518,6.518,0,0,1-.644.176,2.9,2.9,0,0,0-.573.108c-.325.138-.607-.339-.28-.478a9.623,9.623,0,0,1,1.132-.274c.449-.129.889-.288,1.33-.44a13.977,13.977,0,0,0,2.794-1.151C1412.847,424.813,1413.125,425.292,1412.821,425.478Z" transform="translate(-1384.582 -414.408)" fill="#bc5e00" opacity="0.12"/>
        <g id="Grupo_72" data-name="Grupo 72">
          <path id="Caminho_127" data-name="Caminho 127" d="M1353.783,411.627a30.445,30.445,0,0,1-12.152-2.269c-3.3-1.488-5.123-3.486-5.123-5.627s1.819-4.139,5.123-5.627a33.673,33.673,0,0,1,24.3,0c3.3,1.488,5.123,3.486,5.123,5.627s-1.819,4.139-5.123,5.627A30.445,30.445,0,0,1,1353.783,411.627Zm0-15.369a30.019,30.019,0,0,0-11.978,2.232c-3.142,1.415-4.873,3.276-4.873,5.241s1.731,3.825,4.873,5.24a33.258,33.258,0,0,0,23.957,0c3.142-1.415,4.873-3.276,4.873-5.24s-1.73-3.825-4.873-5.241A30.019,30.019,0,0,0,1353.783,396.258Z" transform="translate(-1336.508 -395.834)" fill="url(#linear-gradient-3)"/>
        </g>
        <g id="Grupo_73" data-name="Grupo 73" transform="translate(3.556 1.652)">
          <path id="Caminho_128" data-name="Caminho 128" d="M1392.071,427.11a25.305,25.305,0,0,1-9.547-1.674c-2.625-1.109-4.071-2.609-4.071-4.223s1.446-3.114,4.071-4.223a28.067,28.067,0,0,1,19.094,0c2.625,1.109,4.071,2.609,4.071,4.223s-1.446,3.114-4.071,4.223A25.3,25.3,0,0,1,1392.071,427.11Zm0-11.27a24.713,24.713,0,0,0-9.318,1.627c-2.414,1.02-3.743,2.35-3.743,3.746s1.329,2.727,3.743,3.746a27.489,27.489,0,0,0,18.636,0c2.414-1.02,3.743-2.35,3.743-3.746s-1.329-2.727-3.743-3.746A24.713,24.713,0,0,0,1392.071,415.84Z" transform="translate(-1378.453 -415.317)" fill="url(#linear-gradient-4)"/>
        </g>
        <path id="Caminho_129" data-name="Caminho 129" d="M1436.4,442.115a6.248,6.248,0,0,0,3.515-1.44,4.3,4.3,0,0,0,1.652.079c.644-.171,1.279-1.834.71-2.182-.508-.31-.963-.2-1.73-.244a2.9,2.9,0,0,0-.7-1.082,6.015,6.015,0,0,0-3.917-1.436,5.528,5.528,0,0,0-3.728,1.277,9.376,9.376,0,0,0-1.117,1.164c-.153.178-1.544,2.028-3.012,1.926-1.179-.082-1.8-.793-1.678-1.436.2-1.053,1.687-1.527,2.905-1.508.954.015,1.863-.45,1.983-1.055.13-.655-.579-1.179-1.522-1.267-2.569-.241-5.141.562-6.281,2.151-.045.063-.969-.192-1.376,0a1.724,1.724,0,0,0-.581,2.119c.185.292.868.241,1.425.275a3.617,3.617,0,0,0,1.857,2.26,7.5,7.5,0,0,0,3.566.813,5.927,5.927,0,0,0,3.933-1.207c.824-.663,2.144-2.65,3.163-2.964.758-.234,1.883.013,1.765.7-.071.413-.545.719-1.279.808-2.242.292-1.806,2.543.45,2.249Z" transform="translate(-1414.165 -431.557)" fill="url(#linear-gradient-5)"/>
        <g id="Grupo_74" data-name="Grupo 74" transform="translate(6.944 3.169)">
          <path id="Caminho_130" data-name="Caminho 130" d="M1418.4,437.008a1.776,1.776,0,0,1,.826-1.571,2.594,2.594,0,0,1,1.3-.05l.074.01c1.181-1.542,3.769-2.4,6.492-2.146,1.127.106,1.873.716,1.732,1.421-.133.668-1.139,1.2-2.243,1.18-1.182-.019-2.471.45-2.645,1.382-.1.56.422,1.211,1.457,1.283.355.025,1.33-.1,2.7-1.786l.05-.06.053-.062a9.049,9.049,0,0,1,1.082-1.119,5.851,5.851,0,0,1,3.951-1.339,6.342,6.342,0,0,1,4.128,1.509,3.05,3.05,0,0,1,.692,1.019c.122,0,.237,0,.349,0a2.428,2.428,0,0,1,1.36.277c.469.287.238,1.062.156,1.292s-.382.961-.944,1.11a3.116,3.116,0,0,1-1.4-.008h0a.506.506,0,0,0-.4.107,6.917,6.917,0,0,1-3.414,1.273h0a1.948,1.948,0,0,1-2.162-.83c-.3-.691.22-1.513,1.6-1.692.619-.075,1.023-.331,1.084-.685.043-.248-.1-.442-.4-.55a1.662,1.662,0,0,0-.988-.013,6.565,6.565,0,0,0-2,1.8,10.35,10.35,0,0,1-1.075,1.121,6.288,6.288,0,0,1-4.142,1.268,7.817,7.817,0,0,1-3.749-.855,3.826,3.826,0,0,1-1.9-2.227l-.131,0c-.493-.015-1.107-.033-1.311-.356A1.317,1.317,0,0,1,1418.4,437.008Zm9.932-2.5c0-.495-.538-.9-1.325-.978-2.534-.238-4.946.591-6,2.064-.1.135-.352.1-.6.068a2.166,2.166,0,0,0-.847-.011,1.641,1.641,0,0,0-.507,1.967c.083.131.337.153.858.168.12,0,.24.007.355.014l.2.012.026.109a3.506,3.506,0,0,0,1.787,2.18,7.053,7.053,0,0,0,3.382.77,5.581,5.581,0,0,0,3.724-1.146,10.2,10.2,0,0,0,1.037-1.084,6.332,6.332,0,0,1,2.212-1.923,2.548,2.548,0,0,1,1.514.023c.46.165.689.461.628.812-.082.474-.648.831-1.477.932-1.062.138-1.452.8-1.214,1.354.161.377.653.738,1.55.622a5.9,5.9,0,0,0,3.352-1.372h0a.262.262,0,0,1,.205-.074l.053,0c.164.013.325.042.481.069a2.291,2.291,0,0,0,1.024.023,1.517,1.517,0,0,0,.666-.912c.2-.555.132-.948-.034-1.05a1.675,1.675,0,0,0-.986-.184c-.17,0-.364,0-.582-.014l-.015,0a.166.166,0,0,1-.208-.118h0a2.772,2.772,0,0,0-.677-1.041,5.693,5.693,0,0,0-3.707-1.364,5.2,5.2,0,0,0-3.5,1.214,8.819,8.819,0,0,0-1.046,1.084l-.054.063-.045.055c-1.11,1.366-2.2,2.022-3.229,1.95-1.357-.094-2.032-.881-1.9-1.59.206-1.1,1.749-1.656,3.165-1.633.831.013,1.621-.413,1.724-.93A.71.71,0,0,0,1428.335,434.506Z" transform="translate(-1418.403 -433.207)" fill="url(#linear-gradient-6)"/>
        </g>
      </g>
      <g id="Grupo_76" data-name="Grupo 76" transform="translate(2.667 0)">
        <path id="Caminho_131" data-name="Caminho 131" d="M1386.249,397.534a25.968,25.968,0,0,0-9.85,2.677c-1.658.918.117,2.522,1.714,1.513a18.764,18.764,0,0,1,4.036-1.749,21.91,21.91,0,0,1,4.441-.8C1388.5,399.049,1388.14,397.373,1386.249,397.534Z" transform="translate(-1375.062 -394.178)" fill="#fffb7b" opacity="0.8"/>
        <path id="Caminho_132" data-name="Caminho 132" d="M1415.339,393.647l-.981-2.015,1.26-1.4,2.049.17,1.162,1.549-1.255,1.857Z" transform="translate(-1410.412 -387.502)" fill="#fffccc" opacity="0.47"/>
        <path id="Caminho_133" data-name="Caminho 133" d="M1426.93,400.457l-.907-.832.556-1.013,1.087-.049.692.65-.254.875Z" transform="translate(-1421.088 -395.129)" opacity="0.81" fill="url(#radial-gradient)"/>
        <path id="Caminho_134" data-name="Caminho 134" d="M1639.582,516.816l-1.34.231-.87-1.045.47-1.276,1.34-.231.87,1.045Z" transform="translate(-1614.517 -501.231)" fill="#fffda9" opacity="0.22"/>
        <path id="Caminho_135" data-name="Caminho 135" d="M1643.723,519.434l-.857-.438-.049-.961.807-.523.857.438.049.961Z" transform="translate(-1619.499 -503.993)" opacity="0.47" fill="url(#radial-gradient-2)"/>
        <path id="Caminho_136" data-name="Caminho 136" d="M1648.9,524.525l-.477-.046-.2-.436.279-.39.477.046.2.436Z" transform="translate(-1624.453 -509.612)" fill="url(#radial-gradient-3)"/>
        <path id="Caminho_137" data-name="Caminho 137" d="M1372.013,367.409l1.732-5.081-5.938.186,5.893-.588-2.24-3.863,2.679,3.759,3.863-2.092-3.633,2.45,4.011,3.845-4.286-3.5Z" transform="translate(-1367.808 -358.063)" fill="#fff" opacity="0.3"/>
        <path id="Caminho_138" data-name="Caminho 138" d="M1383.636,373.32l1.737-4.819-4.981.2,4.953-.468-1.985-3.334,2.229,3.3,3.381-1.888-3.258,2.139,3.619,3.331-3.753-3.167Z" transform="translate(-1379.324 -364.317)" fill="#fff"/>
        <path id="Caminho_139" data-name="Caminho 139" d="M1503.1,422.348l-1.076-.741.1-1.3,1.18-.561,1.076.741-.1,1.3Z" transform="translate(-1490.641 -414.514)" fill="#fffccc" opacity="0.47"/>
        <path id="Caminho_140" data-name="Caminho 140" d="M1510.542,429.106l-.634-.147-.19-.622.444-.476.634.147.19.622Z" transform="translate(-1497.686 -421.943)" opacity="0.81" fill="url(#radial-gradient-4)"/>
        <path id="Caminho_141" data-name="Caminho 141" d="M1485.289,409.273l-.587-3.118-2.912,1.729,2.772-1.923-2.77-2.279,2.966,2.1,1.286-2.439-1.063,2.557,3.237.82-3.279-.564Z" transform="translate(-1472.125 -399.502)" fill="#fff" opacity="0.3"/>
        <path id="Caminho_142" data-name="Caminho 142" d="M1488.272,413.16l-.509-2.985-2.665,1.6,2.572-1.729-2.545-2.01,2.66,1.923,1.114-2.143-.977,2.236,2.832.661-2.853-.537Z" transform="translate(-1475.154 -403.596)" fill="#fff"/>
      </g>
    </g>
    <path id="Caminho_143" data-name="Caminho 143" d="M1436.034,487.535c-2.642-.855-5.52-.425-8.23.151-.126-.058-3.236,7.493-3.786,8.848-.29.715-.2,1.108.48,1.311a35.131,35.131,0,0,0,8.729,1.22,38.709,38.709,0,0,0,5.528-.367,1.941,1.941,0,0,0,.91-1.142,8.574,8.574,0,0,0,.313-2.111c0-.083.011-.169.018-.257a1.02,1.02,0,0,1,.548-.834,4.149,4.149,0,0,0,2.26-2.969.17.17,0,0,0-.132-.178l-.01,0a4.136,4.136,0,0,1-1.676-.792A15.46,15.46,0,0,0,1436.034,487.535Z" transform="translate(-339.346 -239.436)" opacity="0.54" fill="url(#linear-gradient-7)"/>
    <path id="Caminho_144" data-name="Caminho 144" d="M1177.536,355.3c4.332,4.909,5.642,13.713,1.591,19.687a14.935,14.935,0,0,1-20.524,4.372,15.688,15.688,0,0,1-4.654-4.677C1151.285,369.388,1176.785,354.445,1177.536,355.3Z" transform="translate(-92.139 -118.818)" fill="url(#linear-gradient-8)"/>
    <g id="Grupo_78" data-name="Grupo 78" transform="translate(1078.967 243.04)">
      <path id="Caminho_145" data-name="Caminho 145" d="M1376.645,622.4a18.918,18.918,0,0,0-1.091-1.743c-.257-.334-.845.081-.594.417.265.355.87,1.228,1.111,1.651C1376.279,622.607,1376.4,622.54,1376.645,622.4Z" transform="translate(-1373.501 -604.636)" fill="#a85400"/>
      <path id="Caminho_146" data-name="Caminho 146" d="M1391.21,615.881c.108-.083.384-.255.486-.343a13.681,13.681,0,0,0-1.127-1.607c-.122-.129-.636.261-.518.391C1390.2,614.491,1391.04,615.649,1391.21,615.881Z" transform="translate(-1387.353 -598.574)" fill="#a85400"/>
      <path id="Caminho_147" data-name="Caminho 147" d="M1404.641,603.631c.064-.061.355-.318.421-.375a18.869,18.869,0,0,0-1.274-1.5c-.311-.282-.776.123-.49.431C1403.641,602.559,1404.541,603.515,1404.641,603.631Z" transform="translate(-1399.411 -587.37)" fill="#a85400"/>
      <path id="Caminho_148" data-name="Caminho 148" d="M1418.91,589.7c-.012-.049-.906-1.091-1.255-1.5-.272-.321-.711.156-.441.474.35.412,1.247,1.357,1.313,1.449C1418.6,590.048,1418.863,589.752,1418.91,589.7Z" transform="translate(-1412.15 -574.945)" fill="#a85400"/>
      <path id="Caminho_149" data-name="Caminho 149" d="M1429.968,576.52c.037-.045.311-.417.346-.465a14.738,14.738,0,0,0-1.314-1.4c-.306-.289-.716.24-.41.529C1428.966,575.538,1429.892,576.451,1429.968,576.52Z" transform="translate(-1422.542 -562.574)" fill="#a85400"/>
      <path id="Caminho_150" data-name="Caminho 150" d="M1442.4,559.535c-.1-.124-.886-1.02-1.249-1.4-.292-.3-.611.3-.32.606.363.377.889.977,1.229,1.375C1442.128,560.009,1442.306,559.7,1442.4,559.535Z" transform="translate(-1433.736 -547.458)" fill="#a85400"/>
      <path id="Caminho_151" data-name="Caminho 151" d="M1451.2,542.286c-.366-.344-.9-.795-1.287-1.123-.321-.268-.64.3-.317.573.383.32,1.232,1.114,1.334,1.208C1451.016,542.753,1451.133,542.459,1451.2,542.286Z" transform="translate(-1441.741 -531.935)" fill="#a85400"/>
      <path id="Caminho_152" data-name="Caminho 152" d="M1458.466,521.43a8.98,8.98,0,0,1-1.123-1.109c-.273-.32-.723.153-.453.47a11.985,11.985,0,0,0,1.387,1.336C1458.33,521.952,1458.445,521.515,1458.466,521.43Z" transform="translate(-1448.464 -512.826)" fill="#a85400"/>
      <path id="Caminho_153" data-name="Caminho 153" d="M1463.365,501.051c-.365-.379-.683-.741-1.018-1.148-.267-.324-.717.149-.453.47.393.478.909,1.037,1.345,1.477C1463.27,501.7,1463.35,501.22,1463.365,501.051Z" transform="translate(-1453.047 -494.137)" fill="#a85400"/>
      <path id="Caminho_154" data-name="Caminho 154" d="M1360.017,632.647c-.148-.261-.758-1.39-.923-1.634-.234-.348-.867-.054-.631.3.135.2.878,1.423.962,1.588C1359.586,632.829,1359.792,632.745,1360.017,632.647Z" transform="translate(-1358.411 -614.088)" fill="#a85400"/>
      <path id="Caminho_155" data-name="Caminho 155" d="M1467.969,479.627c-.27-.289-.528-.616-.83-.963-.275-.315-.617.171-.358.5.337.428,1.126,1.332,1.153,1.347C1467.95,480.224,1467.964,479.917,1467.969,479.627Z" transform="translate(-1457.508 -474.705)" fill="#a85400"/>
      <path id="Caminho_156" data-name="Caminho 156" d="M1469.718,458.814c-.208-.236-.472-.576-.675-.823-.113-.137-.45.433-.323.554.306.293.813.843,1.062,1.146C1469.766,459.414,1469.75,459.092,1469.718,458.814Z" transform="translate(-1459.342 -455.858)" fill="#a85400"/>
      <path id="Caminho_157" data-name="Caminho 157" d="M1466.921,433.791a6.237,6.237,0,0,1-.489-.61c-.239-.347-.572.172-.308.5.31.385.922,1.092,1,1.186C1467.1,434.653,1466.971,433.979,1466.921,433.791Z" transform="translate(-1456.903 -433.066)" fill="#a85400"/>
    </g>
    <g id="Grupo_79" data-name="Grupo 79" transform="translate(1053.079 225.436)">
      <ellipse id="Elipse_15" data-name="Elipse 15" cx="15.335" cy="14.479" rx="15.335" ry="14.479" transform="matrix(0.561, -0.828, 0.828, 0.561, 0, 25.385)" fill="url(#linear-gradient-9)"/>
      <path id="Caminho_158" data-name="Caminho 158" d="M1129.807,320.516a14.013,14.013,0,0,1-4.564-2.026,14.232,14.232,0,0,1-6.057-9.627,16.229,16.229,0,0,1,12.36-18.228,14.159,14.159,0,0,1,17.242,11.691,16.229,16.229,0,0,1-12.36,18.228A14.591,14.591,0,0,1,1129.807,320.516Zm8.243-29.366a14.1,14.1,0,0,0-6.4-.037,15.739,15.739,0,0,0-11.983,17.672,13.669,13.669,0,0,0,16.653,11.292,15.739,15.739,0,0,0,11.983-17.672,13.747,13.747,0,0,0-5.849-9.3A13.519,13.519,0,0,0,1138.05,291.15Z" transform="translate(-1113.396 -284.777)" fill="url(#linear-gradient-10)"/>
    </g>
    <g id="Grupo_80" data-name="Grupo 80" transform="translate(1061.74 234.281)">
      <path id="Caminho_159" data-name="Caminho 159" d="M1163.8,353.695a11.052,11.052,0,0,1-3.6-1.6,11.286,11.286,0,0,1-4.8-7.633,12.63,12.63,0,0,1,2.07-9.133c3.819-5.633,11.26-7.278,16.587-3.666a11.286,11.286,0,0,1,4.8,7.633,12.631,12.631,0,0,1-2.07,9.133A12.339,12.339,0,0,1,1163.8,353.695Zm6.493-22.991A11.685,11.685,0,0,0,1158,335.7a11.981,11.981,0,0,0-1.966,8.662,10.639,10.639,0,0,0,4.526,7.2,10.411,10.411,0,0,0,3.392,1.5,11.684,11.684,0,0,0,12.289-4.995,11.98,11.98,0,0,0,1.966-8.662,10.639,10.639,0,0,0-4.526-7.2A10.41,10.41,0,0,0,1170.292,330.7Z" transform="translate(-1155.233 -329.75)" fill="url(#linear-gradient-11)"/>
    </g>
    <g id="Grupo_82" data-name="Grupo 82" transform="translate(1065.954 236.239)">
      <path id="Caminho_160" data-name="Caminho 160" d="M1221.98,362.742a5.2,5.2,0,0,0-1.65-3.88c.18-.447.648-.857.507-1.514-.144-.673-2.823-1.949-3.542-1.559-.642.348-.556.82-.8,1.519a6.447,6.447,0,0,0-2,.215,4.74,4.74,0,0,0-3.322,3.078,4.207,4.207,0,0,0,1.324,4.012,16.152,16.152,0,0,0,1.722,1.522c.267.216,3.093,2.276,2.587,3.608a2.169,2.169,0,0,1-2.817.982,2.774,2.774,0,0,1-1.9-3.337,2,2,0,0,0-1.342-2.289,1.925,1.925,0,0,0-2.494.9,5.543,5.543,0,0,0,2.23,6.759c.1.068-.545.828-.307,1.289.374.721,2.37,1.521,3.465,1.412.537-.053.606-.714.789-1.221a6.9,6.9,0,0,0,4.255-.811,4.8,4.8,0,0,0,2.185-3,4.29,4.29,0,0,0-1.159-4.175c-.94-1.043-4.012-3.093-4.315-4.175a1.146,1.146,0,0,1,1.585-1.365,1.531,1.531,0,0,1,1.082,1.528c-.012,2.218,3.907,2.732,3.919.5Z" transform="translate(-1207.586 -355.473)" fill="url(#linear-gradient-12)"/>
      <g id="Grupo_81" data-name="Grupo 81" transform="translate(0 0)">
        <path id="Caminho_161" data-name="Caminho 161" d="M1209.775,372.954a4.176,4.176,0,0,1-2.479-1.417c-.214-.414.051-.929.21-1.237l.033-.065a5.766,5.766,0,0,1-2.174-6.955,2.161,2.161,0,0,1,2.8-1.038,2.246,2.246,0,0,1,1.5,2.583,2.528,2.528,0,0,0,1.748,3.042,1.942,1.942,0,0,0,2.506-.838c.122-.323.131-1.286-2.421-3.26l-.091-.071-.094-.076a15.464,15.464,0,0,1-1.654-1.471,4.4,4.4,0,0,1-1.379-4.247,4.991,4.991,0,0,1,3.493-3.245,6.628,6.628,0,0,1,1.885-.23c.034-.113.061-.22.087-.325a1.515,1.515,0,0,1,.777-1.159c.593-.322,1.855.212,2.228.384s1.544.751,1.67,1.339a1.7,1.7,0,0,1-.33,1.305c-.043.071-.084.139-.12.206a5.435,5.435,0,0,1,1.6,3.935h0a1.711,1.711,0,0,1-1.9,1.683,2.353,2.353,0,0,1-2.511-2.186,1.293,1.293,0,0,0-.917-1.295.967.967,0,0,0-1.024.148.929.929,0,0,0-.246.919c.173.615,1.52,1.722,2.6,2.612a17.753,17.753,0,0,1,1.659,1.465,4.557,4.557,0,0,1,1.215,4.4,5.016,5.016,0,0,1-2.3,3.158,7.112,7.112,0,0,1-4.208.863c-.012.04-.024.08-.036.12-.136.456-.305,1.023-.9,1.081A3.864,3.864,0,0,1,1209.775,372.954Zm-2-10.32a1.639,1.639,0,0,0-1.959.84,5.313,5.313,0,0,0,2.146,6.463c.207.146.092.371-.02.588s-.308.6-.21.788a4.478,4.478,0,0,0,3.224,1.281c.241-.024.335-.253.479-.734.033-.111.067-.222.1-.326l.065-.181.191.021a6.679,6.679,0,0,0,4.1-.779,4.525,4.525,0,0,0,2.072-2.85,4.056,4.056,0,0,0-1.1-3.955,17.562,17.562,0,0,0-1.606-1.414c-1.253-1.03-2.549-2.095-2.763-2.858a1.423,1.423,0,0,1,.381-1.407,1.453,1.453,0,0,1,1.519-.255,1.784,1.784,0,0,1,1.247,1.764,1.873,1.873,0,0,0,2.024,1.69c.676,0,1.4-.309,1.406-1.2a4.946,4.946,0,0,0-1.572-3.7l-.124-.115.063-.156a3.01,3.01,0,0,1,.225-.422,1.253,1.253,0,0,0,.27-.949c-.034-.159-.5-.586-1.4-1a2.836,2.836,0,0,0-1.79-.4c-.375.2-.432.432-.536.847a5.554,5.554,0,0,1-.156.539l-.061.171-.181-.009a6.168,6.168,0,0,0-1.92.207,4.494,4.494,0,0,0-3.152,2.91,4.042,4.042,0,0,0,1.269,3.777,15.107,15.107,0,0,0,1.6,1.423l.094.076.083.065c2.067,1.6,2.934,2.884,2.579,3.821a2.394,2.394,0,0,1-3.127,1.125,3.008,3.008,0,0,1-2.057-3.632A1.773,1.773,0,0,0,1208,362.7,2.235,2.235,0,0,0,1207.774,362.634Z" transform="translate(-1204.926 -352.845)" fill="url(#linear-gradient-13)"/>
      </g>
    </g>
    <path id="Caminho_162" data-name="Caminho 162" d="M1123,431.386l-.055-.076a2.7,2.7,0,0,0-.9-.738,3.148,3.148,0,0,0-2.317-.313,15,15,0,0,0,5.709,16.238c6.618,4.488,16.177,2.378,20.93-4.632a16.713,16.713,0,0,0,2.178-4.606,4.067,4.067,0,0,0-2.543-.947,3.185,3.185,0,0,0-.764.251l-.007,0a3.1,3.1,0,0,1-.8.3c-1.267.033-3.467-.223-4.547-1.1-.379-.309-.664-.492-1.068-.768-1.776.9-4.741-.026-5.656-1.011-.355.1-.422.257-.648.452a1.154,1.154,0,0,1-1.346.031c-1.042,1.1-3.742.335-3.791-.619a8.614,8.614,0,0,1-3.661-1.633A9.726,9.726,0,0,1,1123,431.386Zm20.457,9.406a12.422,12.422,0,0,1-6.1,4.47c-.363.15-.533-.435-.174-.583a11.8,11.8,0,0,0,5.741-4.182C1143.151,440.179,1143.685,440.472,1143.46,440.792Z" transform="translate(-60.519 -187.348)" fill="#bc5e00" opacity="0.12"/>
    <g id="Grupo_83" data-name="Grupo 83" transform="translate(1063.595 226.208)">
      <path id="Caminho_163" data-name="Caminho 163" d="M1201.525,294.266c-3.076.186-6.953.78-9.236,3.049-1.344,1.335.548,3.2,2.088,2.105a12.153,12.153,0,0,1,3.172-1.569,12.443,12.443,0,0,1,4.054-.574C1203.519,297.266,1203.419,294.151,1201.525,294.266Z" transform="translate(-1190.582 -289.198)" fill="#fffb7b" opacity="0.8"/>
      <path id="Caminho_164" data-name="Caminho 164" d="M1228.661,277.037l-2.419-1.864.4-3.027,2.824-1.163,2.419,1.864-.4,3.027Z" transform="translate(-1222.076 -267.893)" fill="#fffccc" opacity="0.47"/>
      <path id="Caminho_165" data-name="Caminho 165" d="M1247.071,292.614l-1.462-.422-.365-1.477,1.1-1.055,1.462.422.365,1.477Z" transform="translate(-1239.467 -284.986)" opacity="0.81" fill="url(#radial-gradient-5)"/>
      <path id="Caminho_166" data-name="Caminho 166" d="M1351.62,568.582l-1.636.373-1.141-1.23.495-1.6,1.636-.373,1.141,1.23Z" transform="translate(-1334.282 -537.667)" fill="#fffda9" opacity="0.22"/>
      <path id="Caminho_167" data-name="Caminho 167" d="M1356.187,572.252l-1.085-.482-.125-1.18.96-.7,1.085.482.125,1.18Z" transform="translate(-1339.897 -541.458)" opacity="0.47" fill="url(#radial-gradient-6)"/>
      <path id="Caminho_168" data-name="Caminho 168" d="M1362.812,578.558l-.591-.025-.274-.524.317-.5.591.025.274.524Z" transform="translate(-1346.276 -548.43)" fill="url(#radial-gradient-7)"/>
      <path id="Caminho_169" data-name="Caminho 169" d="M1185.1,248.292l-.982-7.354-7.016,3.674,6.713-4.143-6.183-5.668,6.663,5.268,3.306-5.535-2.8,5.838,7.04,2.841-7.172-2.249Z" transform="translate(-1177.106 -234.534)" fill="#fff" opacity="0.3"/>
      <path id="Caminho_170" data-name="Caminho 170" d="M1192.371,257.129l-.815-7.033-6.422,3.4,6.22-3.715-5.69-5.012,5.971,4.822,2.868-4.864-2.561,5.1,6.528,1.9-6.593-1.611Z" transform="translate(-1184.453 -243.861)" fill="#fff"/>
      <path id="Caminho_171" data-name="Caminho 171" d="M1294.594,365.193l-1.114-.682.033-1.306,1.147-.624,1.114.682-.033,1.306Z" transform="translate(-1283.612 -351.725)" fill="#fffccc" opacity="0.47"/>
      <path id="Caminho_172" data-name="Caminho 172" d="M1301.584,372.028l-.641-.112-.223-.611.418-.5.641.112.223.611Z" transform="translate(-1290.239 -359.252)" opacity="0.81" fill="url(#radial-gradient-8)"/>
      <path id="Caminho_173" data-name="Caminho 173" d="M1275.244,351.368l-.755-3.082-2.815,1.884,2.665-2.07-2.889-2.126,3.075,1.935,1.152-2.505-.923,2.611,3.124.885-3.153-.627Z" transform="translate(-1263.451 -336.003)" fill="#fff" opacity="0.3"/>
      <path id="Caminho_174" data-name="Caminho 174" d="M1278.627,355.353l-.669-2.953-2.575,1.739,2.475-1.865-2.65-1.87,2.76,1.776,1-2.2-.855,2.285,2.863.507-2.878-.382Z" transform="translate(-1266.89 -340.192)" fill="#fff"/>
    </g>
  </g>
</svg>
