<svg xmlns="http://www.w3.org/2000/svg" xmlns:xlink="http://www.w3.org/1999/xlink" width="340.696" height="218.316" viewBox="0 0 340.696 218.316">
  <defs>
    <filter id="Retângulo_101" x="0" y="0" width="340.696" height="218.316" filterUnits="userSpaceOnUse">
      <feOffset dy="3" input="SourceAlpha"/>
      <feGaussianBlur stdDeviation="3" result="blur"/>
      <feFlood flood-opacity="0.161"/>
      <feComposite operator="in" in2="blur"/>
      <feComposite in="SourceGraphic"/>
    </filter>
  </defs>
  <g id="Grupo_189" data-name="Grupo 189" transform="translate(-16 -161.873)">
    <g transform="matrix(1, 0, 0, 1, 16, 161.87)" filter="url(#Retângulo_101)">
      <rect id="Retângulo_101-2" data-name="Retângulo 101" width="322.697" height="200.316" rx="7" transform="translate(9 6)" fill="#fff"/>
    </g>
    <text id="Pedreiro_-Reforma_geral" data-name="Pedreiro -Reforma geral" transform="translate(56 182.43)" fill="#7f7f7f" font-size="16" font-family="HelveticaNeue-Bold, Helvetica Neue" font-weight="700"><tspan x="0" y="16">Pedreiro -Reforma geral</tspan></text>
    <path id="Caminho_102" data-name="Caminho 102" d="M513.326,941.523h-.309v-3.108c0-.025,0-.05,0-.075v-.048a5.7,5.7,0,0,0-3.446-5.222,5.514,5.514,0,0,0-1.83-.452c-.121-.009-.242-.013-.363-.014h-.1c-.121,0-.242.005-.363.014a5.514,5.514,0,0,0-1.83.452,5.7,5.7,0,0,0-3.446,5.222v.048c0,.025,0,.05,0,.075v3.108h-.309a.8.8,0,0,0-.8.8v8a.8.8,0,0,0,.8.8h12a.8.8,0,0,0,.8-.8v-8A.8.8,0,0,0,513.326,941.523Zm-5.4,5.058v1.157a.6.6,0,1,1-1.205,0V946.58a1.253,1.253,0,1,1,1.205,0Zm-4.44-5.058v-2.273a.934.934,0,0,0,.015-.163l-.015-.59a3.9,3.9,0,0,1,3.8-3.934h.077a3.9,3.9,0,0,1,3.8,3.934l-.015.59a.931.931,0,0,0,.015.163v2.273Z" transform="translate(-444.557 -607.036)" fill="#0e96e2"/>
    <text id="Antônio_G_" data-name="Antônio G…" transform="translate(80 221.009)" fill="#707070" font-size="12" font-family="HelveticaNeue, Helvetica Neue"><tspan x="0" y="11">Antônio G…</tspan></text>
    <text id="Pituba_-_SSA" data-name="Pituba - SSA" transform="translate(74 254.009)" fill="#707070" font-size="12" font-family="HelveticaNeue, Helvetica Neue"><tspan x="0" y="11">Pituba - SSA</tspan></text>
    <text id="Demolição_de_3_paredes_e_construção_da_casa_do_cachorro_no_quintal." data-name="Demolição de 3 paredes e construção da casa do cachorro no quintal." transform="translate(56 281.009)" fill="#707070" font-size="12" font-family="HelveticaNeue, Helvetica Neue"><tspan x="0" y="11">Demolição de 3 paredes e construção da casa do </tspan><tspan x="0" y="25">cachorro no quintal.</tspan></text>
    <text id="_71_9_-_ant_gmail.com" data-name="71 9****-****   ant****@gmail.com" transform="translate(74 329.009)" fill="#707070" font-size="12" font-family="HelveticaNeue, Helvetica Neue"><tspan x="0" y="11" xml:space="preserve">71 9****-****   ant****@gmail.com</tspan></text>
    <path id="_06" data-name="06" d="M716.107,1050.463H703.55a.742.742,0,0,1-.741-.74l0-1.279a2.176,2.176,0,0,1,1.5-2.15c.427-.162,2.306-.793,2.887-.989V1043.9c-.486-1.98-.777-3.18-.519-4.259a3.239,3.239,0,0,1,6.311,0c.258,1.078-.034,2.278-.519,4.259v1.408c.581.2,2.459.827,2.886.989a2.176,2.176,0,0,1,1.5,2.15l0,1.279a.742.742,0,0,1-.741.74Z" transform="translate(-647.28 -816.154)" fill="#0e96e2"/>
    <path id="Caminho_101" data-name="Caminho 101" d="M862.295,1032.984a5.352,5.352,0,0,0-5.346,5.346c0,2.873,4.946,8.846,5.156,9.1l.19.228.19-.228c.21-.253,5.156-6.226,5.156-9.1A5.352,5.352,0,0,0,862.295,1032.984Zm0,7.348a2,2,0,1,1,2-2A2,2,0,0,1,862.295,1040.332Z" transform="translate(-800.607 -780.658)" fill="#0e96e2"/>
  </g>
</svg>
