<svg xmlns="http://www.w3.org/2000/svg" xmlns:xlink="http://www.w3.org/1999/xlink" width="165.697" height="192.316" viewBox="0 0 165.697 192.316"><defs><style>.a{fill:#fff;}.b{fill:#707070;font-size:20px;font-family:HelveticaNeue-Bold, Helvetica Neue;font-weight:700;}.c,.d{fill:none;stroke:#505050;stroke-linejoin:round;stroke-width:4px;}.c{stroke-linecap:round;}.e{filter:url(#a);}</style><filter id="a" x="0" y="0" width="165.697" height="192.316" filterUnits="userSpaceOnUse"><feOffset dy="3" input="SourceAlpha"/><feGaussianBlur stdDeviation="3" result="b"/><feFlood flood-opacity="0.161"/><feComposite operator="in" in2="b"/><feComposite in="SourceGraphic"/></filter></defs><g transform="translate(-20 -399.997)"><g class="e" transform="matrix(1, 0, 0, 1, 20, 400)"><rect class="a" width="147.697" height="174.316" rx="7" transform="translate(9 6)"/></g><text class="b" transform="translate(102.871 554.272)"><tspan x="-40.37" y="0">Pedreiro</tspan></text><g transform="translate(10.021 308.767)"><path class="c" d="M106.3,167.169l9.973,9.368a1.809,1.809,0,0,1-1.106,3.123L50.927,185.7a1.809,1.809,0,0,1-1.375-3.12l34.135-33.485a1.8,1.8,0,0,1,2.446-.033l11.028,9.865" transform="translate(0 8.762)"/><path class="c" d="M64.942,171.495l24.227-8.662c1.528-.539,2.66-2.215,2.66-4.726v-5.738a3.5,3.5,0,0,1,1.593-3.049l2.871-1.915" transform="translate(14.568 7.671)"/><path class="d" d="M81.3,154.142h0a5.754,5.754,0,0,1,2.882-7.587l15.7-7.054a5.755,5.755,0,0,1,7.586,2.882h0a5.755,5.755,0,0,1-2.882,7.586l-15.7,7.054A5.751,5.751,0,0,1,81.3,154.142Z" transform="translate(29.035)"/></g></g></svg>