<svg xmlns="http://www.w3.org/2000/svg" xmlns:xlink="http://www.w3.org/1999/xlink" width="165.697" height="192.316" viewBox="0 0 165.697 192.316"><defs><style>.a{fill:#fff;}.b{fill:#707070;font-size:20px;font-family:HelveticaNeue-Bold, Helvetica Neue;font-weight:700;}.c{fill:#505050;stroke:#353535;stroke-miterlimit:10;}.d{filter:url(#a);}</style><filter id="a" x="0" y="0" width="165.697" height="192.316" filterUnits="userSpaceOnUse"><feOffset dy="3" input="SourceAlpha"/><feGaussianBlur stdDeviation="3" result="b"/><feFlood flood-opacity="0.161"/><feComposite operator="in" in2="b"/><feComposite in="SourceGraphic"/></filter></defs><g transform="translate(-20 -205.997)"><g class="d" transform="matrix(1, 0, 0, 1, 20, 206)"><rect class="a" width="147.697" height="174.316" rx="7" transform="translate(9 6)"/></g><text class="b" transform="translate(102.871 360.272)"><tspan x="-28.7" y="0">Pintor</tspan></text><g transform="translate(-276.257 -83.88)"><path class="c" d="M586.142,359.132a1.36,1.36,0,1,0,.961.4,1.355,1.355,0,0,0-.961-.4Zm0,0" transform="translate(-185.859 -20.651)"/><g transform="translate(350 333.045)"><path class="c" d="M488.316,627.828a1.36,1.36,0,1,0,.961.4,1.354,1.354,0,0,0-.961-.4Zm0,0" transform="translate(-458.418 -566.401)"/><path class="c" d="M408.437,341.2h-1.359v-4.077A4.081,4.081,0,0,0,403,333.045H356.8a4.081,4.081,0,0,0-4.077,4.077V341.2h-1.359a1.359,1.359,0,0,0,0,2.718h1.359V348.4a4.082,4.082,0,0,0,4.077,4.077H403a4.082,4.082,0,0,0,4.077-4.077v-4.484h1.359a1.361,1.361,0,0,1,1.359,1.359v8.948a1.353,1.353,0,0,1-1.153,1.344l-.015,0-.015,0L395.3,357.934,381.979,360.3a4.053,4.053,0,0,0-3.44,4.027v1.744h-4.077a4.077,4.077,0,0,0-.185,8.15l-1.229,9.574-1.229,9.574h0v.008h0c-.025.182-.043.365-.055.548s-.018.365-.018.546a8.154,8.154,0,0,0,16.308,0c0-.181-.006-.363-.018-.545s-.031-.365-.055-.547h0v0l-1.23-9.579-1.229-9.579a4.077,4.077,0,0,0-.185-8.15h-4.077v-1.744a1.352,1.352,0,0,1,1.152-1.344l.016,0,.016,0,13.317-2.362,13.317-2.362a4.055,4.055,0,0,0,3.441-4.027v-8.948a4.082,4.082,0,0,0-4.077-4.077Zm-4.077,7.2A1.361,1.361,0,0,1,403,349.76H356.8a1.361,1.361,0,0,1-1.359-1.359V337.122a1.361,1.361,0,0,1,1.359-1.359H403a1.361,1.361,0,0,1,1.359,1.359V348.4ZM379.9,399.908a5.442,5.442,0,0,1-5.436-5.436c0-.122,0-.246.013-.37s.021-.248.038-.371v-.009l1.252-9.75,1.252-9.75h5.763l1.252,9.75,1.252,9.75v.009q.025.185.038.371c.009.124.013.248.013.37a5.442,5.442,0,0,1-5.436,5.436Zm5.436-31.122a1.359,1.359,0,1,1,0,2.718H374.462a1.359,1.359,0,1,1,0-2.718h10.872Zm0,0" transform="translate(-350 -333.045)"/></g><path class="c" d="M425.824,359.132H390.49a1.359,1.359,0,0,0,0,2.718h35.334a1.359,1.359,0,1,0,0-2.718Zm0,0" transform="translate(-30.977 -20.651)"/></g></g></svg>