<svg xmlns="http://www.w3.org/2000/svg" width="375" height="86" viewBox="0 0 375 86"><defs><style>.a{fill:#0e96e2;}.b{fill:#fff;}</style></defs><rect class="a" width="375" height="86"/><path class="b" d="M456.425,657.477a18.329,18.329,0,0,0-36.658,0c0,3.562,1.23,7.564,3.053,11.539,3.619-3.323,6.225-5.774,6.579-6.169a17.06,17.06,0,0,0,2.762-4.047,5.291,5.291,0,0,0-.914-5.546q-2.091-2.771.156-2.945,2.219-.211,4.261,2.925,2.01,3.131,3.051,2.394c.676-.517,4.018-4.682,5.267-3.883a2.9,2.9,0,0,1,1.2,2.652q-.013.6,1.17,1.335a2.586,2.586,0,0,1,1.176,2.313,9.409,9.409,0,0,0,.526,3.136q.506,1.516-2.775,4.652-3.3,3.065-5.777,2.905a12.44,12.44,0,0,1-5.223-1.772q2.388,2.575,4.675,5.137l-8.832,9.307c3.379,4.394,7.976,10.119,7.976,10.119S456.425,671.229,456.425,657.477Z" transform="translate(-250.46 -622.717)"/></svg>