<?xml version="1.0" encoding="utf-8"?>
<!-- Generator: Adobe Illustrator 16.0.0, SVG Export Plug-In . SVG Version: 6.00 Build 0)  -->
<!DOCTYPE svg PUBLIC "-//W3C//DTD SVG 1.1//EN" "http://www.w3.org/Graphics/SVG/1.1/DTD/svg11.dtd">
<svg version="1.1" id="Layer_1" xmlns="http://www.w3.org/2000/svg" xmlns:xlink="http://www.w3.org/1999/xlink" x="0px" y="0px"
	 width="70px" height="86px" viewBox="0 0 70 86" enable-background="new 0 0 70 86" xml:space="preserve">
<path fill="#FFFFFF" d="M53.329,35.131c-0.008-10.123-8.221-18.322-18.344-18.314C24.874,16.825,16.68,25.02,16.671,35.131
	c0,3.562,1.23,7.564,3.053,11.539c3.619-3.323,6.226-5.774,6.579-6.169c1.111-1.209,2.041-2.572,2.763-4.047
	c0.783-1.871,0.428-4.025-0.914-5.546c-1.395-1.848-1.343-2.829,0.155-2.945c1.479-0.141,2.9,0.834,4.262,2.925
	c1.34,2.087,2.356,2.885,3.051,2.394c0.677-0.517,4.019-4.682,5.267-3.883c0.848,0.605,1.305,1.617,1.201,2.652
	c-0.01,0.4,0.381,0.845,1.17,1.335c0.777,0.504,1.227,1.387,1.176,2.313c-0.004,1.067,0.174,2.128,0.525,3.136
	c0.338,1.011-0.588,2.562-2.775,4.652c-2.199,2.044-4.125,3.011-5.776,2.906c-1.852-0.193-3.637-0.799-5.224-1.771
	c1.593,1.717,3.15,3.428,4.676,5.137l-8.832,9.307c3.379,4.395,7.976,10.119,7.976,10.119S53.329,48.883,53.329,35.131z"/>
</svg>
