<svg xmlns="http://www.w3.org/2000/svg" width="104.871" height="172.011" viewBox="0 0 104.871 172.011"><defs><style>.a{fill:#fff;}.b{fill:#282d33;}.c{fill:#5eb4e7;}</style></defs><g transform="translate(-135 -179.084)"><g transform="translate(212.935 246.927)"><path class="a" d="M4.7,0H9.554a4.7,4.7,0,0,1,4.7,4.7V21.522a4.7,4.7,0,0,1-4.7,4.7H4.7a4.7,4.7,0,0,1-4.7-4.7V4.7A4.7,4.7,0,0,1,4.7,0Z" transform="translate(2.914 2.913)"/><path class="b" d="M-142.861,273.309h-.571a9.764,9.764,0,0,1-9.753-9.753V251.018a9.764,9.764,0,0,1,9.753-9.753h.571a9.764,9.764,0,0,1,9.753,9.753v12.538A9.764,9.764,0,0,1-142.861,273.309Zm-.571-26.218a3.931,3.931,0,0,0-3.927,3.927v12.538a3.931,3.931,0,0,0,3.927,3.927h.571a3.931,3.931,0,0,0,3.927-3.927V251.018a3.931,3.931,0,0,0-3.927-3.927Z" transform="translate(153.185 -241.265)"/></g><g transform="translate(135 317.309)"><path class="a" d="M-204.692,322.459V305.307c0-7.577,6.94-13.721,15.5-13.721h68.04c8.563,0,15.5,6.144,15.5,13.721v17.152" transform="translate(207.605 -288.673)"/><path class="b" d="M-101.821,323.372h-5.826V306.22c0-5.959-5.647-10.808-12.589-10.808h-68.04c-6.942,0-12.59,4.849-12.59,10.808v17.152h-5.826V306.22c0-9.172,8.262-16.634,18.417-16.634h68.04c10.154,0,18.415,7.462,18.415,16.634Z" transform="translate(206.692 -289.586)"/></g><g transform="translate(149.883 210.939)"><path class="a" d="M-125.2,280.9a34.638,34.638,0,0,1-34.638,34.64h0a34.639,34.639,0,0,1-34.64-34.64V253.192a34.637,34.637,0,0,1,34.64-34.635h0A34.636,34.636,0,0,1-125.2,253.192Z" transform="translate(197.387 -215.644)"/><path class="b" d="M-158.921,319.367a37.6,37.6,0,0,1-37.553-37.553V254.105a37.594,37.594,0,0,1,37.553-37.548,37.593,37.593,0,0,1,37.551,37.548v27.709A37.6,37.6,0,0,1-158.921,319.367Zm0-96.984a31.761,31.761,0,0,0-31.726,31.722v27.709a31.763,31.763,0,0,0,31.726,31.727A31.762,31.762,0,0,0-127.2,281.815V254.105A31.761,31.761,0,0,0-158.921,222.383Z" transform="translate(196.474 -216.557)"/></g><g transform="translate(140.836 246.68)"><path class="a" d="M-191.638,243.314c-3.439.358-9.047,3.234-9.047,6.769v12.538c0,3.537,5.608,6.412,9.047,6.769Z" transform="translate(203.598 -240.082)"/><path class="b" d="M-187.812,273.634l-3.215-.334c-4.764-.5-11.658-4.224-11.658-9.667V251.1c0-5.442,6.894-9.17,11.658-9.666l3.215-.335Zm-5.826-25.409c-1.777.872-3.22,2.1-3.22,2.871v12.538c0,.771,1.442,2,3.22,2.872Z" transform="translate(202.685 -241.095)"/></g><g transform="translate(193.685 322.115)"><rect class="b" width="5.826" height="16.029"/></g><g transform="translate(182.033 322.115)"><rect class="b" width="5.826" height="16.029"/></g><path class="c" d="M-204.307,262.208s5.4,4.572,46.752,6.026,48.622-4.779,48.622-4.779-1.477-4.926-4.364-6.649c0,0,2.494-22.441-7.064-35.739s-14.13-13.611-14.13-13.611,1.039-4.051,0-4.259-4.779,1.559-4.779,1.559l-13.715-3.325s-.935-5.194-3.22-4.676-3.947,4.364-3.947,4.364-13.4,3.845-13.61,3.534-4.78-2.287-5.4-1.559-.415,3.844-.415,3.844a20.014,20.014,0,0,0-11.636,12.155c-3.429,9.559-9.663,21.2-8.1,36.883l-1.559,2.6S-203.165,258.26-204.307,262.208Z" transform="translate(342.781 -14.676)"/><g transform="translate(136.285 179.084)"><path class="b" d="M-177.691,210.651a2.274,2.274,0,0,0,.939-1.624,2.336,2.336,0,0,0-.594-1.809,1.17,1.17,0,0,0-.083-.087,1.023,1.023,0,0,1,.083-1.392.987.987,0,0,1,.68-.269.971.971,0,0,1,.718.322,11.173,11.173,0,0,1,.931,1.18,2.251,2.251,0,0,0,2.721.771,39.665,39.665,0,0,1,13.223-2.961,2.249,2.249,0,0,0,2.116-2.245v-2.349a1,1,0,0,1,.993-1,1,1,0,0,1,1,1v2.345a2.249,2.249,0,0,0,2.125,2.246,39.861,39.861,0,0,1,13.263,2.9,2.249,2.249,0,0,0,2.695-.757,12.168,12.168,0,0,1,.9-1.133,1.008,1.008,0,0,1,.74-.32.977.977,0,0,1,.679.269.986.986,0,0,1,.114,1.341c-.044.044-.135.141-.176.189a2.255,2.255,0,0,0-.51,1.762,2.248,2.248,0,0,0,.971,1.557c11.3,7.61,17.554,22.879,18.666,45.421-1.774-.4-3.861-.8-6.335-1.164a242.951,242.951,0,0,0-34.042-2.108,243.085,243.085,0,0,0-34.054,2.108c-2.475.368-4.562.76-6.336,1.164C-195.155,233.537-188.926,218.29-177.691,210.651ZM-200.718,262.1c3.941-2.156,20.508-4.858,44.846-4.858s40.891,2.7,44.832,4.858c-3.939,2.153-20.5,4.855-44.832,4.855S-196.781,264.249-200.718,262.1Zm12.14,7.441a249.943,249.943,0,0,0,32.705,1.914,249.594,249.594,0,0,0,32.7-1.915l4.5-.709c11.122-2.01,12.724-4.514,12.724-6.732,0-1.544-.778-3.223-4.992-4.779-.932-23.768-7.313-40.323-19.037-49.263a5.506,5.506,0,0,0-1.51-5.6,5.477,5.477,0,0,0-3.751-1.48,5.528,5.528,0,0,0-4.016,1.735c-.035.036-.1.1-.179.2a44.219,44.219,0,0,0-11.032-2.454v-.259a5.5,5.5,0,0,0-5.5-5.5,5.5,5.5,0,0,0-5.494,5.5v.271a43.966,43.966,0,0,0-10.985,2.5c-.09-.1-.163-.182-.22-.242a5.483,5.483,0,0,0-4-1.746,5.489,5.489,0,0,0-3.726,1.457,5.525,5.525,0,0,0-1.509,5.721c-11.648,8.968-17.988,25.492-18.916,49.17-4.215,1.557-4.993,3.235-4.993,4.779,0,2.221,1.6,4.722,12.732,6.734" transform="translate(205.81 -194.687)"/><path class="b" d="M-170.82,240.969a2.25,2.25,0,0,0,2.25-2.25V205.675a2.25,2.25,0,0,0-2.25-2.25,2.25,2.25,0,0,0-2.249,2.25v33.043A2.25,2.25,0,0,0-170.82,240.969Z" transform="translate(220.758 -190.698)"/><path class="b" d="M-177.11,230.721a2.252,2.252,0,0,0,2.237,2.016c.077,0,.156,0,.237-.012a2.251,2.251,0,0,0,2-2.473c-1-9.529-3.778-18.587-7.077-23.075a2.247,2.247,0,0,0-3.146-.479,2.25,2.25,0,0,0-.481,3.145C-181.068,212.93-178.152,220.778-177.11,230.721Z" transform="translate(215.871 -189.404)"/><path class="b" d="M-164.921,232.724a2.211,2.211,0,0,0,.239.013,2.253,2.253,0,0,0,2.236-2.014c1.049-9.957,3.965-17.8,6.23-20.878a2.249,2.249,0,0,0-.476-3.146,2.251,2.251,0,0,0-3.148.478c-3.3,4.476-6.077,13.534-7.083,23.076A2.25,2.25,0,0,0-164.921,232.724Z" transform="translate(223.558 -189.403)"/></g></g></svg>