<svg xmlns="http://www.w3.org/2000/svg" height="639.9978pt" version="1.1" viewBox="0 0 639.9978 639.9978" width="639.9978pt">
<g id="surface1">
<path d="M 639.996094 176.550781 L 639.996094 42.664062 L 490.667969 42.664062 L 490.667969 10.667969 C 490.667969 4.773438 485.890625 0 480 0 L 53.335938 0 C 47.441406 0 42.664062 4.773438 42.664062 10.667969 L 42.664062 42.664062 L 0 42.664062 L 0 106.664062 L 42.664062 106.664062 L 42.664062 138.667969 C 42.664062 144.558594 47.441406 149.335938 53.335938 149.335938 L 480 149.335938 C 485.890625 149.335938 490.667969 144.558594 490.667969 138.667969 L 490.667969 106.664062 L 576 106.664062 L 576 138.441406 L 288 319.871094 L 288 405.335938 L 266.667969 405.335938 C 260.777344 405.335938 256 410.109375 256 416 L 256 586.667969 C 256.035156 616.105469 279.890625 639.964844 309.335938 639.996094 L 330.667969 639.996094 C 360.105469 639.964844 383.964844 616.105469 383.996094 586.667969 L 383.996094 416 C 383.996094 410.105469 379.226562 405.332031 373.332031 405.332031 L 352 405.332031 L 352 357.992188 Z M 21.332031 85.332031 L 21.332031 64 L 42.664062 64 L 42.664062 85.332031 Z M 469.335938 127.996094 L 64 127.996094 L 64 21.332031 L 469.335938 21.332031 Z M 362.664062 426.664062 L 362.664062 586.664062 C 362.664062 604.339844 348.339844 618.664062 330.667969 618.664062 L 309.335938 618.664062 C 291.660156 618.664062 277.332031 604.339844 277.332031 586.664062 L 277.332031 426.664062 Z M 309.335938 405.332031 L 309.335938 331.648438 L 597.332031 150.210938 L 597.332031 85.332031 L 490.667969 85.332031 L 490.667969 64 L 618.664062 64 L 618.664062 164.78125 L 330.667969 346.214844 L 330.667969 405.332031 Z M 309.335938 405.332031 " style=" stroke:none;fill-rule:nonzero;fill:rgb(0%,0%,0%);fill-opacity:1;" />
</g>
</svg>