<svg xmlns="http://www.w3.org/2000/svg" height="638pt" version="1.1" viewBox="0 0 638.75085 638" width="638pt">
<g id="surface1">
<path d="M 638.75 309.109375 C 638.695312 295.617188 630.175781 283.625 617.460938 279.128906 L 617.460938 160.070312 C 617.402344 107.179688 574.539062 64.320312 521.652344 64.261719 L 435.847656 64.261719 C 433.953125 61.269531 432.015625 58.402344 429.988281 55.742188 C 384.253906 -5.34375 297.652344 -17.785156 236.5625 27.953125 C 226.046875 35.828125 216.710938 45.160156 208.832031 55.667969 C 206.769531 58.382812 204.820312 61.269531 202.925781 64.261719 L 117.121094 64.261719 C 64.230469 64.320312 21.371094 107.179688 21.3125 160.070312 L 21.3125 279.128906 C 4.753906 284.898438 -3.992188 302.992188 1.773438 319.550781 C 4.964844 328.703125 12.160156 335.898438 21.3125 339.082031 L 21.3125 628.472656 C 21.3125 634.351562 26.078125 639.117188 31.953125 639.117188 L 159.703125 639.117188 C 165.582031 639.117188 170.347656 634.351562 170.347656 628.472656 L 170.347656 339.082031 C 186.90625 333.3125 195.648438 315.21875 189.882812 298.660156 C 186.691406 289.511719 179.5 282.316406 170.347656 279.128906 L 170.347656 213.292969 L 202.925781 213.292969 C 204.820312 216.285156 206.753906 219.164062 208.777344 221.8125 C 254.515625 282.898438 341.121094 295.339844 402.207031 249.601562 C 412.722656 241.726562 422.0625 232.398438 429.941406 221.886719 C 432.003906 219.171875 433.953125 216.285156 435.847656 213.292969 L 468.425781 213.292969 L 468.425781 279.128906 C 451.867188 284.898438 443.121094 302.992188 448.886719 319.550781 C 452.078125 328.703125 459.273438 335.898438 468.425781 339.082031 L 468.425781 628.472656 C 468.425781 634.351562 473.191406 639.117188 479.066406 639.117188 L 606.816406 639.117188 C 612.695312 639.117188 617.464844 634.351562 617.464844 628.472656 L 617.464844 339.082031 C 630.175781 334.589844 638.695312 322.59375 638.75 309.109375 Z M 413.066406 68.582031 C 415.863281 72.277344 418.410156 76.152344 420.6875 80.1875 L 420.753906 80.285156 C 429.210938 94.9375 434.347656 111.273438 435.785156 128.132812 L 360.457031 128.132812 C 356.558594 113.238281 344.925781 101.605469 330.027344 97.707031 L 330.027344 22.296875 C 363.054688 25.132812 393.285156 41.980469 413.066406 68.582031 Z M 319.386719 160.070312 C 307.625 160.070312 298.09375 150.535156 298.09375 138.777344 C 298.09375 127.019531 307.625 117.484375 319.386719 117.484375 C 331.144531 117.484375 340.675781 127.019531 340.675781 138.777344 C 340.675781 150.535156 331.144531 160.070312 319.386719 160.070312 Z M 308.738281 22.285156 L 308.738281 97.707031 C 293.84375 101.605469 282.207031 113.238281 278.3125 128.132812 L 202.988281 128.132812 C 204.464844 111.25 209.632812 94.894531 218.132812 80.230469 C 220.429688 76.15625 222.992188 72.246094 225.808594 68.519531 C 245.578125 41.964844 275.761719 25.136719 308.738281 22.285156 Z M 149.054688 617.824219 L 42.601562 617.824219 L 42.601562 341.042969 L 149.054688 341.042969 Z M 159.703125 319.75 L 31.953125 319.75 C 26.078125 319.75 21.3125 314.984375 21.3125 309.109375 C 21.3125 303.226562 26.078125 298.460938 31.953125 298.460938 L 159.703125 298.460938 C 165.582031 298.460938 170.347656 303.226562 170.347656 309.109375 C 170.347656 314.984375 165.582031 319.75 159.703125 319.75 Z M 159.703125 192.003906 C 153.820312 192.003906 149.054688 196.773438 149.054688 202.652344 L 149.054688 277.167969 L 42.601562 277.167969 L 42.601562 160.070312 C 42.648438 118.933594 75.984375 85.59375 117.121094 85.550781 L 191.636719 85.550781 L 191.636719 85.625 C 190.082031 89.339844 188.753906 93.128906 187.53125 96.972656 C 187.230469 97.917969 186.933594 98.878906 186.65625 99.835938 C 185.527344 103.644531 184.527344 107.492188 183.726562 111.382812 L 183.726562 111.589844 C 182.929688 115.546875 182.378906 119.550781 181.929688 123.574219 C 181.824219 124.578125 181.71875 125.574219 181.632812 126.589844 C 181.273438 130.632812 181.027344 134.6875 181.027344 138.777344 C 181.027344 142.867188 181.273438 146.929688 181.632812 150.976562 C 181.71875 151.972656 181.824219 152.96875 181.929688 153.96875 C 182.378906 158.003906 182.945312 162.011719 183.742188 165.984375 L 183.742188 166.046875 C 184.539062 170.03125 185.578125 173.949219 186.71875 177.820312 C 186.988281 178.710938 187.25 179.582031 187.53125 180.453125 C 188.765625 184.363281 190.125 188.226562 191.714844 192.003906 Z M 225.707031 208.976562 C 222.886719 205.242188 220.316406 201.335938 218.019531 197.265625 C 209.5625 182.613281 204.429688 166.277344 202.988281 149.425781 L 278.3125 149.425781 C 282.210938 164.316406 293.84375 175.957031 308.742188 179.847656 L 308.742188 255.261719 C 275.734375 252.40625 245.527344 235.5625 225.761719 208.976562 Z M 330.027344 255.273438 L 330.027344 179.847656 C 344.925781 175.957031 356.558594 164.316406 360.457031 149.425781 L 435.785156 149.425781 C 434.308594 166.3125 429.136719 182.667969 420.632812 197.328125 C 418.34375 201.398438 415.777344 205.3125 412.957031 209.039062 C 393.191406 235.589844 363.011719 252.417969 330.027344 255.273438 Z M 447.132812 192.003906 L 447.132812 191.929688 C 448.683594 188.21875 450.019531 184.414062 451.242188 180.585938 C 451.539062 179.636719 451.835938 178.675781 452.113281 177.71875 C 453.238281 173.910156 454.242188 170.0625 455.042969 166.171875 L 455.089844 165.964844 C 455.890625 162.007812 456.445312 157.992188 456.894531 153.972656 C 457.003906 152.96875 457.105469 151.980469 457.191406 150.980469 C 457.550781 146.925781 457.796875 142.867188 457.796875 138.777344 C 457.796875 134.695312 457.550781 130.632812 457.191406 126.597656 C 457.105469 125.535156 456.996094 124.578125 456.894531 123.578125 C 456.445312 119.566406 455.890625 115.570312 455.089844 111.625 L 455.007812 111.25 C 454.234375 107.417969 453.230469 103.625 452.125 99.878906 C 451.835938 98.898438 451.539062 97.917969 451.226562 96.953125 C 450.015625 93.128906 448.683594 89.34375 447.132812 85.648438 L 447.132812 85.550781 L 521.652344 85.550781 C 562.785156 85.59375 596.125 118.933594 596.167969 160.070312 L 596.167969 277.167969 L 489.714844 277.167969 L 489.714844 202.652344 C 489.714844 196.773438 484.945312 192.003906 479.066406 192.003906 Z M 596.167969 617.824219 L 489.714844 617.824219 L 489.714844 341.042969 L 596.167969 341.042969 Z M 606.816406 319.75 L 479.066406 319.75 C 473.191406 319.75 468.421875 314.984375 468.421875 309.109375 C 468.421875 303.226562 473.191406 298.460938 479.066406 298.460938 L 606.816406 298.460938 C 612.695312 298.460938 617.460938 303.226562 617.460938 309.109375 C 617.460938 314.984375 612.695312 319.75 606.816406 319.75 Z M 606.816406 319.75 " style=" stroke:none;fill-rule:nonzero;fill:rgb(0%,0%,0%);fill-opacity:1;" />
</g>
</svg>